<svg width="26" height="30" viewBox="0 0 26 30" fill="none" xmlns="http://www.w3.org/2000/svg">
<path d="M21.1258 15.2446C21.1127 12.8849 22.2013 11.1038 24.405 9.79216C23.172 8.06256 21.3094 7.11096 18.85 6.9245C16.5218 6.74447 13.9771 8.25546 13.0459 8.25546C12.0621 8.25546 9.80602 6.9888 8.03526 6.9888C4.37569 7.04667 0.486572 9.85003 0.486572 15.5532C0.486572 17.2378 0.801374 18.9781 1.43098 20.7742C2.27045 23.1339 5.30042 28.9206 8.46155 28.8242C10.1143 28.7856 11.2817 27.6733 13.4328 27.6733C15.5184 27.6733 16.6005 28.8242 18.4434 28.8242C21.6308 28.7792 24.3722 23.5197 25.1723 21.1535C20.8962 19.1796 21.1258 15.3667 21.1258 15.2446ZM17.4137 4.68695C19.2042 2.60372 19.0402 0.706943 18.9877 0.0253906C17.4072 0.115407 15.5774 1.07987 14.5346 2.26937C13.3869 3.54246 12.7114 5.11774 12.8557 6.89235C14.5674 7.02095 16.1283 6.15936 17.4137 4.68695Z" fill="white"/>
</svg>
