<svg width="13" height="15" viewBox="0 0 13 15" fill="none" xmlns="http://www.w3.org/2000/svg">
<path d="M7.24001 12.2173L7.24002 4.09324L10.226 6.5798C10.2952 6.63737 10.3751 6.68073 10.4611 6.70741C10.5471 6.7341 10.6376 6.74357 10.7272 6.7353C10.9083 6.7186 11.0754 6.63063 11.1916 6.49075C11.3079 6.35086 11.3638 6.17051 11.3471 5.98938C11.3304 5.80825 11.2424 5.64117 11.1026 5.52489L6.99347 2.09989C6.9606 2.0766 6.92635 2.05605 6.89074 2.03824C6.8565 2.03824 6.83595 2.00399 6.80171 1.99029C6.72319 1.95925 6.6396 1.94299 6.55516 1.94234C6.47073 1.94299 6.38714 1.95925 6.30862 1.99029C6.27437 1.99029 6.25383 2.02454 6.21959 2.03824C6.18389 2.05626 6.14955 2.07687 6.11686 2.09989L2.00774 5.52489C1.93839 5.5824 1.88107 5.65302 1.83905 5.73272C1.79704 5.81242 1.77115 5.89962 1.76288 5.98934C1.75461 6.07906 1.76412 6.16953 1.79086 6.25557C1.8176 6.34161 1.86104 6.42153 1.91871 6.49074C1.97615 6.56018 2.04674 6.61759 2.12642 6.65967C2.2061 6.70175 2.29331 6.72767 2.38303 6.73594C2.47276 6.74421 2.56323 6.73468 2.64927 6.70788C2.7353 6.68109 2.81519 6.63756 2.88435 6.57979L5.87031 4.09324L5.87031 12.2173C5.87031 12.399 5.94246 12.5732 6.0709 12.7017C6.19933 12.8302 6.37353 12.9023 6.55516 12.9023C6.7368 12.9023 6.91099 12.8302 7.03943 12.7017C7.16786 12.5732 7.24001 12.399 7.24001 12.2173Z" fill="white"/>
</svg>
