<svg width="10" height="12" viewBox="0 0 10 12" fill="none" xmlns="http://www.w3.org/2000/svg">
<g clip-path="url(#clip0_1919_38722)">
<path d="M4.34265 1.18376L4.34265 9.31633L1.35358 6.82719C1.28426 6.76956 1.20426 6.72615 1.11817 6.69944C1.03207 6.67273 0.941557 6.66324 0.851795 6.67152C0.670513 6.68824 0.503296 6.7763 0.386929 6.91633C0.270562 7.05637 0.214577 7.2369 0.231291 7.41822C0.248005 7.59954 0.336049 7.7668 0.476054 7.88319L4.58945 11.3118C4.62236 11.3351 4.65664 11.3556 4.69229 11.3735C4.72657 11.3735 4.74713 11.4078 4.78141 11.4215C4.86002 11.4526 4.94369 11.4688 5.02822 11.4695C5.11274 11.4688 5.19641 11.4526 5.27502 11.4215C5.3093 11.4215 5.32987 11.3872 5.36414 11.3735C5.39988 11.3554 5.43425 11.3348 5.46698 11.3118L9.58038 7.88319C9.6498 7.82563 9.70718 7.75493 9.74924 7.67515C9.7913 7.59537 9.81722 7.50807 9.82549 7.41826C9.83377 7.32844 9.82426 7.23788 9.79749 7.15175C9.77072 7.06562 9.72723 6.98562 9.6695 6.91633C9.612 6.84682 9.54134 6.78935 9.46158 6.74723C9.38181 6.70511 9.29451 6.67916 9.2047 6.67088C9.11488 6.6626 9.02431 6.67214 8.93819 6.69897C8.85207 6.72579 8.77209 6.76937 8.70285 6.82719L5.71378 9.31633L5.71378 1.18376C5.71378 1.0019 5.64155 0.827484 5.51299 0.698888C5.38442 0.570292 5.21004 0.498047 5.02822 0.498047C4.84639 0.498047 4.67202 0.570292 4.54345 0.698888C4.41488 0.827484 4.34265 1.0019 4.34265 1.18376Z" fill="white"/>
</g>
<defs>
<clipPath id="clip0_1919_38722">
<rect width="9.6" height="10.9714" fill="white" transform="translate(0.228516 0.498047)"/>
</clipPath>
</defs>
</svg>
