<svg width="26" height="25" viewBox="0 0 26 25" fill="none" xmlns="http://www.w3.org/2000/svg">
<path d="M12.7989 24.9435C19.6157 24.9435 25.1418 19.4174 25.1418 12.6007C25.1418 5.7839 19.6157 0.257812 12.7989 0.257812C5.98214 0.257812 0.456055 5.7839 0.456055 12.6007C0.456055 19.4174 5.98214 24.9435 12.7989 24.9435Z" fill="#1769FF"/>
<path d="M9.17707 7.00781C9.70929 7.00781 10.1951 7.05521 10.6345 7.14902C11.0739 7.24282 11.4491 7.39686 11.7622 7.61113C12.0752 7.8254 12.3181 8.10978 12.4909 8.46526C12.6637 8.82073 12.7496 9.25915 12.7496 9.7815C12.7496 10.3453 12.6212 10.8153 12.3655 11.1915C12.1097 11.5678 11.7306 11.8758 11.2299 12.1158C11.9192 12.3143 12.4336 12.6618 12.7733 13.1575C13.113 13.6532 13.2828 14.2516 13.2828 14.9517C13.2828 15.5155 13.1732 16.0043 12.954 16.417C12.7348 16.8298 12.4395 17.1665 12.0683 17.4272C11.697 17.6888 11.2744 17.8814 10.7994 18.0068C10.3215 18.1322 9.82877 18.1954 9.33505 18.1944H3.91309V7.00781H9.17707ZM8.86405 11.5352C9.30247 11.5352 9.66288 11.4305 9.94528 11.2222C10.2277 11.0128 10.3689 10.6741 10.3679 10.2041C10.3679 9.94344 10.3205 9.72916 10.2267 9.56229C10.1329 9.39541 10.0075 9.26409 9.85049 9.17028C9.69349 9.07647 9.51378 9.0113 9.31037 8.97477C9.10103 8.93823 8.88874 8.91947 8.67545 8.92046H6.37376V11.5371L8.86405 11.5352ZM9.00525 16.2817C9.2373 16.2827 9.46836 16.259 9.69448 16.2116C9.91369 16.1642 10.1072 16.0862 10.2741 15.9766C10.441 15.867 10.5743 15.7179 10.674 15.5303C10.7727 15.3427 10.8231 15.1018 10.8231 14.8095C10.8231 14.2358 10.6612 13.825 10.3373 13.5801C10.0134 13.3343 9.58487 13.2118 9.05265 13.2118H6.37376V16.2827L9.00525 16.2817ZM16.3774 16.0467C16.7111 16.3706 17.192 16.5325 17.819 16.5325C18.2683 16.5325 18.6544 16.42 18.9783 16.1958C19.3022 15.9717 19.5006 15.7337 19.5737 15.4829H21.5318C21.2188 16.4545 20.7379 17.1487 20.0901 17.5664C19.4424 17.9841 18.6593 18.1934 17.74 18.1934C17.1032 18.1934 16.5285 18.0917 16.017 17.8883C15.5055 17.6849 15.072 17.3946 14.7165 17.0184C14.3611 16.6421 14.0866 16.1939 13.894 15.6715C13.7015 15.1492 13.6047 14.5745 13.6047 13.9484C13.6047 13.3432 13.7034 12.7793 13.9019 12.257C14.1004 11.7346 14.3828 11.2834 14.7481 10.9022C15.1135 10.5211 15.5499 10.2209 16.0565 10.0017C16.563 9.78249 17.1249 9.67288 17.741 9.67288C18.4303 9.67288 19.0306 9.80618 19.5431 10.0728C20.0546 10.3394 20.4752 10.6968 20.804 11.1461C21.1328 11.5954 21.3708 12.1069 21.517 12.6816C21.6631 13.2563 21.7154 13.8566 21.674 14.4836H15.8304C15.861 15.2015 16.0436 15.7238 16.3774 16.0467ZM18.8924 11.786C18.6258 11.4937 18.2209 11.3476 17.6778 11.3476C17.3224 11.3476 17.0271 11.4078 16.7931 11.5273C16.5581 11.6477 16.3705 11.7959 16.2293 11.9736C16.0881 12.1513 15.9893 12.3389 15.9321 12.5374C15.8748 12.7359 15.8402 12.9136 15.8304 13.0696H19.4493C19.3436 12.5068 19.158 12.0783 18.8924 11.786ZM15.4492 7.57558H19.9706V8.82962H15.4492V7.57558Z" fill="white"/>
</svg>
