<svg width="16" height="12" viewBox="0 0 16 12" fill="none" xmlns="http://www.w3.org/2000/svg">
<path d="M8.99989 0.9C7.69338 0.9 6.55688 1.67175 5.92703 2.81583C5.64874 2.66133 5.33641 2.56663 4.99998 2.56663C3.83067 2.56663 2.89998 3.6165 2.89998 4.88885C2.89998 5.07276 2.92512 5.24729 2.96265 5.41438C1.77945 5.69037 0.9 6.84402 0.9 8.22221C0.9 9.80153 2.0543 11.1 3.50002 11.1H12.5C13.9457 11.1 15.1 9.80153 15.1 8.22221C15.0999 6.66934 13.9839 5.388 12.5723 5.34551C12.5888 5.19656 12.5997 5.04421 12.5997 4.8887C12.5997 2.69577 10.9978 0.9 8.99989 0.9ZM3.18545 6.13717L3.18545 6.13717L3.73618 6.03411L3.84115 6.01447L3.81466 5.91101L3.66183 5.31422L3.66181 5.31416C3.61886 5.14684 3.60003 5.01275 3.60003 4.8888C3.60003 4.01483 4.23775 3.3222 4.99998 3.3222C5.22538 3.3222 5.45046 3.38901 5.67044 3.52533L5.67051 3.52538L6.10117 3.79172L6.19291 3.84845L6.24255 3.75269L6.48865 3.27796L6.48868 3.2779C7.00857 2.27343 7.97242 1.65557 8.99995 1.65557C10.5893 1.65557 11.8998 3.09584 11.8998 4.88878C11.8998 5.02338 11.8891 5.17075 11.8655 5.35227L11.8655 5.35239L11.784 5.9872L11.7695 6.09993H11.8832H12.4598C13.5392 6.09993 14.3998 7.04345 14.3998 8.22215C14.3997 9.40196 13.538 10.3442 12.4998 10.3442H12.4879L12.4878 10.3443H3.50003C2.46191 10.3443 1.60003 9.40209 1.60003 8.22204C1.60003 7.17892 2.27359 6.30776 3.18545 6.13717Z" fill="#BCBCBC" stroke="#BCBCBC" stroke-width="0.2"/>
</svg>
