<svg width="16" height="16" viewBox="0 0 16 16" fill="none" xmlns="http://www.w3.org/2000/svg">
<path d="M6.17578 9.36208C6.45503 9.64708 6.78834 9.87351 7.1562 10.0281C7.52405 10.1827 7.91905 10.2623 8.31807 10.2623C8.71708 10.2623 9.11208 10.1827 9.47993 10.0281C9.84779 9.87351 10.1811 9.64708 10.4604 9.36208L13.888 5.93442C14.441 5.36315 14.7473 4.5974 14.7409 3.80232C14.7344 3.00725 14.4157 2.24657 13.8535 1.68436C13.2913 1.12214 12.5306 0.80343 11.7355 0.796975C10.9405 0.79052 10.1747 1.09683 9.60344 1.64985L9.17498 2.07831" stroke="white" stroke-width="1.37" stroke-linecap="round" stroke-linejoin="round"/>
<path d="M9.60426 5.93657C9.32489 5.65177 8.99154 5.42554 8.6237 5.2711C8.25586 5.11666 7.86092 5.03711 7.46198 5.03711C7.06303 5.03711 6.66809 5.11666 6.30025 5.2711C5.93242 5.42554 5.59906 5.65177 5.31969 5.93657L1.89204 9.36423C1.33902 9.9355 1.03271 10.7013 1.03916 11.4963C1.04562 12.2914 1.36432 13.0521 1.92654 13.6143C2.48876 14.1765 3.24944 14.4952 4.04451 14.5017C4.83958 14.5081 5.60534 14.2018 6.17661 13.6488L6.60507 13.2203" stroke="white" stroke-width="1.37" stroke-linecap="round" stroke-linejoin="round"/>
</svg>
