<svg width="17" height="18" viewBox="0 0 17 18" fill="none" xmlns="http://www.w3.org/2000/svg">
<path d="M5.00299 5.33789H3.09329C2.58681 5.33789 2.10107 5.51035 1.74293 5.81732C1.38479 6.1243 1.18359 6.54065 1.18359 6.97477V15.1592C1.18359 15.5933 1.38479 16.0097 1.74293 16.3166C2.10107 16.6236 2.58681 16.7961 3.09329 16.7961H10.7321C11.2386 16.7961 11.7243 16.6236 12.0824 16.3166C12.4406 16.0097 12.6418 15.5933 12.6418 15.1592V13.5223" stroke="#06A8ED" stroke-width="1.37" stroke-linecap="round" stroke-linejoin="round"/>
<path d="M5.48047 12.0919V2.88446C5.48047 2.39607 5.65652 1.92768 5.96989 1.58233C6.28326 1.23698 6.70828 1.04297 7.15145 1.04297H10.983C11.2046 1.04302 11.4171 1.14006 11.5737 1.31275L15.2616 5.37692C15.4183 5.54956 15.5063 5.78371 15.5064 6.02789V12.0919C15.5064 12.5803 15.3303 13.0487 15.017 13.3941C14.7036 13.7394 14.2786 13.9334 13.8354 13.9334H7.15145C6.70828 13.9334 6.28326 13.7394 5.96989 13.3941C5.65652 13.0487 5.48047 12.5803 5.48047 12.0919Z" stroke="#06A8ED" stroke-width="1.37" stroke-linecap="round" stroke-linejoin="round"/>
</svg>
