<svg width="14" height="16" viewBox="0 0 14 16" fill="none" xmlns="http://www.w3.org/2000/svg">
<path d="M3.86027 5.14062H2.19967C1.75925 5.14063 1.33687 5.29059 1.02544 5.55752C0.714019 5.82446 0.539063 6.1865 0.539062 6.564V13.6809C0.539063 14.0584 0.714019 14.4204 1.02544 14.6874C1.33687 14.9543 1.75925 15.1043 2.19967 15.1043H8.84209C9.28251 15.1043 9.70489 14.9543 10.0163 14.6874C10.3277 14.4204 10.5027 14.0584 10.5027 13.6809V12.2575" stroke="#BCBCBC" stroke-width="0.822" stroke-linecap="round" stroke-linejoin="round"/>
<path d="M4.27539 11.0121V3.0056C4.27539 2.5809 4.42848 2.17361 4.70097 1.87331C4.97347 1.573 5.34305 1.4043 5.72842 1.4043H9.06022C9.25289 1.40434 9.43765 1.48873 9.57387 1.63889L12.7807 5.17295C12.917 5.32307 12.9935 5.52668 12.9936 5.73901V11.0121C12.9936 11.4368 12.8405 11.8441 12.568 12.1444C12.2955 12.4447 11.9259 12.6134 11.5405 12.6134H5.72842C5.34305 12.6134 4.97347 12.4447 4.70097 12.1444C4.42848 11.8441 4.27539 11.4368 4.27539 11.0121Z" stroke="#BCBCBC" stroke-width="0.822" stroke-linecap="round" stroke-linejoin="round"/>
</svg>
