<svg width="25" height="6" viewBox="0 0 25 6" fill="none" xmlns="http://www.w3.org/2000/svg">
<path d="M10.3275 3.01203C10.3275 3.55705 10.544 4.07975 10.9294 4.46514C11.3148 4.85052 11.8375 5.06703 12.3825 5.06703C12.9275 5.06703 13.4502 4.85052 13.8356 4.46514C14.221 4.07975 14.4375 3.55705 14.4375 3.01203C14.4375 2.46701 14.221 1.94431 13.8356 1.55893C13.4502 1.17354 12.9275 0.957031 12.3825 0.957031C11.8375 0.957031 11.3148 1.17354 10.9294 1.55893C10.544 1.94431 10.3275 2.46701 10.3275 3.01203Z" fill="#BCBCBC"/>
<path d="M19.9173 3.01203C19.9173 3.55705 20.1339 4.07975 20.5192 4.46514C20.9046 4.85052 21.4273 5.06703 21.9723 5.06703C22.5174 5.06703 23.0401 4.85052 23.4254 4.46514C23.8108 4.07975 24.0273 3.55705 24.0273 3.01203C24.0273 2.46701 23.8108 1.94431 23.4254 1.55893C23.0401 1.17354 22.5174 0.957031 21.9723 0.957031C21.4273 0.957031 20.9046 1.17354 20.5192 1.55893C20.1339 1.94431 19.9173 2.46701 19.9173 3.01203Z" fill="#BCBCBC"/>
<path d="M0.737656 3.01203C0.737656 3.55705 0.954165 4.07975 1.33955 4.46514C1.72494 4.85052 2.24764 5.06703 2.79266 5.06703C3.33768 5.06703 3.86037 4.85052 4.24576 4.46514C4.63115 4.07975 4.84766 3.55705 4.84766 3.01203C4.84766 2.46701 4.63115 1.94431 4.24576 1.55893C3.86037 1.17354 3.33768 0.957031 2.79266 0.957031C2.24764 0.957031 1.72494 1.17354 1.33955 1.55893C0.954165 1.94431 0.737656 2.46701 0.737656 3.01203Z" fill="#BCBCBC"/>
</svg>
