<svg width="26" height="25" viewBox="0 0 26 25" fill="none" xmlns="http://www.w3.org/2000/svg">
<path d="M8.38343 1.23731C9.86434 0.607634 11.491 0.257812 13.1993 0.257812C16.6042 0.257812 19.6943 1.63961 21.9273 3.87263C24.1604 6.10565 25.5421 9.19574 25.5421 12.6007C25.5421 16.0056 24.1604 19.0957 21.9273 21.3287C19.6943 23.5617 16.6042 24.9435 13.1993 24.9435C9.79437 24.9435 6.70429 23.5617 4.47126 21.3287C2.23824 19.0957 0.856445 16.0056 0.856445 12.6007C0.856445 9.19574 2.23824 6.10565 4.47126 3.87263C5.59652 2.74737 6.92001 1.85533 8.38343 1.23731ZM8.16187 2.42087C8.98395 3.20214 11.7009 5.9424 13.9106 10.2569C8.68078 12.3675 3.44512 10.4959 2.15078 9.96535C2.07499 10.2918 2.01085 10.6183 1.96421 10.9507C3.62586 11.6037 9.00144 13.3411 14.3479 11.1547C14.6627 11.8194 14.9601 12.5132 15.2341 13.2478C9.61946 14.9911 6.79174 19.8303 6.01048 21.387C6.26701 21.5969 6.53521 21.801 6.80923 21.9875C7.3981 20.7632 10.0509 15.8773 15.5722 14.1865C16.476 16.851 17.0706 19.9003 17.024 23.2935C17.3622 23.1711 17.6887 23.037 18.0093 22.8854C18.0035 19.5679 17.4146 16.5653 16.5226 13.9358C18.7265 13.4402 21.3443 13.4461 24.4227 14.3323C24.4694 14.0058 24.5102 13.6734 24.5277 13.3411C21.2802 12.4316 18.5166 12.4432 16.1844 12.9855C15.8929 12.2042 15.5722 11.4579 15.2399 10.7524C17.4671 9.65051 19.6535 7.81395 21.525 4.88128C21.4259 4.77633 21.3268 4.67139 21.2277 4.57227C21.0936 4.43817 20.9478 4.30408 20.8079 4.16998C19.0238 7.02685 16.9307 8.79928 14.8026 9.85457C12.7329 5.80831 10.2375 3.08553 9.13554 1.99526C8.78572 2.12935 8.48837 2.26345 8.16187 2.42087Z" fill="#EE6996"/>
</svg>
