<svg width="17" height="17" viewBox="0 0 17 17" fill="none" xmlns="http://www.w3.org/2000/svg">
<path d="M13.9341 1.17441C14.0669 1.03947 14.2251 0.932143 14.3995 0.858632C14.574 0.785121 14.7612 0.746876 14.9505 0.746106C15.1398 0.745335 15.3274 0.782053 15.5025 0.854141C15.6775 0.926229 15.8366 1.03226 15.9704 1.16612C16.1043 1.29998 16.2103 1.45902 16.2824 1.63406C16.3545 1.80911 16.3912 1.99669 16.3904 2.186C16.3897 2.3753 16.3514 2.56258 16.2779 2.73703C16.2044 2.91148 16.0971 3.06965 15.9621 3.20242L15.3933 3.77066L13.3659 1.74326L13.9341 1.17441ZM12.3519 2.75726L6.34375 8.76479V10.7928H8.37175L14.3805 4.78466L12.3519 2.75726Z" fill="#06A8ED"/>
<path d="M8.06446 2.32812H3.77241C2.41789 2.32812 1.31982 3.42619 1.31982 4.78072V13.3648C1.31982 14.7193 2.41789 15.8174 3.77242 15.8174H12.3565C13.711 15.8174 14.8091 14.7193 14.8091 13.3648V9.07276" stroke="#06A8ED" stroke-width="1.37" stroke-linecap="round"/>
</svg>
