<svg width="20" height="20" viewBox="0 0 20 20" fill="none" xmlns="http://www.w3.org/2000/svg">
<g clip-path="url(#clip0_1919_38787)">
<path d="M16.7531 1.07701C16.9101 0.917373 17.0973 0.790409 17.3036 0.703445C17.51 0.616481 17.7316 0.571238 17.9555 0.570327C18.1795 0.569415 18.4014 0.612852 18.6084 0.698132C18.8155 0.783412 19.0037 0.908848 19.162 1.0672C19.3204 1.22556 19.4458 1.4137 19.5311 1.62078C19.6164 1.82786 19.6598 2.04977 19.6589 2.27371C19.658 2.49766 19.6127 2.71921 19.5258 2.92559C19.4388 3.13196 19.3118 3.31908 19.1522 3.47614L18.4793 4.14837L16.0808 1.74996L16.7531 1.07701ZM14.8813 2.94952L7.77368 10.0564V12.4555H10.1728L17.2811 5.34794L14.8813 2.94952Z" fill="#BCBCBC"/>
<path d="M9.80751 2.43945H4.73002C3.12762 2.43945 1.82861 3.73846 1.82861 5.34086V15.4958C1.82861 17.0982 3.12762 18.3972 4.73002 18.3972H14.885C16.4874 18.3972 17.7864 17.0982 17.7864 15.4958V10.4183" stroke="#BCBCBC" stroke-width="1.62071" stroke-linecap="round"/>
</g>
<defs>
<clipPath id="clip0_1919_38787">
<rect width="19.2" height="19.2" fill="white" transform="translate(0.457031 0.570312)"/>
</clipPath>
</defs>
</svg>
