<svg width="24" height="19" viewBox="0 0 24 19" fill="none" xmlns="http://www.w3.org/2000/svg">
<path d="M22.2106 4.19019V14.7392C22.2106 15.3387 21.9608 15.9137 21.5161 16.3376C21.0715 16.7615 20.4684 16.9997 19.8395 16.9997H4.0318C3.40293 16.9997 2.79982 16.7615 2.35514 16.3376C1.91046 15.9137 1.66064 15.3387 1.66064 14.7392V4.19019M22.2106 4.19019C22.2106 3.59067 21.9608 3.0157 21.5161 2.59177C21.0715 2.16785 20.4684 1.92969 19.8395 1.92969H4.0318C3.40293 1.92969 2.79982 2.16785 2.35514 2.59177C1.91046 3.0157 1.66064 3.59067 1.66064 4.19019M22.2106 4.19019V4.43432C22.2107 4.82026 22.1071 5.19978 21.9097 5.53674C21.7123 5.87369 21.4277 6.15686 21.083 6.35926L13.1792 10.9958C12.8053 11.2154 12.3748 11.3316 11.9356 11.3316C11.4965 11.3316 11.066 11.2154 10.6921 10.9958L2.78826 6.36027C2.44357 6.15786 2.15898 5.8747 1.96159 5.53774C1.7642 5.20079 1.6606 4.82126 1.66064 4.43533V4.19019" stroke="url(#paint0_linear_1942_11139)" stroke-width="2.055" stroke-linecap="round" stroke-linejoin="round"/>
<defs>
<linearGradient id="paint0_linear_1942_11139" x1="1.66064" y1="1.92969" x2="11.6149" y2="21.0182" gradientUnits="userSpaceOnUse">
<stop stop-color="#2D36A6"/>
<stop offset="0.450853" stop-color="#06A8ED"/>
<stop offset="1" stop-color="#E552A7"/>
</linearGradient>
</defs>
</svg>
