<svg width="24" height="18" viewBox="0 0 24 18" fill="none" xmlns="http://www.w3.org/2000/svg">
<path d="M22.0573 3.93668V14.4967C22.0573 15.0968 21.8072 15.6724 21.362 16.0968C20.9169 16.5211 20.3132 16.7595 19.6836 16.7595H3.85947C3.22994 16.7595 2.6262 16.5211 2.18106 16.0968C1.73592 15.6724 1.48584 15.0968 1.48584 14.4967V3.93668M22.0573 3.93668C22.0573 3.33654 21.8072 2.76097 21.362 2.3366C20.9169 1.91224 20.3132 1.67383 19.6836 1.67383H3.85947C3.22994 1.67383 2.6262 1.91224 2.18106 2.3366C1.73592 2.76097 1.48584 3.33654 1.48584 3.93668M22.0573 3.93668V4.18107C22.0573 4.56741 21.9536 4.94733 21.756 5.28464C21.5584 5.62195 21.2735 5.90541 20.9285 6.10802L13.0164 10.7494C12.6421 10.9692 12.2111 11.0856 11.7716 11.0856C11.332 11.0856 10.901 10.9692 10.5267 10.7494L2.61463 6.10903C2.26958 5.90641 1.98469 5.62295 1.7871 5.28564C1.58951 4.94834 1.48579 4.56842 1.48584 4.18208V3.93668" stroke="#B6B6B6" stroke-width="2.05714" stroke-linecap="round" stroke-linejoin="round"/>
</svg>
