<svg width="25" height="19" viewBox="0 0 25 19" fill="none" xmlns="http://www.w3.org/2000/svg">
<path d="M1.68498 10.1028C1.60924 9.87513 1.60924 9.62907 1.68498 9.40143C3.20731 4.82126 7.52845 1.51758 12.6212 1.51758C17.7117 1.51758 22.0307 4.81797 23.5563 9.39594C23.6331 9.62314 23.6331 9.86899 23.5563 10.0973C22.035 14.6774 17.7139 17.9811 12.6212 17.9811C7.53065 17.9811 3.21061 14.6807 1.68498 10.1028Z" stroke="#BCBCBC" stroke-width="1.92" stroke-linecap="round" stroke-linejoin="round"/>
<path d="M15.9131 9.74584C15.9131 10.6191 15.5661 11.4566 14.9486 12.0741C14.3311 12.6916 13.4936 13.0385 12.6203 13.0385C11.7471 13.0385 10.9096 12.6916 10.292 12.0741C9.67455 11.4566 9.32764 10.6191 9.32764 9.74584C9.32764 8.87255 9.67455 8.03504 10.292 7.41754C10.9096 6.80003 11.7471 6.45313 12.6203 6.45312C13.4936 6.45312 14.3311 6.80003 14.9486 7.41754C15.5661 8.03504 15.9131 8.87255 15.9131 9.74584Z" stroke="#BCBCBC" stroke-width="1.92" stroke-linecap="round" stroke-linejoin="round"/>
</svg>
