<svg width="25" height="19" viewBox="0 0 25 19" fill="none" xmlns="http://www.w3.org/2000/svg">
<path d="M1.99718 9.71688C1.92151 9.48947 1.92151 9.24367 1.99718 9.01626C3.51792 4.44087 7.83456 1.14062 12.922 1.14062C18.0072 1.14062 22.3217 4.43758 23.8457 9.01078C23.9224 9.23774 23.9224 9.48334 23.8457 9.7114C22.326 14.2868 18.0094 17.587 12.922 17.587C7.83675 17.587 3.52121 14.2901 1.99718 9.71688Z" stroke="#06A8ED" stroke-width="1.918" stroke-linecap="round" stroke-linejoin="round"/>
<path d="M16.2104 9.3635C16.2104 10.2359 15.8639 11.0725 15.247 11.6894C14.6301 12.3062 13.7935 12.6528 12.9211 12.6528C12.0487 12.6528 11.2121 12.3062 10.5952 11.6894C9.97838 11.0725 9.63184 10.2359 9.63184 9.3635C9.63184 8.49113 9.97838 7.65449 10.5952 7.03763C11.2121 6.42077 12.0487 6.07422 12.9211 6.07422C13.7935 6.07422 14.6301 6.42077 15.247 7.03763C15.8639 7.65449 16.2104 8.49113 16.2104 9.3635Z" stroke="#06A8ED" stroke-width="1.918" stroke-linecap="round" stroke-linejoin="round"/>
</svg>
