<svg width="23" height="23" viewBox="0 0 23 23" fill="none" xmlns="http://www.w3.org/2000/svg">
<path d="M11.4522 2.61011C14.017 0.04671 18.1784 0.0467097 20.745 2.60963C23.2459 5.10683 23.31 9.11582 20.9374 11.6905L20.7313 11.9064L11.0918 21.5299L11.0518 21.5629C9.45116 23.0032 6.98216 22.9543 5.44054 21.4149C3.9957 19.9722 3.86194 17.716 5.03925 16.1227C5.06482 16.0731 5.09576 16.0252 5.13214 15.9802L5.1908 15.915L5.286 15.819L5.44054 15.6572L5.44374 15.6604L13.5887 7.5069C13.88 7.21528 14.3364 7.18819 14.6583 7.42606L14.7506 7.50536C15.0426 7.79622 15.0698 8.25192 14.8316 8.57339L14.7521 8.66551L6.43308 16.9927C5.64699 17.9504 5.70163 19.3661 6.59699 20.2601C7.50514 21.1669 8.95067 21.2101 9.91 20.3897L19.5852 10.731C21.5082 8.80845 21.5082 5.69196 19.5832 3.76977C17.7183 1.90765 14.7311 1.84946 12.7961 3.5952L12.6122 3.76977L12.5984 3.78543L2.15246 14.2162C1.83163 14.5366 1.31146 14.5366 0.990624 14.2162C0.698959 13.925 0.672444 13.4692 0.911079 13.1481L0.990624 13.0561L11.4503 2.60963L11.4522 2.61011Z" fill="#BCBCBC"/>
</svg>
