<svg width="26" height="27" viewBox="0 0 26 27" fill="none" xmlns="http://www.w3.org/2000/svg">
<mask id="mask0_1942_11015" style="mask-type:luminance" maskUnits="userSpaceOnUse" x="0" y="0" width="26" height="27">
<path d="M24.8589 11.294H13.104V16.1605H19.8702C19.2395 19.2522 16.6018 21.0271 13.104 21.0271C8.97547 21.0271 5.64969 17.7064 5.64969 13.5841C5.64969 9.46183 8.97547 6.14112 13.104 6.14112C14.8816 6.14112 16.4871 6.77092 17.7486 7.80149L21.4184 4.13724C19.1821 2.19061 16.3151 0.988281 13.104 0.988281C6.10842 0.988281 0.489014 6.59915 0.489014 13.5841C0.489014 20.5691 6.10842 26.1799 13.104 26.1799C19.4115 26.1799 25.1456 21.5996 25.1456 13.5841C25.1456 12.8398 25.0309 12.0382 24.8589 11.294Z" fill="white"/>
</mask>
<g mask="url(#mask0_1942_11015)">
<path d="M-0.657959 21.0266V6.14062L9.09 13.5836L-0.657959 21.0266Z" fill="#FBBC05"/>
</g>
<mask id="mask1_1942_11015" style="mask-type:luminance" maskUnits="userSpaceOnUse" x="0" y="0" width="26" height="27">
<path d="M24.8589 11.294H13.104V16.1605H19.8702C19.2395 19.2522 16.6018 21.0271 13.104 21.0271C8.97547 21.0271 5.64969 17.7064 5.64969 13.5841C5.64969 9.46183 8.97547 6.14112 13.104 6.14112C14.8816 6.14112 16.4871 6.77092 17.7486 7.80149L21.4184 4.13724C19.1821 2.19061 16.3151 0.988281 13.104 0.988281C6.10842 0.988281 0.489014 6.59915 0.489014 13.5841C0.489014 20.5691 6.10842 26.1799 13.104 26.1799C19.4115 26.1799 25.1456 21.5996 25.1456 13.5841C25.1456 12.8398 25.0309 12.0382 24.8589 11.294Z" fill="white"/>
</mask>
<g mask="url(#mask1_1942_11015)">
<path d="M-0.658203 6.14947L9.08975 13.5925L13.1036 10.1L26.8654 7.86708V-0.148438H-0.658203V6.14947Z" fill="#EA4335"/>
</g>
<mask id="mask2_1942_11015" style="mask-type:luminance" maskUnits="userSpaceOnUse" x="0" y="0" width="26" height="27">
<path d="M24.8589 11.292H13.104V16.1586H19.8702C19.2395 19.2503 16.6018 21.0251 13.104 21.0251C8.97547 21.0251 5.64969 17.7044 5.64969 13.5821C5.64969 9.45988 8.97547 6.13916 13.104 6.13916C14.8816 6.13916 16.4871 6.76897 17.7486 7.79953L21.4184 4.13528C19.1821 2.18866 16.3151 0.986328 13.104 0.986328C6.10842 0.986328 0.489014 6.59719 0.489014 13.5821C0.489014 20.5671 6.10842 26.178 13.104 26.178C19.4115 26.178 25.1456 21.5977 25.1456 13.5821C25.1456 12.8378 25.0309 12.0363 24.8589 11.292Z" fill="white"/>
</mask>
<g mask="url(#mask2_1942_11015)">
<path d="M-0.658691 21.0335L16.5436 7.86513L21.0735 8.43767L26.8649 -0.150391V27.3314H-0.658691V21.0335Z" fill="#34A853"/>
</g>
<mask id="mask3_1942_11015" style="mask-type:luminance" maskUnits="userSpaceOnUse" x="0" y="0" width="26" height="27">
<path d="M24.8589 11.292H13.104V16.1586H19.8702C19.2395 19.2503 16.6018 21.0251 13.104 21.0251C8.97547 21.0251 5.64969 17.7044 5.64969 13.5821C5.64969 9.45988 8.97547 6.13916 13.104 6.13916C14.8816 6.13916 16.4871 6.76897 17.7486 7.79953L21.4184 4.13528C19.1821 2.18866 16.3151 0.986328 13.104 0.986328C6.10842 0.986328 0.489014 6.59719 0.489014 13.5821C0.489014 20.5671 6.10842 26.178 13.104 26.178C19.4115 26.178 25.1456 21.5977 25.1456 13.5821C25.1456 12.8378 25.0309 12.0363 24.8589 11.292Z" fill="white"/>
</mask>
<g mask="url(#mask3_1942_11015)">
<path d="M26.8657 27.3245L9.09002 13.5836L6.79639 11.866L26.8657 6.14062V27.3245Z" fill="#4285F4"/>
</g>
</svg>
