<svg width="20" height="24" viewBox="0 0 20 24" fill="none" xmlns="http://www.w3.org/2000/svg">
<path d="M14.0903 5.82692C14.0903 6.87503 13.6572 7.88022 12.8864 8.62135C12.1155 9.36248 11.0699 9.77884 9.97976 9.77884C8.88958 9.77884 7.84405 9.36248 7.07317 8.62135C6.30229 7.88022 5.86922 6.87503 5.86922 5.82692C5.86922 4.77881 6.30229 3.77362 7.07317 3.03249C7.84405 2.29136 8.88958 1.875 9.97976 1.875C11.0699 1.875 12.1155 2.29136 12.8864 3.03249C13.6572 3.77362 14.0903 4.77881 14.0903 5.82692ZM1.75977 20.7051C1.79499 18.6315 2.67651 16.6543 4.21423 15.1999C5.75195 13.7454 7.82265 12.9303 9.97976 12.9303C12.1369 12.9303 14.2076 13.7454 15.7453 15.1999C17.283 16.6543 18.1645 18.6315 18.1998 20.7051C15.621 21.842 12.8168 22.4287 9.97976 22.425C7.04648 22.425 4.26227 21.8095 1.75977 20.7051Z" stroke="url(#paint0_linear_1942_11146)" stroke-width="1.918" stroke-linecap="round" stroke-linejoin="round"/>
<defs>
<linearGradient id="paint0_linear_1942_11146" x1="1.75977" y1="1.875" x2="18.1998" y2="20.37" gradientUnits="userSpaceOnUse">
<stop stop-color="#2D36A6"/>
<stop offset="0.450853" stop-color="#06A8ED"/>
<stop offset="1" stop-color="#E552A7"/>
</linearGradient>
</defs>
</svg>
