<svg width="22" height="22" viewBox="0 0 22 22" fill="none" xmlns="http://www.w3.org/2000/svg">
<path d="M11 0.0390625C8.83236 0.0390625 6.71336 0.681855 4.91099 1.88616C3.10863 3.09046 1.70386 4.80217 0.874324 6.80485C0.0447878 8.80753 -0.172257 11.0112 0.250637 13.1373C0.673531 15.2633 1.71737 17.2162 3.25015 18.7489C4.78294 20.2817 6.73582 21.3256 8.86185 21.7485C10.9879 22.1714 13.1916 21.9543 15.1943 21.1248C17.1969 20.2952 18.9086 18.8905 20.1129 17.0881C21.3172 15.2857 21.96 13.1667 21.96 10.9991C21.9544 8.09402 20.7979 5.30958 18.7437 3.25541C16.6895 1.20123 13.9051 0.0447071 11 0.0390625ZM10.7887 5.09752C11.1241 5.09752 11.4458 5.23076 11.6829 5.46792C11.9201 5.70508 12.0533 6.02674 12.0533 6.36214C12.0533 6.69754 11.9201 7.01919 11.6829 7.25636C11.4458 7.49352 11.1241 7.62675 10.7887 7.62675C10.4533 7.62675 10.1317 7.49352 9.89449 7.25636C9.65733 7.01919 9.5241 6.69754 9.5241 6.36214C9.5241 6.02674 9.65733 5.70508 9.89449 5.46792C10.1317 5.23076 10.4533 5.09752 10.7887 5.09752ZM11.8431 16.9006H11C10.7764 16.9006 10.562 16.8118 10.4039 16.6537C10.2458 16.4956 10.157 16.2811 10.157 16.0575V10.9991C9.93337 10.9991 9.71893 10.9102 9.56082 10.7521C9.40271 10.594 9.31389 10.3796 9.31389 10.156C9.31389 9.93239 9.40271 9.71795 9.56082 9.55984C9.71893 9.40173 9.93337 9.31291 10.157 9.31291H11C11.2236 9.31291 11.4381 9.40173 11.5962 9.55984C11.7543 9.71795 11.8431 9.93239 11.8431 10.156V15.2144C12.0667 15.2144 12.2812 15.3033 12.4393 15.4614C12.5974 15.6195 12.6862 15.8339 12.6862 16.0575C12.6862 16.2811 12.5974 16.4956 12.4393 16.6537C12.2812 16.8118 12.0667 16.9006 11.8431 16.9006Z" fill="#BCBCBC"/>
</svg>
