<svg width="18" height="16" viewBox="0 0 18 16" fill="none" xmlns="http://www.w3.org/2000/svg">
<path d="M9.38517 14.5919L15.7537 8.22337C17.3178 6.65178 17.5459 4.08055 16.0682 2.43684C15.6974 2.02292 15.2461 1.68892 14.7419 1.45525C14.2377 1.22157 13.6912 1.09312 13.1357 1.07774C12.5801 1.06236 12.0273 1.16036 11.511 1.36578C10.9946 1.57119 10.5255 1.8797 10.1324 2.27246L8.93735 3.47422L7.90583 2.43684C6.33424 0.872794 3.76301 0.644687 2.1193 2.12235C1.70514 2.4931 1.37094 2.94441 1.13712 3.44869C0.903295 3.95298 0.774763 4.49965 0.759379 5.0553C0.743994 5.61094 0.84208 6.16389 1.04764 6.68034C1.2532 7.1968 1.56192 7.6659 1.95493 8.059L8.48784 14.5919C8.60717 14.71 8.76824 14.7762 8.93609 14.7762C9.10394 14.7762 9.26501 14.71 9.38434 14.5919H9.38517Z" stroke="#BCBCBC" stroke-width="1.37" stroke-linecap="round" stroke-linejoin="round"/>
</svg>
