<svg width="18" height="16" viewBox="0 0 18 16" fill="none" xmlns="http://www.w3.org/2000/svg">
<path d="M9.50431 14.5919L15.8729 8.22337C17.4369 6.65178 17.665 4.08055 16.1873 2.43684C15.8165 2.02292 15.3653 1.68892 14.8611 1.45525C14.3568 1.22157 13.8103 1.09312 13.2548 1.07774C12.6993 1.06236 12.1465 1.16036 11.6301 1.36578C11.1137 1.57119 10.6447 1.8797 10.2515 2.27246L9.05649 3.47422L8.02497 2.43684C6.45339 0.872794 3.88215 0.644687 2.23844 2.12235C1.82428 2.4931 1.49008 2.94441 1.25626 3.44869C1.02244 3.95298 0.893904 4.49965 0.878519 5.0553C0.863135 5.61094 0.961221 6.16389 1.16678 6.68034C1.37234 7.1968 1.68106 7.6659 2.07407 8.059L8.60698 14.5919C8.72631 14.71 8.88738 14.7762 9.05523 14.7762C9.22308 14.7762 9.38415 14.71 9.50348 14.5919H9.50431Z" stroke="#FFB543" stroke-width="1.37" stroke-linecap="round" stroke-linejoin="round"/>
</svg>
