<svg width="11" height="15" viewBox="0 0 11 15" fill="none" xmlns="http://www.w3.org/2000/svg">
<path fill-rule="evenodd" clip-rule="evenodd" d="M1.65717 5.60457H2.07065L2.07075 3.62357C2.07055 1.96158 3.45406 0.601562 5.14498 0.601562C6.83589 0.601562 8.21946 1.96158 8.21946 3.62357V5.60457H8.63294C9.48534 5.60457 10.183 6.29016 10.183 7.12839V12.5122C10.1828 13.3504 9.48534 14.036 8.63283 14.036H1.65722C0.804817 14.036 0.107178 13.3504 0.107178 12.5122V7.12839C0.107279 6.29016 0.804713 5.60457 1.65722 5.60457H1.65717ZM3.23369 5.60457H7.05642V3.62357C7.05621 2.59273 6.19407 1.74495 5.14493 1.74495C4.09609 1.74495 3.23364 2.59275 3.23364 3.62367L3.23369 5.60457ZM5.14498 7.9354C4.59296 7.9354 4.14552 8.37534 4.14552 8.91798C4.14552 9.28526 4.35048 9.60556 4.65423 9.77405V11.7049H5.63575L5.63585 9.77415C5.93938 9.60577 6.14477 9.28536 6.14477 8.91808C6.14467 8.37544 5.69702 7.9354 5.145 7.9354H5.14498Z" fill="#BCBCBC"/>
</svg>
