<svg width="141" height="15" viewBox="0 0 141 15" fill="none" xmlns="http://www.w3.org/2000/svg">
<path d="M0.2057 7.1995V1.37819L2.59182 0H7.79603L10.1821 1.37819V4.114H7.30235V2.4684H3.0855V5.90359H7.79603L10.1821 7.28178V13.2265L7.79603 14.6047H2.38612L0 13.2265V10.4907H2.8798V12.1363H7.30235V8.57768H2.59182L0.2057 7.1995Z" fill="#D9D9D9"/>
<path d="M0.2057 7.1995V1.37819L2.59182 0H7.79603L10.1821 1.37819V4.114H7.30235V2.4684H3.0855V5.90359H7.79603L10.1821 7.28178V13.2265L7.79603 14.6047H2.38612L0 13.2265V10.4907H2.8798V12.1363H7.30235V8.57768H2.59182L0.2057 7.1995Z" fill="url(#paint0_linear_1919_10097)"/>
<path d="M13.6847 14.5018V0.10285H21.275L23.6611 1.48104V7.89888L21.275 9.27706H16.5645V14.5018H13.6847ZM16.5645 2.57125V6.80867H20.7813V2.57125H16.5645Z" fill="#D9D9D9"/>
<path d="M13.6847 14.5018V0.10285H21.275L23.6611 1.48104V7.89888L21.275 9.27706H16.5645V14.5018H13.6847ZM16.5645 2.57125V6.80867H20.7813V2.57125H16.5645Z" fill="url(#paint1_linear_1919_10097)"/>
<path d="M29.4207 8.33084V14.5018H26.5409V0.10285H29.4207V5.86245H35.0775V0.10285H37.9573V14.5018H35.0775V8.33084H29.4207Z" fill="#D9D9D9"/>
<path d="M29.4207 8.33084V14.5018H26.5409V0.10285H29.4207V5.86245H35.0775V0.10285H37.9573V14.5018H35.0775V8.33084H29.4207Z" fill="url(#paint2_linear_1919_10097)"/>
<path d="M44.3259 8.33084V12.0334H50.0649V14.5018H41.4461V0.10285H50.0649V2.57125H44.3259V5.86245H48.8307V8.33084H44.3259Z" fill="#D9D9D9"/>
<path d="M44.3259 8.33084V12.0334H50.0649V14.5018H41.4461V0.10285H50.0649V2.57125H44.3259V5.86245H48.8307V8.33084H44.3259Z" fill="url(#paint3_linear_1919_10097)"/>
<path d="M63.6582 14.5018H60.4904L57.4049 9.07136H55.6153V14.5018H52.7355V0.10285H60.5315L62.9177 1.48104V7.69318L60.5315 9.07136L63.6582 14.5018ZM55.6153 2.57125V6.60297H60.0379V2.57125H55.6153Z" fill="#D9D9D9"/>
<path d="M63.6582 14.5018H60.4904L57.4049 9.07136H55.6153V14.5018H52.7355V0.10285H60.5315L62.9177 1.48104V7.69318L60.5315 9.07136L63.6582 14.5018ZM55.6153 2.57125V6.60297H60.0379V2.57125H55.6153Z" fill="url(#paint4_linear_1919_10097)"/>
<path d="M69.2952 8.33084V12.0334H75.0342V14.5018H66.4154V0.10285H75.0342V2.57125H69.2952V5.86245H73.8V8.33084H69.2952Z" fill="#D9D9D9"/>
<path d="M69.2952 8.33084V12.0334H75.0342V14.5018H66.4154V0.10285H75.0342V2.57125H69.2952V5.86245H73.8V8.33084H69.2952Z" fill="url(#paint5_linear_1919_10097)"/>
<path d="M99.2236 0.249248L95.6653 14.3626H92.6667L90.1479 4.82602H90.1079L87.5891 14.3626H84.5905L81.0322 0.249248H83.7509L86.1098 9.927H86.1498L88.7086 0.249248H91.5472L94.106 9.88668H94.146L96.5049 0.249248H99.2236Z" fill="white"/>
<path d="M112.317 13.1126L109.998 14.4635H103.741L101.422 13.1126V1.49929L103.741 0.148438H109.998L112.317 1.49929V13.1126ZM104.22 2.56788V12.044H109.518V2.56788H104.22Z" fill="white"/>
<path d="M126.327 14.3626H123.248L120.25 9.03988H118.51V14.3626H115.712V0.249248H123.288L125.607 1.6001V7.68902L123.288 9.03988L126.327 14.3626ZM118.51 2.66869V6.62044H122.808V2.66869H118.51Z" fill="white"/>
<path d="M129.006 14.3626V0.249248H131.805V6.60028H131.845L137.062 0.249248H140.381L134.863 6.86238L141.001 14.3626H137.642L133.184 8.87858L131.805 10.5117V14.3626H129.006Z" fill="white"/>
<defs>
<linearGradient id="paint0_linear_1919_10097" x1="-12.7907" y1="12.6059" x2="149.424" y2="11.7679" gradientUnits="userSpaceOnUse">
<stop stop-color="#D671C2"/>
<stop offset="0.255208" stop-color="#473CEB"/>
<stop offset="0.46875" stop-color="#3561EA"/>
<stop offset="0.65625" stop-color="#2582E9"/>
<stop offset="1" stop-color="#24CEE2"/>
</linearGradient>
<linearGradient id="paint1_linear_1919_10097" x1="-12.7907" y1="12.6059" x2="149.424" y2="11.7679" gradientUnits="userSpaceOnUse">
<stop stop-color="#D671C2"/>
<stop offset="0.255208" stop-color="#473CEB"/>
<stop offset="0.46875" stop-color="#3561EA"/>
<stop offset="0.65625" stop-color="#2582E9"/>
<stop offset="1" stop-color="#24CEE2"/>
</linearGradient>
<linearGradient id="paint2_linear_1919_10097" x1="-12.7907" y1="12.6059" x2="149.424" y2="11.7679" gradientUnits="userSpaceOnUse">
<stop stop-color="#D671C2"/>
<stop offset="0.255208" stop-color="#473CEB"/>
<stop offset="0.46875" stop-color="#3561EA"/>
<stop offset="0.65625" stop-color="#2582E9"/>
<stop offset="1" stop-color="#24CEE2"/>
</linearGradient>
<linearGradient id="paint3_linear_1919_10097" x1="-12.7907" y1="12.6059" x2="149.424" y2="11.7679" gradientUnits="userSpaceOnUse">
<stop stop-color="#D671C2"/>
<stop offset="0.255208" stop-color="#473CEB"/>
<stop offset="0.46875" stop-color="#3561EA"/>
<stop offset="0.65625" stop-color="#2582E9"/>
<stop offset="1" stop-color="#24CEE2"/>
</linearGradient>
<linearGradient id="paint4_linear_1919_10097" x1="-12.7907" y1="12.6059" x2="149.424" y2="11.7679" gradientUnits="userSpaceOnUse">
<stop stop-color="#D671C2"/>
<stop offset="0.255208" stop-color="#473CEB"/>
<stop offset="0.46875" stop-color="#3561EA"/>
<stop offset="0.65625" stop-color="#2582E9"/>
<stop offset="1" stop-color="#24CEE2"/>
</linearGradient>
<linearGradient id="paint5_linear_1919_10097" x1="-12.7907" y1="12.6059" x2="149.424" y2="11.7679" gradientUnits="userSpaceOnUse">
<stop stop-color="#D671C2"/>
<stop offset="0.255208" stop-color="#473CEB"/>
<stop offset="0.46875" stop-color="#3561EA"/>
<stop offset="0.65625" stop-color="#2582E9"/>
<stop offset="1" stop-color="#24CEE2"/>
</linearGradient>
</defs>
</svg>
