<svg width="18" height="19" viewBox="0 0 18 19" fill="none" xmlns="http://www.w3.org/2000/svg">
<path fill-rule="evenodd" clip-rule="evenodd" d="M7.22348 2.14406C6.89366 2.14406 6.57735 2.27508 6.34413 2.5083C6.11091 2.74152 5.97989 3.05783 5.97989 3.38765V4.63086H12.0202V3.38765C12.0202 3.05783 11.8892 2.74152 11.6559 2.5083C11.4227 2.27508 11.1064 2.14406 10.7766 2.14406H7.22348ZM13.0861 4.63086V3.38765C13.0861 2.77512 12.8428 2.18769 12.4097 1.75457C11.9766 1.32145 11.3891 1.07812 10.7766 1.07812H7.22348C6.61096 1.07812 6.02352 1.32145 5.5904 1.75457C5.15728 2.18769 4.91396 2.77512 4.91396 3.38765V4.63086H2.78208C2.16955 4.63086 1.58212 4.87418 1.149 5.3073C0.715877 5.74042 0.472553 6.32786 0.472553 6.94038V11.5958C0.472365 11.6039 0.472366 11.6121 0.472553 11.6202V15.8232C0.472553 16.4357 0.715877 17.0231 1.149 17.4562C1.58212 17.8894 2.16955 18.1327 2.78208 18.1327H9.00003C9.29438 18.1327 9.53299 17.8941 9.53299 17.5997C9.53299 17.3054 9.29438 17.0668 9.00003 17.0668H2.78208C2.45226 17.0668 2.13594 16.9357 1.90273 16.7025C1.66951 16.4693 1.53849 16.153 1.53849 15.8232V12.3835C3.86746 13.2295 6.37958 13.6911 8.99937 13.6912L9.00003 13.1582V13.6912H8.9997C11.5463 13.6943 14.0716 13.2509 16.4616 12.3833V15.8232C16.4616 16.153 16.3305 16.4693 16.0973 16.7025C15.8641 16.9357 15.5478 17.0668 15.218 17.0668H13.6635C13.3691 17.0668 13.1305 17.3054 13.1305 17.5997C13.1305 17.8941 13.3691 18.1327 13.6635 18.1327H15.218C15.8305 18.1327 16.4179 17.8894 16.8511 17.4562C17.2842 17.0231 17.5275 16.4357 17.5275 15.8232V11.6202C17.5277 11.6121 17.5277 11.6039 17.5275 11.5958V6.94038C17.5275 6.32786 17.2842 5.74042 16.8511 5.3073C16.4179 4.87418 15.8305 4.63086 15.218 4.63086H13.0861ZM5.42664 5.69679C5.43337 5.69705 5.44013 5.69717 5.44693 5.69717H12.5532C12.5599 5.69717 12.5667 5.69705 12.5734 5.69679H15.218C15.5478 5.69679 15.8641 5.82781 16.0973 6.06103C16.3305 6.29425 16.4616 6.61056 16.4616 6.94038V11.2454C14.0817 12.1602 11.5524 12.6284 9.00068 12.6252L9.00003 12.6252C6.36906 12.6252 3.85434 12.1364 1.53849 11.2455V6.94038C1.53849 6.61056 1.66951 6.29425 1.90273 6.06103C2.13594 5.82781 2.45226 5.69679 2.78208 5.69679H5.42664Z" fill="#BCBCBC"/>
</svg>
