<svg width="18" height="19" viewBox="0 0 18 19" fill="none" xmlns="http://www.w3.org/2000/svg">
<g clip-path="url(#clip0_1919_10150)">
<path fill-rule="evenodd" clip-rule="evenodd" d="M1.04883 1.57812C0.772686 1.57812 0.548828 1.80198 0.548828 2.07812C0.548828 2.35427 0.772686 2.57812 1.04883 2.57812H1.8048C2.0256 2.57812 2.22026 2.72296 2.28371 2.93445L4.85612 11.5091C5.04646 12.1436 5.63045 12.5781 6.29286 12.5781H14.2945C14.9642 12.5781 15.5528 12.1342 15.7368 11.4902L17.4203 5.5979C17.5663 5.08685 17.1826 4.57812 16.6511 4.57812H3.82084L3.24154 2.6471C3.05119 2.01263 2.46721 1.57812 1.8048 1.57812H1.04883ZM5.81395 11.2218L4.12084 5.57812H16.386L14.7753 11.2155C14.714 11.4301 14.5178 11.5781 14.2945 11.5781H6.29286C6.07205 11.5781 5.87739 11.4333 5.81395 11.2218ZM6.23395 17.6329C6.6384 17.6329 7.02628 17.4723 7.31227 17.1863C7.59826 16.9003 7.75893 16.5124 7.75893 16.108C7.75893 15.7035 7.59826 15.3156 7.31227 15.0297C7.02628 14.7437 6.6384 14.583 6.23395 14.583C5.82951 14.583 5.44163 14.7437 5.15564 15.0297C4.86965 15.3156 4.70898 15.7035 4.70898 16.108C4.70898 16.5124 4.86965 16.9003 5.15564 17.1863C5.44163 17.4723 5.82951 17.6329 6.23395 17.6329ZM14.1627 17.6329C14.5671 17.6329 14.955 17.4723 15.241 17.1863C15.527 16.9003 15.6876 16.5124 15.6876 16.108C15.6876 15.7035 15.527 15.3156 15.241 15.0297C14.955 14.7437 14.5671 14.583 14.1627 14.583C13.7582 14.583 13.3703 14.7437 13.0843 15.0297C12.7984 15.3156 12.6377 15.7035 12.6377 16.108C12.6377 16.5124 12.7984 16.9003 13.0843 17.1863C13.3703 17.4723 13.7582 17.6329 14.1627 17.6329Z" fill="#BCBCBC"/>
</g>
<defs>
<clipPath id="clip0_1919_10150">
<rect width="18" height="18" fill="white" transform="translate(0 0.605469)"/>
</clipPath>
</defs>
</svg>
