<svg width="25" height="26" viewBox="0 0 25 26" fill="none" xmlns="http://www.w3.org/2000/svg">
<path d="M3.0578 9.10842V8.94542V8.94524V8.71349L3.19839 8.52926C3.36582 8.30984 3.42218 8.02966 3.35444 7.76648C3.28633 7.50258 3.09948 7.27914 2.84103 7.16273L2.84081 7.16264C2.58156 7.04577 2.28178 7.05087 2.02682 7.17637C1.77268 7.30148 1.59401 7.53076 1.53518 7.79628L3.0578 9.10842ZM3.0578 9.10842L3.01743 8.89571L2.44897 8.89635C2.16239 8.89667 1.89418 8.76894 1.71814 8.55415C1.54265 8.33982 1.4767 8.06149 1.53513 7.79654L3.0578 9.10842ZM20.9033 7.96702C20.9019 7.54393 21.0715 7.13738 21.3748 6.83744C21.6778 6.53732 22.0897 6.36815 22.5196 6.36727C22.9495 6.36636 23.3621 6.53374 23.6666 6.83262C23.9711 7.1313 24.1424 7.53698 24.1429 7.96024L20.9033 7.96702ZM20.9033 7.96702C20.9017 8.31139 21.0165 8.64654 21.2293 8.91979L20.9033 7.96702ZM12.9867 6.1839L12.4942 6.48334L12.0019 6.18393C11.7705 6.04321 11.6169 5.81247 11.5762 5.55531C11.5356 5.29801 11.6106 5.03457 11.7852 4.83382L11.7854 4.83368C11.9603 4.63243 12.2189 4.51384 12.4943 4.51384C12.7697 4.51384 13.0283 4.63244 13.2032 4.83367L13.2033 4.83382C13.378 5.03457 13.453 5.29802 13.4123 5.55531L13.4123 5.55533C13.3717 5.81249 13.218 6.04323 12.9867 6.1839ZM12.2576 7.07921L12.4944 6.61073L12.7309 7.0789L15.0326 11.6371C15.0328 11.6374 15.033 11.6377 15.0331 11.6381C15.3003 12.1701 15.7956 12.5497 16.3759 12.6763L16.3759 12.6763C16.9557 12.8027 17.5638 12.6647 18.0305 12.2967C18.031 12.2964 18.0314 12.296 18.0319 12.2957L21.6522 9.45959L21.8397 9.31269L21.8176 9.43209L19.9702 19.4383L19.9701 19.4389C19.8917 19.8656 19.6632 20.2537 19.3216 20.5347C18.9799 20.8158 18.547 20.971 18.0986 20.971H6.8897C6.44122 20.971 6.00834 20.8158 5.66666 20.5347L5.25973 21.0294L5.66665 20.5347C5.32507 20.2537 5.09658 19.8656 5.01819 19.4389L5.0182 19.4389L5.01745 19.4349L3.12342 9.45422L3.09589 9.30915L3.32064 9.48521L6.94107 12.3214C6.94142 12.3217 6.94177 12.322 6.94212 12.3223C7.40866 12.6899 8.01678 12.8284 8.59687 12.7019L8.59723 12.7018C9.17725 12.575 9.67245 12.1955 9.93968 11.6635C9.93984 11.6632 9.94001 11.6629 9.94017 11.6625L12.2576 7.07921ZM22.492 8.87087H22.0603L21.7703 8.49847C21.6512 8.34555 21.5881 8.15967 21.589 7.97026H21.5891L21.589 7.9647C21.5882 7.72718 21.6834 7.49666 21.857 7.32494L21.8573 7.32463C22.0311 7.15248 22.2697 7.0535 22.521 7.05298H22.521C22.7723 7.05245 23.0114 7.1504 23.1862 7.32197L23.1864 7.32215C23.3607 7.49311 23.4569 7.72317 23.4572 7.96112C23.4573 8.19894 23.3616 8.42916 23.1878 8.60056C23.0132 8.77247 22.7742 8.87087 22.523 8.87087H22.492ZM13.343 6.76981C13.7442 6.52583 14.0171 6.12122 14.0896 5.66242C14.1622 5.20362 14.0275 4.73649 13.7207 4.38377C13.4141 4.03106 12.9659 3.82812 12.4943 3.82812L13.343 6.76981Z" stroke="#BCBCBC" stroke-width="1.37143"/>
</svg>
