<svg width="25" height="25" viewBox="0 0 25 25" fill="none" xmlns="http://www.w3.org/2000/svg">
<path d="M12.019 4.72951L12.4139 4.48941C12.6964 4.31766 12.8858 4.03467 12.936 3.71706L12.936 3.71705C12.9862 3.39934 12.8933 3.07478 12.679 2.82838L12.6789 2.82827C12.4644 2.58153 12.1487 2.4375 11.8142 2.4375C11.4797 2.4375 11.164 2.58152 10.9495 2.82828L10.9494 2.82838C10.7351 3.07478 10.6422 3.39934 10.6924 3.71705C10.7426 4.03466 10.932 4.31763 11.2145 4.48943L11.6095 4.72966L11.4009 5.14224L9.05376 9.78447C9.05364 9.7847 9.05353 9.78493 9.05342 9.78515C8.80954 10.2708 8.35703 10.6181 7.826 10.7342L7.82573 10.7343C7.29465 10.8501 6.73816 10.7232 6.31161 10.387C6.31132 10.3868 6.31103 10.3865 6.31074 10.3863L2.64367 7.51354L2.45201 7.3634V7.11994V7.11976V6.95078L2.55452 6.81644C2.76012 6.54701 2.82987 6.20185 2.74621 5.87723C2.66227 5.55221 2.4327 5.27906 2.11789 5.13727L2.11773 5.1372C1.80228 4.995 1.43789 5.00118 1.1276 5.1539L12.019 4.72951ZM12.019 4.72951L12.2273 5.14201M12.019 4.72951L12.2273 5.14201M12.2273 5.14201L14.5587 9.75869C14.5588 9.7589 14.5589 9.75911 14.559 9.75933C14.8028 10.245 15.2554 10.5924 15.7866 10.7083L15.7867 10.7083C16.3175 10.8241 16.8741 10.6975 17.3008 10.361C17.3011 10.3608 17.3015 10.3605 17.3018 10.3603L20.9688 7.48759L21.3612 7.18013L21.0549 6.78678C20.9077 6.59779 20.8292 6.36721 20.8303 6.13145L20.8303 6.1274C20.8293 5.83423 20.9468 5.55086 21.1594 5.3406L21.1596 5.34037C21.3722 5.12974 21.663 5.0096 21.9682 5.00897L21.9682 5.00897C22.2733 5.00832 22.5647 5.12721 22.7785 5.33707L22.7786 5.33719M12.2273 5.14201L22.7786 5.33719M2.05571 7.26423L2.13299 7.67147L4.05113 17.7793L4.05168 17.7821L4.05167 17.7821C4.13944 18.2598 4.39509 18.6936 4.77611 19.007L4.45847 19.3931L4.77611 19.007C5.15719 19.3205 5.63933 19.4931 6.13825 19.4931H17.4898C17.9887 19.4931 18.4709 19.3204 18.852 19.007L2.05571 7.26423ZM2.05571 7.26423L1.6412 7.26469M2.05571 7.26423L1.6412 7.26469M1.6412 7.26469C1.29318 7.26508 0.96603 7.11002 0.75041 6.84688C0.53518 6.58402 0.453519 6.24136 0.525654 5.91444L1.6412 7.26469ZM19.5764 17.7821L19.5765 17.7817L21.4475 7.64811L21.523 7.23889H21.9391H21.9706C22.2757 7.23889 22.5668 7.11942 22.7803 6.90917L19.5764 17.7821ZM19.5764 17.7821C19.4886 18.2598 19.233 18.6935 18.852 19.007L19.5764 17.7821ZM22.7786 5.33719C22.992 5.54655 23.1107 5.82934 23.1111 6.12287M22.7786 5.33719L23.1111 6.12287M23.1111 6.12287C23.1113 6.41624 22.9933 6.6992 22.7804 6.90907L23.1111 6.12287ZM0.525695 5.91425C0.598173 5.58692 0.817909 5.30636 1.12759 5.15391L0.525695 5.91425Z" stroke="#FFB543"/>
</svg>
