<svg width="18" height="19" viewBox="0 0 18 19" fill="none" xmlns="http://www.w3.org/2000/svg">
<path fill-rule="evenodd" clip-rule="evenodd" d="M2.27299 3.28257C2.42196 3.21942 2.58212 3.18693 2.74393 3.18703L2.74425 3.18703H14.2139C14.5082 3.18703 14.7468 2.94841 14.7468 2.65406C14.7468 2.35971 14.5082 2.12109 14.2139 2.12109H2.74435H2.74425C2.43941 2.12095 2.13766 2.18219 1.857 2.30116C1.57623 2.42017 1.32231 2.59451 1.11039 2.81378C0.898465 3.03305 0.732877 3.29276 0.623502 3.57742C0.515305 3.85901 0.46431 4.1593 0.473457 4.46075V15.1664C0.473457 15.6765 0.676082 16.1656 1.03676 16.5263C1.39743 16.887 1.88661 17.0896 2.39668 17.0896H4.1345C4.42885 17.0896 4.66747 16.851 4.66747 16.5566C4.66747 16.2623 4.42885 16.0237 4.1345 16.0237H2.39668C2.16931 16.0237 1.95126 15.9334 1.79049 15.7726C1.62971 15.6118 1.53939 15.3937 1.53939 15.1664V6.30649C1.91084 6.54169 2.34487 6.66704 2.79058 6.66267H16.2993C16.3423 6.66267 16.3835 6.67976 16.4139 6.71017C16.4443 6.74058 16.4614 6.78183 16.4614 6.82484V15.8615C16.4614 15.9045 16.4443 15.9458 16.4139 15.9762C16.3835 16.0066 16.3423 16.0237 16.2993 16.0237H9.34797H8.47906C8.18471 16.0237 7.94609 16.2623 7.94609 16.5566C7.94609 16.851 8.18471 17.0896 8.47906 17.0896H9.34797H16.2993C16.625 17.0896 16.9373 16.9602 17.1677 16.7299C17.398 16.4996 17.5274 16.1872 17.5274 15.8615V6.82484C17.5274 6.49912 17.398 6.18675 17.1677 5.95644C16.9373 5.72613 16.625 5.59674 16.2993 5.59674H2.78781V5.59671L2.78185 5.59677C2.46346 5.60033 2.15608 5.48036 1.92428 5.26207C1.69536 5.04648 1.55774 4.75157 1.53939 4.43795V4.39188C1.53939 4.38251 1.53915 4.37319 1.53867 4.36393C1.54188 4.22579 1.56883 4.08905 1.61851 3.95974C1.67655 3.8087 1.76441 3.6709 1.87685 3.55456C1.98929 3.43822 2.12402 3.34571 2.27299 3.28257ZM14.1541 11.9788C13.8934 12.2395 13.5397 12.386 13.171 12.386C12.8023 12.386 12.4487 12.2395 12.188 11.9788C11.9272 11.7181 11.7808 11.3645 11.7808 10.9957C11.7808 10.627 11.9272 10.2734 12.188 10.0127C12.4487 9.75195 12.8023 9.60548 13.171 9.60548C13.5397 9.60548 13.8934 9.75195 14.1541 10.0127C14.4148 10.2734 14.5613 10.627 14.5613 10.9957C14.5613 11.3645 14.4148 11.7181 14.1541 11.9788Z" fill="#BCBCBC"/>
</svg>
