<svg width="18" height="19" viewBox="0 0 18 19" fill="none" xmlns="http://www.w3.org/2000/svg">
<path fill-rule="evenodd" clip-rule="evenodd" d="M6.81784 3.22266C6.18589 3.22266 5.57982 3.4737 5.13296 3.92056C4.82188 4.23164 4.6057 4.61987 4.50304 5.04028H0.99974C0.687875 5.04028 0.435059 5.2931 0.435059 5.60496C0.435059 5.91683 0.687875 6.16965 0.99974 6.16965H4.50281C4.60537 6.59042 4.82165 6.97901 5.13296 7.29032C5.57982 7.73718 6.18589 7.98822 6.81784 7.98822C7.4498 7.98822 8.05587 7.73718 8.50273 7.29032C8.81404 6.97901 9.03031 6.59042 9.13287 6.16965H16.9988C17.3106 6.16965 17.5634 5.91683 17.5634 5.60496C17.5634 5.2931 17.3106 5.04028 16.9988 5.04028H9.13264C9.02999 4.61987 8.8138 4.23164 8.50273 3.92056C8.05587 3.4737 7.4498 3.22266 6.81784 3.22266ZM12.6362 11.2224C12.0042 11.2224 11.3982 11.4735 10.9513 11.9203C10.6402 12.2315 10.424 12.6198 10.3213 13.0403H0.99974C0.687875 13.0403 0.435059 13.2931 0.435059 13.605C0.435059 13.9168 0.687875 14.1696 0.99974 14.1696H10.3212C10.4238 14.5903 10.6401 14.9788 10.9513 15.2901C11.3982 15.7369 12.0042 15.988 12.6362 15.988C13.2682 15.988 13.8742 15.7369 14.3211 15.2901C14.6323 14.9789 14.8485 14.5905 14.9511 14.1699H17.0002C17.312 14.1699 17.5648 13.9171 17.5648 13.6052C17.5648 13.2933 17.312 13.0405 17.0002 13.0405H14.9511C14.8485 12.6199 14.6323 12.2315 14.3211 11.9203C13.8742 11.4735 13.2682 11.2224 12.6362 11.2224Z" fill="#BCBCBC"/>
</svg>
