<svg width="18" height="19" viewBox="0 0 18 19" fill="none" xmlns="http://www.w3.org/2000/svg">
<path d="M9.33804 14.941L13.2148 17.4997C13.7153 17.8281 14.3307 17.3403 14.1838 16.7406L13.0614 12.1502C13.031 12.023 13.0358 11.8894 13.0753 11.7649C13.1148 11.6404 13.1873 11.53 13.2846 11.4466L16.761 8.43232C17.2147 8.03997 16.9841 7.24846 16.3918 7.20923L11.8536 6.90473C11.7299 6.89711 11.611 6.85225 11.5114 6.77563C11.4117 6.699 11.3357 6.59391 11.2924 6.47316L9.59895 2.04307C9.55429 1.91486 9.47271 1.80407 9.36532 1.72578C9.25793 1.64748 9.12994 1.60547 8.99877 1.60547C8.8676 1.60547 8.73961 1.64748 8.63222 1.72578C8.52483 1.80407 8.44325 1.91486 8.39858 2.04307L6.70838 6.47316C6.66526 6.59397 6.58922 6.69912 6.48956 6.77576C6.3899 6.8524 6.27093 6.89722 6.14717 6.90473L1.60825 7.20923C1.01586 7.24846 0.785303 8.04083 1.23903 8.43232L4.71625 11.4466C4.81341 11.5301 4.88591 11.6405 4.92539 11.7649C4.96488 11.8894 4.96974 12.023 4.93942 12.1502L3.90068 16.4046C3.72428 17.1245 4.4619 17.7079 5.05429 17.3164L8.66196 14.941C8.7631 14.874 8.88051 14.8385 9.00041 14.8385C9.12031 14.8385 9.23772 14.874 9.33886 14.941H9.33804Z" stroke="#BCBCBC" stroke-width="1.06593" stroke-linecap="round" stroke-linejoin="round"/>
</svg>
