<svg width="18" height="19" viewBox="0 0 18 19" fill="none" xmlns="http://www.w3.org/2000/svg">
<path fill-rule="evenodd" clip-rule="evenodd" d="M14.6485 13.9261C15.5659 12.7285 16.1111 11.2307 16.1111 9.60547C16.1111 5.67811 12.9274 2.49436 9 2.49436C5.07264 2.49436 1.88889 5.67811 1.88889 9.60547C1.88889 11.1899 2.40706 12.6533 3.28317 13.8354C3.59217 12.1866 5.03926 10.9388 6.77778 10.9388H10.7778C12.637 10.9388 14.2 12.2073 14.6485 13.9261ZM13.8846 14.7736C13.7987 13.1322 12.4406 11.8277 10.7778 11.8277H6.77778C5.30502 11.8277 4.11111 13.0216 4.11111 14.4944C4.11111 14.5742 4.09004 14.6492 4.05315 14.714C5.33307 15.9536 7.07743 16.7166 9 16.7166C10.8916 16.7166 12.6106 15.978 13.8846 14.7736ZM9 17.6055C13.4183 17.6055 17 14.0237 17 9.60547C17 5.18719 13.4183 1.60547 9 1.60547C4.58172 1.60547 1 5.18719 1 9.60547C1 14.0237 4.58172 17.6055 9 17.6055ZM9 9.36523C9.5599 9.36523 10.0969 9.14281 10.4928 8.7469C10.8887 8.35099 11.1111 7.81402 11.1111 7.25412C11.1111 6.69422 10.8887 6.15725 10.4928 5.76134C10.0969 5.36543 9.5599 5.14301 9 5.14301C8.4401 5.14301 7.90313 5.36543 7.50722 5.76134C7.11131 6.15725 6.88889 6.69422 6.88889 7.25412C6.88889 7.81402 7.11131 8.35099 7.50722 8.7469C7.90313 9.14281 8.4401 9.36523 9 9.36523ZM9 10.2541C9.79565 10.2541 10.5587 9.93805 11.1213 9.37544C11.6839 8.81283 12 8.04977 12 7.25412C12 6.45847 11.6839 5.69541 11.1213 5.1328C10.5587 4.57019 9.79565 4.25412 9 4.25412C8.20435 4.25412 7.44129 4.57019 6.87868 5.1328C6.31607 5.69541 6 6.45847 6 7.25412C6 8.04977 6.31607 8.81283 6.87868 9.37544C7.44129 9.93805 8.20435 10.2541 9 10.2541Z" fill="#BCBCBC"/>
</svg>
