<svg width="25" height="26" viewBox="0 0 25 26" fill="none" xmlns="http://www.w3.org/2000/svg">
<path fill-rule="evenodd" clip-rule="evenodd" d="M5.45599 2.82345C4.65419 2.82345 3.87577 3.15898 3.29472 3.7718C2.71226 4.38611 2.37789 5.22822 2.37789 6.11488V19.8292C2.37789 20.7158 2.71226 21.5579 3.29472 22.1722C3.87577 22.7851 4.65419 23.1206 5.45599 23.1206H10.6573C11.4591 23.1206 12.2375 22.7851 12.8185 22.1722C13.401 21.5579 13.7354 20.7158 13.7354 19.8292V18.4577C13.7354 18.0033 14.1038 17.6349 14.5582 17.6349C15.0127 17.6349 15.3811 18.0033 15.3811 18.4577V19.8292C15.3811 21.1249 14.8935 22.3757 14.0128 23.3046C13.1307 24.2349 11.9247 24.7663 10.6573 24.7663H5.45599C4.18859 24.7663 2.98257 24.2349 2.10047 23.3046C1.21979 22.3757 0.732178 21.1249 0.732178 19.8292V6.11488C0.732178 4.81918 1.21979 3.56832 2.10047 2.63948C2.98257 1.70914 4.18859 1.17773 5.45599 1.17773H10.6573C11.9247 1.17773 13.1307 1.70914 14.0128 2.63948C14.8935 3.56832 15.3811 4.81918 15.3811 6.11488V7.48631C15.3811 7.94076 15.0127 8.30916 14.5582 8.30916C14.1038 8.30916 13.7354 7.94076 13.7354 7.48631V6.11488C13.7354 5.22822 13.401 4.38611 12.8185 3.7718C12.2375 3.15898 11.4591 2.82345 10.6573 2.82345H5.45599ZM17.6492 6.88918C17.979 6.5765 18.4998 6.59036 18.8125 6.92015L24.0137 12.4059C24.3147 12.7233 24.3147 13.2207 24.0137 13.5382L18.8125 19.0239C18.4998 19.3537 17.979 19.3675 17.6492 19.0549C17.3194 18.7422 17.3055 18.2214 17.6182 17.8916L21.5025 13.7949H5.21218C4.75773 13.7949 4.38932 13.4265 4.38932 12.972C4.38932 12.5176 4.75773 12.1492 5.21218 12.1492H21.5025L17.6182 8.05247C17.3055 7.72269 17.3194 7.20187 17.6492 6.88918Z" fill="#BCBCBC"/>
</svg>
