<svg width="18" height="19" viewBox="0 0 18 19" fill="none" xmlns="http://www.w3.org/2000/svg">
<path d="M15.2661 12.3461C14.952 12.3458 14.6402 12.4029 14.3447 12.5148L10.8447 6.12957C11.3959 5.6089 11.7232 4.87527 11.7517 4.09602C11.7801 3.31681 11.5073 2.55861 10.9956 1.99512C10.484 1.43147 9.77725 1.11052 9.03689 1.10552C8.29668 1.10068 7.58605 1.41225 7.06761 1.96892C6.54931 2.52574 6.26746 3.28015 6.28656 4.05967C6.30565 4.83919 6.62418 5.57724 7.16905 6.105L3.6557 12.5146V12.5148C2.94941 12.2483 2.17024 12.2994 1.50075 12.6557C0.83126 13.0121 0.330072 13.6427 0.114893 14.3997C-0.100274 15.1566 -0.0107289 15.9735 0.362544 16.6589C0.735942 17.3443 1.36032 17.838 2.08934 18.0243C2.81833 18.2106 3.58801 18.0731 4.21813 17.6442C4.8481 17.2151 5.28302 16.5323 5.42115 15.7557H12.5793C12.7075 16.476 13.0916 17.1179 13.6534 17.5503C14.2152 17.9828 14.9125 18.1733 15.6029 18.0831C16.2936 17.9928 16.9254 17.6286 17.3698 17.0645C17.8143 16.5005 18.0378 15.7793 17.9948 15.0478C17.9518 14.3162 17.6457 13.6295 17.1386 13.1275C16.6316 12.6255 15.9618 12.346 15.266 12.3461L15.2661 12.3461ZM9.0197 2.16776C9.47792 2.16776 9.91743 2.35957 10.2414 2.70082C10.5655 3.04207 10.7475 3.50503 10.7475 3.98767C10.7475 4.47031 10.5655 4.93327 10.2414 5.27468C9.91745 5.61592 9.47792 5.80759 9.0197 5.80759C8.56149 5.80759 8.12197 5.61592 7.79799 5.27468C7.47388 4.93328 7.29191 4.47031 7.29191 3.98767C7.29234 3.50519 7.47459 3.04266 7.79858 2.7014C8.12241 2.36016 8.56164 2.16834 9.01974 2.16772L9.0197 2.16776ZM2.73435 17.0458C2.27613 17.0458 1.83662 16.854 1.51263 16.5128C1.18852 16.1715 1.00655 15.7086 1.00655 15.2259C1.00655 14.7433 1.18852 14.2803 1.51263 13.9389C1.8366 13.5977 2.27613 13.406 2.73435 13.406C3.19256 13.406 3.63207 13.5977 3.95606 13.9389C4.28003 14.2803 4.46214 14.7433 4.46214 15.2259C4.46156 15.7084 4.27946 16.1709 3.95547 16.5122C3.63164 16.8534 3.19241 17.0452 2.73431 17.0459L2.73435 17.0458ZM12.5793 14.696H5.42113C5.30686 14.0567 4.99052 13.477 4.52351 13.0513L8.02222 6.66796V6.66781C8.65234 6.92896 9.35219 6.93366 9.98532 6.68098L13.4769 13.0511C13.0099 13.4766 12.6935 14.0565 12.5792 14.6959L12.5793 14.696ZM15.2661 17.0458C14.8078 17.0458 14.3683 16.854 14.0443 16.5128C13.7204 16.1715 13.5383 15.7086 13.5383 15.2259C13.5383 14.7433 13.7204 14.2803 14.0443 13.9389C14.3683 13.5977 14.8078 13.406 15.2661 13.406C15.7243 13.406 16.1638 13.5977 16.4878 13.9389C16.8119 14.2803 16.9939 14.7433 16.9939 15.2259C16.9934 15.7084 16.8112 16.1709 16.4872 16.5122C16.1634 16.8534 15.7241 17.0452 15.266 17.0459L15.2661 17.0458Z" fill="#BCBCBC"/>
</svg>
