<svg width="18" height="19" viewBox="0 0 18 19" fill="none" xmlns="http://www.w3.org/2000/svg">
<path fill-rule="evenodd" clip-rule="evenodd" d="M3.79263 13.5358L3.70406 13.0118L3.23301 12.7657C2.85088 12.5661 2.50676 12.3046 2.21534 11.9932C1.52869 11.2018 1.07 9.55923 1.07 7.69517C1.07 5.82271 1.53282 4.17397 2.22453 3.38693C2.6225 2.93412 3.32453 2.49783 4.34433 2.17625C5.35169 1.8586 6.59996 1.67547 8.00109 1.67547C9.40201 1.67547 10.6498 1.8586 11.6567 2.17623C12.676 2.49777 13.3776 2.934 13.7753 3.38677L13.7754 3.3869C14.4672 4.17398 14.93 5.82277 14.93 7.69518C14.93 9.56759 14.4672 11.2164 13.7755 12.0034L13.7751 12.0038C13.3869 12.4459 12.6992 12.8758 11.6968 13.1961C10.7084 13.5119 9.48324 13.6984 8.10715 13.7076C7.74554 13.7064 7.39114 13.8086 7.08617 14.0015L7.07872 14.0062L7.07135 14.0111L4.88484 15.4454L4.88396 15.4459C4.73231 15.5456 4.53637 15.5639 4.36627 15.4916C4.19722 15.4195 4.08626 15.2729 4.05884 15.1106L4.05882 15.1105L3.79263 13.5358ZM1.42083 2.68055C-0.473609 4.83609 -0.473609 10.5542 1.42083 12.7101C1.79799 13.1164 2.24356 13.456 2.7376 13.7141L3.00379 15.2889C3.09292 15.8165 3.44797 16.2633 3.9467 16.4759C4.44557 16.6883 5.01976 16.6372 5.47173 16.34L7.65824 14.9058C7.79227 14.821 7.94855 14.7763 8.1078 14.7776C11.039 14.7591 13.4585 13.9861 14.5792 12.7098C16.4736 10.5542 16.4736 4.83615 14.5792 2.68055C13.4377 1.38132 10.9784 0.605469 8.00109 0.605469C5.0234 0.605469 2.56275 1.38128 1.42083 2.68055ZM8.7439 8.63774L8.74372 8.63791C8.61027 8.7693 8.42674 8.84519 8.23277 8.84519C8.03898 8.84519 7.85545 8.76932 7.722 8.63793L7.72168 8.63761C7.5885 8.50666 7.51586 8.33148 7.51586 8.15133C7.51586 7.97095 7.58854 7.7958 7.72165 7.66492L7.72183 7.66475C7.85536 7.53336 8.03898 7.45748 8.23277 7.45748C8.42679 7.45748 8.61039 7.5334 8.74386 7.66473C8.87698 7.79572 8.94968 7.97097 8.94968 8.15133C8.94968 8.33153 8.87701 8.50678 8.7439 8.63774ZM4.94346 7.66473L4.94363 7.6649C5.07677 7.79582 5.14945 7.97098 5.14945 8.15133C5.14945 8.33151 5.0768 8.50668 4.94365 8.63759L4.94333 8.63791C4.80984 8.76933 4.6263 8.84519 4.43254 8.84519C4.23854 8.84519 4.05502 8.76929 3.92161 8.63793L3.92143 8.63776C3.78829 8.50676 3.71563 8.33151 3.71563 8.15133C3.71563 7.97093 3.78833 7.79569 3.92141 7.66477C4.05494 7.5334 4.23856 7.45748 4.43254 7.45748C4.62635 7.45748 4.80997 7.53337 4.94346 7.66473ZM12.4234 8.63774L12.4232 8.63791C12.2898 8.7693 12.1062 8.84519 11.9123 8.84519C11.7185 8.84519 11.535 8.76932 11.4015 8.63793L11.4012 8.63761C11.268 8.50666 11.1954 8.33148 11.1954 8.15133C11.1954 7.97095 11.268 7.7958 11.4012 7.66492L11.4013 7.66475C11.5349 7.53336 11.7185 7.45748 11.9123 7.45748C12.1063 7.45748 12.2899 7.5334 12.4234 7.66473C12.5565 7.79572 12.6292 7.97097 12.6292 8.15133C12.6292 8.33153 12.5565 8.50678 12.4234 8.63774ZM8.23277 9.56097C7.85285 9.56097 7.48842 9.41245 7.21982 9.14799C6.95103 8.88368 6.80008 8.52513 6.80008 8.15133C6.80008 7.77737 6.95102 7.41881 7.21982 7.15452C7.48845 6.89021 7.85286 6.7417 8.23277 6.7417C8.61285 6.7417 8.97728 6.89021 9.24589 7.15452C9.5145 7.41883 9.66547 7.77738 9.66547 8.15133C9.66547 8.52514 9.51452 8.8837 9.24589 9.14799C8.97726 9.41245 8.61284 9.56097 8.23277 9.56097ZM11.9123 6.7417C11.5324 6.7417 11.1679 6.89021 10.8993 7.15452C10.6305 7.41881 10.4796 7.77737 10.4796 8.15133C10.4796 8.52513 10.6305 8.88368 10.8993 9.14799C11.1679 9.41245 11.5324 9.56097 11.9123 9.56097C12.2923 9.56097 12.6568 9.41245 12.9254 9.14799C13.194 8.8837 13.345 8.52514 13.345 8.15133C13.345 7.77738 13.194 7.41883 12.9254 7.15452C12.6568 6.89021 12.2924 6.7417 11.9123 6.7417ZM4.43254 6.7417C4.81245 6.7417 5.17688 6.89021 5.44549 7.15452C5.71428 7.41883 5.86523 7.77738 5.86523 8.15133C5.86523 8.52514 5.71429 8.8837 5.44549 9.14799C5.17686 9.41245 4.81245 9.56097 4.43254 9.56097C4.05245 9.56097 3.68803 9.41245 3.41942 9.14799C3.15079 8.88368 2.99984 8.52513 2.99984 8.15133C2.99984 7.77737 3.15079 7.41881 3.41942 7.15452C3.68805 6.89023 4.05246 6.7417 4.43254 6.7417Z" fill="#BCBCBC"/>
</svg>
