<svg width="25" height="26" viewBox="0 0 25 26" fill="none" xmlns="http://www.w3.org/2000/svg">
<path fill-rule="evenodd" clip-rule="evenodd" d="M4.74872 6.22412C3.21852 8.00697 2.29393 10.3248 2.29393 12.8585C2.29393 15.3922 3.21852 17.71 4.74872 19.4929L7.97307 16.2685C7.25552 15.3204 6.82986 14.1392 6.82986 12.8585C6.82986 11.5778 7.25551 10.3966 7.97307 9.44847L4.74872 6.22412ZM5.85132 5.12152L9.07567 8.34587C10.0238 7.62832 11.205 7.20266 12.4857 7.20266C13.7664 7.20266 14.9476 7.62832 15.8957 8.34587L19.1201 5.12152C17.3372 3.59132 15.0194 2.66673 12.4857 2.66673C9.95196 2.66673 7.63417 3.59132 5.85132 5.12152ZM20.2227 6.22412L16.9983 9.44847C17.7159 10.3966 18.1415 11.5778 18.1415 12.8585C18.1415 14.1392 17.7159 15.3204 16.9983 16.2685L20.2227 19.4929C21.7529 17.71 22.6775 15.3922 22.6775 12.8585C22.6775 10.3248 21.7529 8.00697 20.2227 6.22412ZM19.1201 20.5955L15.8957 17.3711C14.9476 18.0887 13.7664 18.5144 12.4857 18.5144C11.205 18.5144 10.0238 18.0887 9.07567 17.3711L5.85132 20.5955C7.63417 22.1257 9.95196 23.0503 12.4857 23.0503C15.0194 23.0503 17.3372 22.1257 19.1201 20.5955ZM0.734619 12.8585C0.734619 6.36856 5.99576 1.10742 12.4857 1.10742C18.9756 1.10742 24.2368 6.36856 24.2368 12.8585C24.2368 19.3485 18.9756 24.6096 12.4857 24.6096C5.99576 24.6096 0.734619 19.3485 0.734619 12.8585ZM12.4857 8.76197C10.2232 8.76197 8.38917 10.5961 8.38917 12.8585C8.38917 15.121 10.2232 16.955 12.4857 16.955C14.7482 16.955 16.5822 15.121 16.5822 12.8585C16.5822 10.5961 14.7482 8.76197 12.4857 8.76197Z" fill="#BCBCBC"/>
</svg>
