<svg width="21" height="24" viewBox="0 0 21 24" fill="none" xmlns="http://www.w3.org/2000/svg">
<path d="M15.8512 10.3563V6.40442C15.8512 5.14668 15.2945 3.94045 14.3035 3.0511C13.3125 2.16174 11.9684 1.66211 10.5669 1.66211C9.16543 1.66211 7.82135 2.16174 6.83035 3.0511C5.83936 3.94045 5.28262 5.14668 5.28262 6.40442V10.3563M4.40191 22.2121H16.7319C17.4326 22.2121 18.1047 21.9623 18.6002 21.5176C19.0957 21.0729 19.3741 20.4698 19.3741 19.841V12.7275C19.3741 12.0986 19.0957 11.4955 18.6002 11.0508C18.1047 10.6062 17.4326 10.3563 16.7319 10.3563H4.40191C3.70117 10.3563 3.02913 10.6062 2.53363 11.0508C2.03813 11.4955 1.75977 12.0986 1.75977 12.7275V19.841C1.75977 20.4698 2.03813 21.0729 2.53363 21.5176C3.02913 21.9623 3.70117 22.2121 4.40191 22.2121Z" stroke="#DD2525" stroke-width="2.055" stroke-linecap="round" stroke-linejoin="round"/>
</svg>
