<svg width="21" height="23" viewBox="0 0 21 23" fill="none" xmlns="http://www.w3.org/2000/svg">
<path d="M15.9633 9.85954V5.9035C15.9633 4.64445 15.406 3.43697 14.414 2.54669C13.4219 1.65641 12.0764 1.15625 10.6735 1.15625C9.27056 1.15625 7.92508 1.65641 6.93305 2.54669C5.94103 3.43697 5.38371 4.64445 5.38371 5.9035V9.85954M4.50208 21.7277H16.8449C17.5464 21.7277 18.2191 21.4776 18.7152 21.0324C19.2112 20.5873 19.4898 19.9836 19.4898 19.354V12.2332C19.4898 11.6036 19.2112 10.9999 18.7152 10.5548C18.2191 10.1096 17.5464 9.85954 16.8449 9.85954H4.50208C3.80061 9.85954 3.12787 10.1096 2.63185 10.5548C2.13584 10.9999 1.85718 11.6036 1.85718 12.2332V19.354C1.85718 19.9836 2.13584 20.5873 2.63185 21.0324C3.12787 21.4776 3.80061 21.7277 4.50208 21.7277Z" stroke="#B6B6B6" stroke-width="2.05714" stroke-linecap="round" stroke-linejoin="round"/>
</svg>
