<svg width="21" height="24" viewBox="0 0 21 24" fill="none" xmlns="http://www.w3.org/2000/svg">
<path d="M15.7516 10.3563V6.40442C15.7516 5.14668 15.1948 3.94045 14.2039 3.0511C13.2129 2.16174 11.8688 1.66211 10.4673 1.66211C9.06582 1.66211 7.72174 2.16174 6.73075 3.0511C5.73975 3.94045 5.18301 5.14668 5.18301 6.40442V10.3563M4.3023 22.2121H16.6323C17.333 22.2121 18.0051 21.9623 18.5006 21.5176C18.9961 21.0729 19.2744 20.4698 19.2744 19.841V12.7275C19.2744 12.0986 18.9961 11.4955 18.5006 11.0508C18.0051 10.6062 17.333 10.3563 16.6323 10.3563H4.3023C3.60156 10.3563 2.92952 10.6062 2.43402 11.0508C1.93852 11.4955 1.66016 12.0986 1.66016 12.7275V19.841C1.66016 20.4698 1.93852 21.0729 2.43402 21.5176C2.92952 21.9623 3.60156 22.2121 4.3023 22.2121Z" stroke="url(#paint0_linear_1942_11171)" stroke-width="2.055" stroke-linecap="round" stroke-linejoin="round"/>
<defs>
<linearGradient id="paint0_linear_1942_11171" x1="-0.394843" y1="4.40211" x2="20.8402" y2="23.5821" gradientUnits="userSpaceOnUse">
<stop stop-color="#2D36A6"/>
<stop offset="0.450046" stop-color="#06A8ED"/>
<stop offset="1" stop-color="#E552A7"/>
</linearGradient>
</defs>
</svg>
