<svg width="16" height="16" viewBox="0 0 16 16" fill="none" xmlns="http://www.w3.org/2000/svg">
<path d="M7.64713 2.03531C8.26178 0.806 9.90015 0.540125 10.872 1.51198L14.9565 5.59643C15.9283 6.56829 15.6624 8.20665 14.4331 8.82131L10.9511 10.5623C10.6203 10.7277 10.3617 11.0088 10.2243 11.3522L8.77856 14.9666C8.51012 15.6377 7.64294 15.8157 7.13184 15.3046L4.5038 12.6766L1.18849 15.9919H0.476562V15.28L3.79188 11.9646L1.16383 9.3366C0.652735 8.8255 0.830731 7.95832 1.50184 7.68988L5.11623 6.24412C5.45965 6.10675 5.74072 5.84813 5.90613 5.51731L7.64713 2.03531ZM10.1601 2.2239C9.67416 1.73798 8.85497 1.87091 8.54765 2.48557L6.80665 5.96757C6.53096 6.51894 6.06252 6.94997 5.49015 7.17892L1.87576 8.62468L7.84376 14.5927L9.28952 10.9783C9.51847 10.4059 9.9495 9.93748 10.5009 9.66179L13.9829 7.92079C14.5975 7.61347 14.7305 6.79428 14.2445 6.30835L10.1601 2.2239Z" fill="#BCBCBC"/>
</svg>
