<svg width="22" height="21" viewBox="0 0 22 21" fill="none" xmlns="http://www.w3.org/2000/svg">
<path d="M8.00938 16.0983H6.21125C5.66027 16.0983 5.11469 15.9898 4.60565 15.7789C4.09662 15.5681 3.6341 15.259 3.2445 14.8694C2.8549 14.4798 2.54585 14.0173 2.335 13.5083C2.12415 12.9992 2.01563 12.4536 2.01562 11.9027C2.01562 11.3517 2.12415 10.8061 2.335 10.2971C2.54585 9.78802 2.8549 9.3255 3.2445 8.9359C3.6341 8.5463 4.09662 8.23725 4.60565 8.0264C5.11469 7.81555 5.66027 7.70703 6.21125 7.70703C6.56288 7.70703 6.91212 7.74939 7.25256 7.8349" stroke="#BCBCBC" stroke-width="1.096" stroke-linecap="round" stroke-linejoin="round"/>
<path d="M6.8125 10.1031C6.8125 9.1534 7.03818 8.21728 7.47095 7.37189C7.90372 6.5265 8.53119 5.79605 9.30164 5.24074C10.0721 4.68543 10.9635 4.32115 11.9023 4.17793C12.8412 4.0347 13.8007 4.11663 14.7016 4.41696C15.6026 4.71728 16.4193 5.22742 17.0845 5.90531C17.7496 6.58321 18.2442 7.40946 18.5274 8.31598C18.8105 9.22251 18.8742 10.1833 18.7132 11.1193C18.5522 12.0553 18.1711 12.9396 17.6013 13.6994" stroke="#BCBCBC" stroke-width="1.096" stroke-linecap="round" stroke-linejoin="round"/>
<path d="M14.7461 13.5579L12.2063 16.0977L9.66659 13.5579" stroke="#BCBCBC" stroke-width="1.096" stroke-linecap="round" stroke-linejoin="round"/>
<path d="M12.2031 10.1039L12.2031 16.0977" stroke="#BCBCBC" stroke-width="1.096" stroke-linecap="round" stroke-linejoin="round"/>
</svg>
