<svg width="22" height="22" viewBox="0 0 22 22" fill="none" xmlns="http://www.w3.org/2000/svg">
<path d="M12.0454 4.612C12.0454 3.78659 11.3763 3.11746 10.5509 3.11746C9.72544 3.11746 9.05631 3.78659 9.05631 4.612H8.05994C8.05994 3.23631 9.17516 2.12109 10.5509 2.12109C11.9265 2.12109 13.0418 3.23631 13.0418 4.612H17.5254C17.8005 4.612 18.0236 4.83505 18.0236 5.11018C18.0236 5.38532 17.8005 5.60837 17.5254 5.60837H16.9734L15.6821 16.7968C15.566 17.8023 14.7147 18.5611 13.7025 18.5611H7.39923C6.38705 18.5611 5.53566 17.8023 5.41964 16.7968L4.1273 5.60837H3.57631C3.33174 5.60837 3.12833 5.43213 3.08615 5.19973L3.07812 5.11018C3.07812 4.83505 3.30117 4.612 3.57631 4.612H12.0454ZM15.9691 5.60837H5.13163L6.40943 16.6826C6.46744 17.1853 6.89314 17.5647 7.39923 17.5647H13.7025C14.2086 17.5647 14.6343 17.1853 14.6923 16.6826L15.9691 5.60837ZM9.05631 8.09928C9.30087 8.09928 9.50428 8.25348 9.54646 8.45683L9.55449 8.53518V14.6379C9.55449 14.8787 9.33144 15.0738 9.05631 15.0738C8.81174 15.0738 8.60833 14.9196 8.56615 14.7163L8.55812 14.6379V8.53518C8.55812 8.29444 8.78117 8.09928 9.05631 8.09928ZM12.0454 8.09928C12.29 8.09928 12.4934 8.25348 12.5356 8.45683L12.5436 8.53518V14.6379C12.5436 14.8787 12.3205 15.0738 12.0454 15.0738C11.8008 15.0738 11.5974 14.9196 11.5552 14.7163L11.5472 14.6379V8.53518C11.5472 8.29444 11.7703 8.09928 12.0454 8.09928Z" fill="#DD2525"/>
</svg>
