<svg width="22" height="21" viewBox="0 0 22 21" fill="none" xmlns="http://www.w3.org/2000/svg">
<path d="M18.6833 10.3162C18.6833 14.4777 15.3097 17.8512 11.1483 17.8512C6.98682 17.8512 3.61328 14.4777 3.61328 10.3162C3.61328 6.15478 6.98682 2.78125 11.1483 2.78125C15.3097 2.78125 18.6833 6.15478 18.6833 10.3162ZM17.7414 10.3162C17.7414 8.6651 17.1345 7.15571 16.1315 5.99903L6.83106 15.2995C7.98775 16.3024 9.49713 16.9094 11.1483 16.9094C14.7896 16.9094 17.7414 13.9575 17.7414 10.3162ZM6.16506 14.6334L15.4655 5.33303C14.3088 4.33007 12.7994 3.72312 11.1483 3.72312C7.507 3.72312 4.55516 6.67497 4.55516 10.3162C4.55516 11.9674 5.1621 13.4768 6.16506 14.6334Z" fill="#C42B1C"/>
</svg>
