<svg width="22" height="22" viewBox="0 0 22 22" fill="none" xmlns="http://www.w3.org/2000/svg">
<path d="M11.9284 4.35172C12.543 3.12241 14.1814 2.85653 15.1533 3.82839L19.2377 7.91284C20.2096 8.88469 19.9437 10.5231 18.7144 11.1377L15.2324 12.8787C14.9016 13.0441 14.6429 13.3252 14.5056 13.6686L13.0598 17.283C12.7914 17.9541 11.9242 18.1321 11.4131 17.621L8.78505 14.993L5.46974 18.3083H4.75781V17.5964L8.07313 14.281L5.44508 11.653C4.93398 11.1419 5.11198 10.2747 5.78309 10.0063L9.39748 8.56053C9.7409 8.42316 10.022 8.16454 10.1874 7.83372L11.9284 4.35172ZM14.4413 4.54031C13.9554 4.05438 13.1362 4.18732 12.8289 4.80197L11.0879 8.28397C10.8122 8.83535 10.3438 9.26638 9.7714 9.49532L6.15701 10.9411L12.125 16.9091L13.5708 13.2947C13.7997 12.7223 14.2307 12.2539 14.7821 11.9782L18.2641 10.2372C18.8788 9.92987 19.0117 9.11069 18.5258 8.62476L14.4413 4.54031Z" fill="#BCBCBC"/>
</svg>
