<svg width="22" height="22" viewBox="0 0 22 22" fill="none" xmlns="http://www.w3.org/2000/svg">
<path d="M7.34561 6.83594H5.67085C5.22668 6.83594 4.8007 7.01238 4.48662 7.32646C4.17254 7.64054 3.99609 8.06652 3.99609 8.5107V16.8845C3.99609 17.3287 4.17254 17.7546 4.48662 18.0687C4.8007 18.3828 5.22668 18.5592 5.67085 18.5592H12.3699C12.8141 18.5592 13.24 18.3828 13.5541 18.0687C13.8682 17.7546 14.0446 17.3287 14.0446 16.8845V15.2097" stroke="#BCBCBC" stroke-width="0.951949" stroke-linecap="round" stroke-linejoin="round"/>
<path d="M7.34766 13.5407V5.16695C7.34766 4.72277 7.5241 4.29679 7.83818 3.98271C8.15226 3.66863 8.57824 3.49219 9.02241 3.49219H12.8626C13.0847 3.49223 13.2977 3.58049 13.4547 3.73754L17.1509 7.43373C17.3079 7.59073 17.3962 7.80369 17.3962 8.02576V13.5407C17.3962 13.9849 17.2198 14.4109 16.9057 14.725C16.5916 15.039 16.1656 15.2155 15.7214 15.2155H9.02241C8.57824 15.2155 8.15226 15.039 7.83818 14.725C7.5241 14.4109 7.34766 13.9849 7.34766 13.5407Z" stroke="#BCBCBC" stroke-width="0.951949" stroke-linecap="round" stroke-linejoin="round"/>
</svg>
