<svg width="22" height="21" viewBox="0 0 22 21" fill="none" xmlns="http://www.w3.org/2000/svg">
<path d="M5.50118 8.02583C5.53139 7.25781 5.72412 6.53271 6.04668 5.88063L3.75122 3.58519C3.5673 3.40128 3.5673 3.1031 3.75122 2.91918C3.93513 2.73527 4.23331 2.73527 4.41722 2.91918L18.5453 17.0473C18.7293 17.2312 18.7293 17.5294 18.5453 17.7133C18.3614 17.8972 18.0633 17.8972 17.8793 17.7133L15.1957 15.0297L13.5026 15.0294L13.4979 15.1813C13.4178 16.4092 12.3964 17.3803 11.1483 17.3803C9.89986 17.3803 8.87834 16.4087 8.79862 15.1804L8.79323 15.0294L5.496 15.0299C5.41316 15.0299 5.33087 15.019 5.25122 14.9976L5.134 14.9576C4.74709 14.7965 4.51919 14.4033 4.56666 13.9667L4.58652 13.8466L4.62647 13.726L5.4961 11.6358L5.49713 8.23735L5.50118 8.02583ZM14.2555 14.0895L6.75767 6.59162C6.59682 6.98773 6.49277 7.41127 6.45506 7.85323L6.44261 8.05314L6.43892 8.24614V11.7291L6.40275 11.9101L5.49599 14.088L14.2555 14.0895ZM12.5607 15.0294H9.73511L9.74203 15.1626C9.8066 15.8338 10.3409 16.3678 11.0122 16.432L11.1483 16.4384C11.8827 16.4384 12.4862 15.8781 12.5546 15.1617L12.5607 15.0294ZM15.8939 11.9101L16.7178 13.8878L17.5203 14.6903C17.6616 14.5256 17.7426 14.3153 17.7426 14.088L17.7345 13.9644L17.7201 13.8833C17.7081 13.8296 17.6915 13.777 17.6702 13.726L16.7986 11.633L16.7995 8.24614L16.7953 8.03467L16.7827 7.82537C16.5561 4.98042 14.112 2.78125 11.1461 2.78125C9.6021 2.78125 8.19975 3.37714 7.17849 4.34843L7.84412 5.01405C8.69346 4.21499 9.8591 3.72313 11.1461 3.72313C13.6863 3.72313 15.7549 5.63975 15.8539 8.06357L15.8578 8.25582L15.8577 11.7291L15.8939 11.9101Z" fill="#BCBCBC"/>
</svg>
