<svg width="22" height="21" viewBox="0 0 22 21" fill="none" xmlns="http://www.w3.org/2000/svg">
<path d="M10.9256 2.73828C15.0871 2.73828 18.4606 6.11182 18.4606 10.2733C18.4606 14.4347 15.0871 17.8083 10.9256 17.8083C6.76416 17.8083 3.39062 14.4347 3.39062 10.2733C3.39062 6.11182 6.76416 2.73828 10.9256 2.73828ZM10.9256 3.68016C7.28434 3.68016 4.3325 6.632 4.3325 10.2733C4.3325 13.9146 7.28434 16.8664 10.9256 16.8664C14.5669 16.8664 17.5187 13.9146 17.5187 10.2733C17.5187 6.632 14.5669 3.68016 10.9256 3.68016ZM14.0888 8.05653C14.2523 8.22001 14.2705 8.47377 14.1433 8.65731L14.0888 8.72253L10.3168 12.4946C10.1533 12.6581 9.89951 12.6763 9.71597 12.5491L9.65075 12.4946L7.767 10.6109C7.58308 10.427 7.58308 10.1288 7.767 9.94486C7.93047 9.78139 8.18424 9.76322 8.36778 9.89037L8.433 9.94486L9.98375 11.4958L13.4228 8.05653C13.6067 7.87262 13.9049 7.87262 14.0888 8.05653Z" fill="#BCBCBC"/>
</svg>
