<svg width="22" height="22" viewBox="0 0 22 22" fill="none" xmlns="http://www.w3.org/2000/svg">
<path d="M19.8947 2.06769C20.1047 2.27774 20.1047 2.61829 19.8947 2.82834L14.1689 8.5541C15.6911 10.4547 15.5713 13.2368 13.8095 14.9987L13.0956 15.7125L10.8477 19.459C10.7625 19.601 10.6166 19.6959 10.4523 19.7161C10.2879 19.7364 10.1233 19.6797 10.0062 19.5626L2.39973 11.9561C2.28261 11.839 2.22598 11.6745 2.24622 11.5101C2.26646 11.3457 2.3613 11.1998 2.50332 11.1146L6.24978 8.86674L6.96362 8.15289C8.72549 6.39102 11.5076 6.27121 13.4082 7.79345L19.134 2.06769C19.3441 1.85764 19.6846 1.85764 19.8947 2.06769ZM7.34395 9.29386L12.6685 14.6184L13.0488 14.2381C14.5191 12.7677 14.5191 10.3839 13.0488 8.91354C11.5785 7.44321 9.1946 7.44321 7.72427 8.91354L7.34395 9.29386ZM6.49992 9.97114L3.64749 11.6826L10.2798 18.3149L11.9912 15.4624L6.49992 9.97114Z" fill="#BCBCBC"/>
</svg>
