<svg width="22" height="22" viewBox="0 0 22 22" fill="none" xmlns="http://www.w3.org/2000/svg">
<path d="M11.6117 9.78972C11.5719 9.57002 11.3796 9.40343 11.1484 9.40343C10.8883 9.40343 10.6775 9.61428 10.6775 9.87437V14.1148L10.685 14.1995C10.7249 14.4192 10.9172 14.5858 11.1484 14.5858C11.4085 14.5858 11.6193 14.3749 11.6193 14.1148V9.87437L11.6117 9.78972ZM11.9007 7.75515C11.9007 7.36501 11.5844 7.04874 11.1943 7.04874C10.8041 7.04874 10.4879 7.36501 10.4879 7.75515C10.4879 8.14529 10.8041 8.46156 11.1943 8.46156C11.5844 8.46156 11.9007 8.14529 11.9007 7.75515ZM18.6833 10.8162C18.6833 6.65478 15.3097 3.28125 11.1483 3.28125C6.98682 3.28125 3.61328 6.65478 3.61328 10.8162C3.61328 14.9777 6.98682 18.3512 11.1483 18.3512C15.3097 18.3512 18.6833 14.9777 18.6833 10.8162ZM4.55516 10.8162C4.55516 7.17497 7.507 4.22312 11.1483 4.22312C14.7896 4.22312 17.7414 7.17497 17.7414 10.8162C17.7414 14.4575 14.7896 17.4094 11.1483 17.4094C7.507 17.4094 4.55516 14.4575 4.55516 10.8162Z" fill="#BCBCBC"/>
</svg>
