<svg width="152" height="151" viewBox="0 0 152 151" fill="none" xmlns="http://www.w3.org/2000/svg">
<g clip-path="url(#clip0_1950_12995)">
<path d="M145.5 0H6.5C3.18629 0 0.5 2.68629 0.5 6V145C0.5 148.314 3.18629 151 6.5 151H145.5C148.814 151 151.5 148.314 151.5 145V6C151.5 2.68629 148.814 0 145.5 0Z" fill="white"/>
<path d="M12.7432 8.16211H8.66211V12.2432H12.7432V8.16211Z" fill="black"/>
<path d="M16.8243 8.16211H12.7432V12.2432H16.8243V8.16211Z" fill="black"/>
<path d="M20.9054 8.16211H16.8243V12.2432H20.9054V8.16211Z" fill="black"/>
<path d="M24.9864 8.16211H20.9054V12.2432H24.9864V8.16211Z" fill="black"/>
<path d="M29.0675 8.16211H24.9864V12.2432H29.0675V8.16211Z" fill="black"/>
<path d="M33.1486 8.16211H29.0675V12.2432H33.1486V8.16211Z" fill="black"/>
<path d="M37.2297 8.16211H33.1486V12.2432H37.2297V8.16211Z" fill="black"/>
<path d="M45.3918 8.16211H41.3108V12.2432H45.3918V8.16211Z" fill="black"/>
<path d="M53.554 8.16211H49.4729V12.2432H53.554V8.16211Z" fill="black"/>
<path d="M61.7162 8.16211H57.6351V12.2432H61.7162V8.16211Z" fill="black"/>
<path d="M69.8783 8.16211H65.7972V12.2432H69.8783V8.16211Z" fill="black"/>
<path d="M73.9594 8.16211H69.8783V12.2432H73.9594V8.16211Z" fill="black"/>
<path d="M78.0405 8.16211H73.9594V12.2432H78.0405V8.16211Z" fill="black"/>
<path d="M82.1216 8.16211H78.0405V12.2432H82.1216V8.16211Z" fill="black"/>
<path d="M86.2026 8.16211H82.1216V12.2432H86.2026V8.16211Z" fill="black"/>
<path d="M90.2837 8.16211H86.2026V12.2432H90.2837V8.16211Z" fill="black"/>
<path d="M94.3648 8.16211H90.2837V12.2432H94.3648V8.16211Z" fill="black"/>
<path d="M98.4459 8.16211H94.3648V12.2432H98.4459V8.16211Z" fill="black"/>
<path d="M110.689 8.16211H106.608V12.2432H110.689V8.16211Z" fill="black"/>
<path d="M118.851 8.16211H114.77V12.2432H118.851V8.16211Z" fill="black"/>
<path d="M122.932 8.16211H118.851V12.2432H122.932V8.16211Z" fill="black"/>
<path d="M127.013 8.16211H122.932V12.2432H127.013V8.16211Z" fill="black"/>
<path d="M131.095 8.16211H127.013V12.2432H131.095V8.16211Z" fill="black"/>
<path d="M135.176 8.16211H131.095V12.2432H135.176V8.16211Z" fill="black"/>
<path d="M139.257 8.16211H135.176V12.2432H139.257V8.16211Z" fill="black"/>
<path d="M143.338 8.16211H139.257V12.2432H143.338V8.16211Z" fill="black"/>
<path d="M12.7432 12.2432H8.66211V16.3243H12.7432V12.2432Z" fill="black"/>
<path d="M37.2297 12.2432H33.1486V16.3243H37.2297V12.2432Z" fill="black"/>
<path d="M53.554 12.2432H49.4729V16.3243H53.554V12.2432Z" fill="black"/>
<path d="M69.8783 12.2432H65.7972V16.3243H69.8783V12.2432Z" fill="black"/>
<path d="M82.1216 12.2432H78.0405V16.3243H82.1216V12.2432Z" fill="black"/>
<path d="M94.3648 12.2432H90.2837V16.3243H94.3648V12.2432Z" fill="black"/>
<path d="M110.689 12.2432H106.608V16.3243H110.689V12.2432Z" fill="black"/>
<path d="M118.851 12.2432H114.77V16.3243H118.851V12.2432Z" fill="black"/>
<path d="M143.338 12.2432H139.257V16.3243H143.338V12.2432Z" fill="black"/>
<path d="M12.7432 16.3243H8.66211V20.4054H12.7432V16.3243Z" fill="black"/>
<path d="M20.9054 16.3243H16.8243V20.4054H20.9054V16.3243Z" fill="black"/>
<path d="M24.9864 16.3243H20.9054V20.4054H24.9864V16.3243Z" fill="black"/>
<path d="M29.0675 16.3243H24.9864V20.4054H29.0675V16.3243Z" fill="black"/>
<path d="M37.2297 16.3243H33.1486V20.4054H37.2297V16.3243Z" fill="black"/>
<path d="M53.554 16.3243H49.4729V20.4054H53.554V16.3243Z" fill="black"/>
<path d="M57.6351 16.3243H53.554V20.4054H57.6351V16.3243Z" fill="black"/>
<path d="M61.7162 16.3243H57.6351V20.4054H61.7162V16.3243Z" fill="black"/>
<path d="M69.8783 16.3243H65.7972V20.4054H69.8783V16.3243Z" fill="black"/>
<path d="M73.9594 16.3243H69.8783V20.4054H73.9594V16.3243Z" fill="black"/>
<path d="M102.527 16.3243H98.4459V20.4054H102.527V16.3243Z" fill="black"/>
<path d="M106.608 16.3243H102.527V20.4054H106.608V16.3243Z" fill="black"/>
<path d="M110.689 16.3243H106.608V20.4054H110.689V16.3243Z" fill="black"/>
<path d="M118.851 16.3243H114.77V20.4054H118.851V16.3243Z" fill="black"/>
<path d="M127.013 16.3243H122.932V20.4054H127.013V16.3243Z" fill="black"/>
<path d="M131.095 16.3243H127.013V20.4054H131.095V16.3243Z" fill="black"/>
<path d="M135.176 16.3243H131.095V20.4054H135.176V16.3243Z" fill="black"/>
<path d="M143.338 16.3243H139.257V20.4054H143.338V16.3243Z" fill="black"/>
<path d="M12.7432 20.4054H8.66211V24.4864H12.7432V20.4054Z" fill="black"/>
<path d="M20.9054 20.4054H16.8243V24.4864H20.9054V20.4054Z" fill="black"/>
<path d="M24.9864 20.4054H20.9054V24.4864H24.9864V20.4054Z" fill="black"/>
<path d="M29.0675 20.4054H24.9864V24.4864H29.0675V20.4054Z" fill="black"/>
<path d="M37.2297 20.4054H33.1486V24.4864H37.2297V20.4054Z" fill="black"/>
<path d="M61.7162 20.4054H57.6351V24.4864H61.7162V20.4054Z" fill="black"/>
<path d="M65.7972 20.4054H61.7162V24.4864H65.7972V20.4054Z" fill="black"/>
<path d="M69.8783 20.4054H65.7972V24.4864H69.8783V20.4054Z" fill="black"/>
<path d="M73.9594 20.4054H69.8783V24.4864H73.9594V20.4054Z" fill="black"/>
<path d="M78.0405 20.4054H73.9594V24.4864H78.0405V20.4054Z" fill="black"/>
<path d="M82.1216 20.4054H78.0405V24.4864H82.1216V20.4054Z" fill="black"/>
<path d="M90.2837 20.4054H86.2026V24.4864H90.2837V20.4054Z" fill="black"/>
<path d="M94.3648 20.4054H90.2837V24.4864H94.3648V20.4054Z" fill="black"/>
<path d="M98.4459 20.4054H94.3648V24.4864H98.4459V20.4054Z" fill="black"/>
<path d="M102.527 20.4054H98.4459V24.4864H102.527V20.4054Z" fill="black"/>
<path d="M118.851 20.4054H114.77V24.4864H118.851V20.4054Z" fill="black"/>
<path d="M127.013 20.4054H122.932V24.4864H127.013V20.4054Z" fill="black"/>
<path d="M131.095 20.4054H127.013V24.4864H131.095V20.4054Z" fill="black"/>
<path d="M135.176 20.4054H131.095V24.4864H135.176V20.4054Z" fill="black"/>
<path d="M143.338 20.4054H139.257V24.4864H143.338V20.4054Z" fill="black"/>
<path d="M12.7432 24.4864H8.66211V28.5675H12.7432V24.4864Z" fill="black"/>
<path d="M20.9054 24.4864H16.8243V28.5675H20.9054V24.4864Z" fill="black"/>
<path d="M24.9864 24.4864H20.9054V28.5675H24.9864V24.4864Z" fill="black"/>
<path d="M29.0675 24.4864H24.9864V28.5675H29.0675V24.4864Z" fill="black"/>
<path d="M37.2297 24.4864H33.1486V28.5675H37.2297V24.4864Z" fill="black"/>
<path d="M45.3918 24.4864H41.3108V28.5675H45.3918V24.4864Z" fill="black"/>
<path d="M49.4729 24.4864H45.3918V28.5675H49.4729V24.4864Z" fill="black"/>
<path d="M53.554 24.4864H49.4729V28.5675H53.554V24.4864Z" fill="black"/>
<path d="M57.6351 24.4864H53.554V28.5675H57.6351V24.4864Z" fill="black"/>
<path d="M61.7162 24.4864H57.6351V28.5675H61.7162V24.4864Z" fill="black"/>
<path d="M69.8783 24.4864H65.7972V28.5675H69.8783V24.4864Z" fill="black"/>
<path d="M78.0405 24.4864H73.9594V28.5675H78.0405V24.4864Z" fill="black"/>
<path d="M86.2026 24.4864H82.1216V28.5675H86.2026L86.2026 24.4864Z" fill="black"/>
<path d="M106.608 24.4864H102.527V28.5675H106.608V24.4864Z" fill="black"/>
<path d="M118.851 24.4864H114.77V28.5675H118.851V24.4864Z" fill="black"/>
<path d="M127.013 24.4864H122.932V28.5675H127.013V24.4864Z" fill="black"/>
<path d="M131.095 24.4864H127.013V28.5675H131.095V24.4864Z" fill="black"/>
<path d="M135.176 24.4864H131.095V28.5675H135.176V24.4864Z" fill="black"/>
<path d="M143.338 24.4864H139.257V28.5675H143.338V24.4864Z" fill="black"/>
<path d="M12.7432 28.5675H8.66211V32.6486H12.7432V28.5675Z" fill="black"/>
<path d="M37.2297 28.5675H33.1486V32.6486H37.2297V28.5675Z" fill="black"/>
<path d="M49.4729 28.5675H45.3918V32.6486H49.4729V28.5675Z" fill="black"/>
<path d="M82.1216 28.5675H78.0405V32.6486H82.1216V28.5675Z" fill="black"/>
<path d="M98.4459 28.5675H94.3648V32.6486H98.4459V28.5675Z" fill="black"/>
<path d="M118.851 28.5675H114.77V32.6486H118.851V28.5675Z" fill="black"/>
<path d="M143.338 28.5675H139.257V32.6486H143.338V28.5675Z" fill="black"/>
<path d="M12.7432 32.6486H8.66211V36.7297H12.7432V32.6486Z" fill="black"/>
<path d="M16.8243 32.6486H12.7432V36.7297H16.8243V32.6486Z" fill="black"/>
<path d="M20.9054 32.6486H16.8243V36.7297H20.9054V32.6486Z" fill="black"/>
<path d="M24.9864 32.6486H20.9054V36.7297H24.9864V32.6486Z" fill="black"/>
<path d="M29.0675 32.6486H24.9864V36.7297H29.0675V32.6486Z" fill="black"/>
<path d="M33.1486 32.6486H29.0675V36.7297H33.1486V32.6486Z" fill="black"/>
<path d="M37.2297 32.6486H33.1486V36.7297H37.2297V32.6486Z" fill="black"/>
<path d="M45.3918 32.6486H41.3108V36.7297H45.3918V32.6486Z" fill="black"/>
<path d="M53.554 32.6486H49.4729V36.7297H53.554V32.6486Z" fill="black"/>
<path d="M61.7162 32.6486H57.6351V36.7297H61.7162V32.6486Z" fill="black"/>
<path d="M69.8783 32.6486H65.7972V36.7297H69.8783V32.6486Z" fill="black"/>
<path d="M78.0405 32.6486H73.9594V36.7297H78.0405V32.6486Z" fill="black"/>
<path d="M86.2026 32.6486H82.1216V36.7297H86.2026V32.6486Z" fill="black"/>
<path d="M94.3648 32.6486H90.2837V36.7297H94.3648V32.6486Z" fill="black"/>
<path d="M102.527 32.6486H98.4459V36.7297H102.527V32.6486Z" fill="black"/>
<path d="M110.689 32.6486H106.608V36.7297H110.689V32.6486Z" fill="black"/>
<path d="M118.851 32.6486H114.77V36.7297H118.851V32.6486Z" fill="black"/>
<path d="M122.932 32.6486H118.851V36.7297H122.932V32.6486Z" fill="black"/>
<path d="M127.013 32.6486H122.932V36.7297H127.013V32.6486Z" fill="black"/>
<path d="M131.095 32.6486H127.013V36.7297H131.095V32.6486Z" fill="black"/>
<path d="M135.176 32.6486H131.095V36.7297H135.176V32.6486Z" fill="black"/>
<path d="M139.257 32.6486H135.176V36.7297H139.257V32.6486Z" fill="black"/>
<path d="M143.338 32.6486H139.257V36.7297H143.338V32.6486Z" fill="black"/>
<path d="M45.3918 36.7297H41.3108V40.8108H45.3918V36.7297Z" fill="black"/>
<path d="M53.554 36.7297H49.4729V40.8108H53.554V36.7297Z" fill="black"/>
<path d="M57.6351 36.7297H53.554V40.8108H57.6351V36.7297Z" fill="black"/>
<path d="M61.7162 36.7297H57.6351V40.8108H61.7162V36.7297Z" fill="black"/>
<path d="M69.8783 36.7297H65.7972V40.8108H69.8783V36.7297Z" fill="black"/>
<path d="M78.0405 36.7297H73.9594V40.8108H78.0405V36.7297Z" fill="black"/>
<path d="M94.3648 36.7297H90.2837V40.8108H94.3648V36.7297Z" fill="black"/>
<path d="M102.527 36.7297H98.4459V40.8108H102.527V36.7297Z" fill="black"/>
<path d="M110.689 36.7297H106.608V40.8108H110.689V36.7297Z" fill="black"/>
<path d="M12.7432 40.8108H8.66211V44.8918H12.7432V40.8108Z" fill="black"/>
<path d="M24.9864 40.8108H20.9054V44.8918H24.9864V40.8108Z" fill="black"/>
<path d="M29.0675 40.8108H24.9864V44.8918H29.0675V40.8108Z" fill="black"/>
<path d="M33.1486 40.8108H29.0675V44.8918H33.1486V40.8108Z" fill="black"/>
<path d="M37.2297 40.8108H33.1486V44.8918H37.2297V40.8108Z" fill="black"/>
<path d="M41.3108 40.8108H37.2297V44.8918H41.3108V40.8108Z" fill="black"/>
<path d="M45.3918 40.8108H41.3108V44.8918H45.3918V40.8108Z" fill="black"/>
<path d="M49.4729 40.8108H45.3918V44.8918H49.4729V40.8108Z" fill="black"/>
<path d="M57.6351 40.8108H53.554V44.8918H57.6351V40.8108Z" fill="black"/>
<path d="M61.7162 40.8108H57.6351V44.8918H61.7162V40.8108Z" fill="black"/>
<path d="M65.7972 40.8108H61.7162V44.8918H65.7972V40.8108Z" fill="black"/>
<path d="M78.0405 40.8108H73.9594V44.8918H78.0405V40.8108Z" fill="black"/>
<path d="M82.1216 40.8108H78.0405V44.8918H82.1216V40.8108Z" fill="black"/>
<path d="M94.3648 40.8108H90.2837V44.8918H94.3648V40.8108Z" fill="black"/>
<path d="M98.4459 40.8108H94.3648V44.8918H98.4459V40.8108Z" fill="black"/>
<path d="M102.527 40.8108H98.4459V44.8918H102.527V40.8108Z" fill="black"/>
<path d="M110.689 40.8108H106.608V44.8918H110.689V40.8108Z" fill="black"/>
<path d="M114.77 40.8108H110.689V44.8918H114.77V40.8108Z" fill="black"/>
<path d="M118.851 40.8108H114.77V44.8918H118.851V40.8108Z" fill="black"/>
<path d="M127.013 40.8108H122.932V44.8918H127.013V40.8108Z" fill="black"/>
<path d="M143.338 40.8108H139.257V44.8918H143.338V40.8108Z" fill="black"/>
<path d="M29.0675 44.8918H24.9864V48.9729H29.0675V44.8918Z" fill="black"/>
<path d="M49.4729 44.8918H45.3918V48.9729H49.4729V44.8918Z" fill="black"/>
<path d="M65.7972 44.8918H61.7162V48.9729H65.7972V44.8918Z" fill="black"/>
<path d="M78.0405 44.8918H73.9594V48.9729H78.0405V44.8918Z" fill="black"/>
<path d="M82.1216 44.8918H78.0405V48.9729H82.1216V44.8918Z" fill="black"/>
<path d="M90.2837 44.8918H86.2026V48.9729H90.2837V44.8918Z" fill="black"/>
<path d="M106.608 44.8918H102.527V48.9729H106.608V44.8918Z" fill="black"/>
<path d="M114.77 44.8918H110.689V48.9729H114.77V44.8918Z" fill="black"/>
<path d="M118.851 44.8918H114.77V48.9729H118.851V44.8918Z" fill="black"/>
<path d="M122.932 44.8918H118.851V48.9729H122.932V44.8918Z" fill="black"/>
<path d="M127.013 44.8918H122.932V48.9729H127.013V44.8918Z" fill="black"/>
<path d="M139.257 44.8918H135.176V48.9729H139.257V44.8918Z" fill="black"/>
<path d="M143.338 44.8918H139.257V48.9729H143.338V44.8918Z" fill="black"/>
<path d="M29.0675 48.9729H24.9864V53.054H29.0675V48.9729Z" fill="black"/>
<path d="M33.1486 48.9729H29.0675V53.054H33.1486V48.9729Z" fill="black"/>
<path d="M37.2297 48.9729H33.1486V53.054H37.2297V48.9729Z" fill="black"/>
<path d="M57.6351 48.9729H53.554V53.054H57.6351V48.9729Z" fill="black"/>
<path d="M65.7972 48.9729H61.7162V53.054H65.7972V48.9729Z" fill="black"/>
<path d="M73.9594 48.9729H69.8783V53.054H73.9594V48.9729Z" fill="black"/>
<path d="M94.3648 48.9729H90.2837V53.054H94.3648V48.9729Z" fill="black"/>
<path d="M102.527 48.9729H98.4459V53.054H102.527V48.9729Z" fill="black"/>
<path d="M110.689 48.9729H106.608V53.054H110.689V48.9729Z" fill="black"/>
<path d="M114.77 48.9729H110.689V53.054H114.77V48.9729Z" fill="black"/>
<path d="M122.932 48.9729H118.851V53.054H122.932V48.9729Z" fill="black"/>
<path d="M135.176 48.9729H131.095V53.054H135.176V48.9729Z" fill="black"/>
<path d="M139.257 48.9729H135.176V53.054H139.257V48.9729Z" fill="black"/>
<path d="M12.7432 53.054H8.66211V57.1351H12.7432V53.054Z" fill="black"/>
<path d="M29.0675 53.054H24.9864V57.1351H29.0675V53.054Z" fill="black"/>
<path d="M49.4729 53.054H45.3918V57.1351H49.4729V53.054Z" fill="black"/>
<path d="M53.554 53.054H49.4729V57.1351H53.554V53.054Z" fill="black"/>
<path d="M57.6351 53.054H53.554V57.1351H57.6351V53.054Z" fill="black"/>
<path d="M61.7162 53.054H57.6351V57.1351H61.7162V53.054Z" fill="black"/>
<path d="M82.1216 53.054H78.0405V57.1351H82.1216V53.054Z" fill="black"/>
<path d="M90.2837 53.054H86.2026V57.1351H90.2837V53.054Z" fill="black"/>
<path d="M94.3648 53.054H90.2837V57.1351H94.3648V53.054Z" fill="black"/>
<path d="M106.608 53.054H102.527V57.1351H106.608V53.054Z" fill="black"/>
<path d="M118.851 53.054H114.77V57.1351H118.851V53.054Z" fill="black"/>
<path d="M127.013 53.054H122.932V57.1351H127.013V53.054Z" fill="black"/>
<path d="M131.095 53.054H127.013V57.1351H131.095V53.054Z" fill="black"/>
<path d="M139.257 53.054H135.176V57.1351H139.257V53.054Z" fill="black"/>
<path d="M143.338 53.054H139.257V57.1351H143.338V53.054Z" fill="black"/>
<path d="M12.7432 57.1351H8.66211V61.2162H12.7432V57.1351Z" fill="black"/>
<path d="M16.8243 57.1351H12.7432V61.2162H16.8243V57.1351Z" fill="black"/>
<path d="M20.9054 57.1351H16.8243V61.2162H20.9054V57.1351Z" fill="black"/>
<path d="M24.9864 57.1351H20.9054V61.2162H24.9864V57.1351Z" fill="black"/>
<path d="M29.0675 57.1351H24.9864V61.2162H29.0675V57.1351Z" fill="black"/>
<path d="M37.2297 57.1351H33.1486V61.2162H37.2297V57.1351Z" fill="black"/>
<path d="M45.3918 57.1351H41.3108V61.2162H45.3918V57.1351Z" fill="black"/>
<path d="M53.554 57.1351H49.4729V61.2162H53.554V57.1351Z" fill="black"/>
<path d="M61.7162 57.1351H57.6351V61.2162H61.7162V57.1351Z" fill="black"/>
<path d="M65.7972 57.1351H61.7162V61.2162H65.7972V57.1351Z" fill="black"/>
<path d="M69.8783 57.1351H65.7972V61.2162H69.8783V57.1351Z" fill="black"/>
<path d="M73.9594 57.1351H69.8783V61.2162H73.9594V57.1351Z" fill="black"/>
<path d="M82.1216 57.1351H78.0405V61.2162H82.1216V57.1351Z" fill="black"/>
<path d="M86.2026 57.1351H82.1216V61.2162H86.2026L86.2026 57.1351Z" fill="black"/>
<path d="M98.4459 57.1351H94.3648V61.2162H98.4459V57.1351Z" fill="black"/>
<path d="M122.932 57.1351H118.851V61.2162H122.932V57.1351Z" fill="black"/>
<path d="M127.013 57.1351H122.932V61.2162H127.013V57.1351Z" fill="black"/>
<path d="M131.095 57.1351H127.013V61.2162H131.095V57.1351Z" fill="black"/>
<path d="M135.176 57.1351H131.095V61.2162H135.176V57.1351Z" fill="black"/>
<path d="M143.338 57.1351H139.257V61.2162H143.338V57.1351Z" fill="black"/>
<path d="M20.9054 61.2162H16.8243V65.2972H20.9054V61.2162Z" fill="black"/>
<path d="M29.0675 61.2162H24.9864V65.2972H29.0675V61.2162Z" fill="black"/>
<path d="M33.1486 61.2162H29.0675V65.2972H33.1486V61.2162Z" fill="black"/>
<path d="M49.4729 61.2162H45.3918V65.2972H49.4729V61.2162Z" fill="black"/>
<path d="M61.7162 61.2162H57.6351V65.2972H61.7162V61.2162Z" fill="black"/>
<path d="M65.7972 61.2162H61.7162V65.2972H65.7972V61.2162Z" fill="black"/>
<path d="M73.9594 61.2162H69.8783V65.2972H73.9594V61.2162Z" fill="black"/>
<path d="M78.0405 61.2162H73.9594V65.2972H78.0405V61.2162Z" fill="black"/>
<path d="M102.527 61.2162H98.4459V65.2972H102.527V61.2162Z" fill="black"/>
<path d="M106.608 61.2162H102.527V65.2972H106.608V61.2162Z" fill="black"/>
<path d="M122.932 61.2162H118.851V65.2972H122.932V61.2162Z" fill="black"/>
<path d="M139.257 61.2162H135.176V65.2972H139.257V61.2162Z" fill="black"/>
<path d="M12.7432 65.2972H8.66211V69.3783H12.7432V65.2972Z" fill="black"/>
<path d="M24.9864 65.2972H20.9054V69.3783H24.9864V65.2972Z" fill="black"/>
<path d="M29.0675 65.2972H24.9864V69.3783H29.0675V65.2972Z" fill="black"/>
<path d="M37.2297 65.2972H33.1486V69.3783H37.2297V65.2972Z" fill="black"/>
<path d="M41.3108 65.2972H37.2297V69.3783H41.3108V65.2972Z" fill="black"/>
<path d="M49.4729 65.2972H45.3918V69.3783H49.4729V65.2972Z" fill="black"/>
<path d="M57.6351 65.2972H53.554V69.3783H57.6351V65.2972Z" fill="black"/>
<path d="M61.7162 65.2972H57.6351V69.3783H61.7162V65.2972Z" fill="black"/>
<path d="M69.8783 65.2972H65.7972V69.3783H69.8783V65.2972Z" fill="black"/>
<path d="M90.2837 65.2972H86.2026V69.3783H90.2837V65.2972Z" fill="black"/>
<path d="M94.3648 65.2972H90.2837V69.3783H94.3648V65.2972Z" fill="black"/>
<path d="M98.4459 65.2972H94.3648V69.3783H98.4459V65.2972Z" fill="black"/>
<path d="M102.527 65.2972H98.4459V69.3783H102.527V65.2972Z" fill="black"/>
<path d="M106.608 65.2972H102.527V69.3783H106.608V65.2972Z" fill="black"/>
<path d="M110.689 65.2972H106.608V69.3783H110.689V65.2972Z" fill="black"/>
<path d="M114.77 65.2972H110.689V69.3783H114.77V65.2972Z" fill="black"/>
<path d="M118.851 65.2972H114.77V69.3783H118.851V65.2972Z" fill="black"/>
<path d="M131.095 65.2972H127.013V69.3783H131.095V65.2972Z" fill="black"/>
<path d="M135.176 65.2972H131.095V69.3783H135.176V65.2972Z" fill="black"/>
<path d="M143.338 65.2972H139.257V69.3783H143.338V65.2972Z" fill="black"/>
<path d="M12.7432 69.3783H8.66211V73.4594H12.7432V69.3783Z" fill="black"/>
<path d="M20.9054 69.3783H16.8243V73.4594H20.9054V69.3783Z" fill="black"/>
<path d="M24.9864 69.3783H20.9054V73.4594H24.9864V69.3783Z" fill="black"/>
<path d="M41.3108 69.3783H37.2297V73.4594H41.3108V69.3783Z" fill="black"/>
<path d="M49.4729 69.3783H45.3918V73.4594H49.4729V69.3783Z" fill="black"/>
<path d="M53.554 69.3783H49.4729V73.4594H53.554V69.3783Z" fill="black"/>
<path d="M78.0405 69.3783H73.9594V73.4594H78.0405V69.3783Z" fill="black"/>
<path d="M82.1216 69.3783H78.0405V73.4594H82.1216V69.3783Z" fill="black"/>
<path d="M86.2026 69.3783H82.1216V73.4594H86.2026L86.2026 69.3783Z" fill="black"/>
<path d="M90.2837 69.3783H86.2026L86.2026 73.4594H90.2837V69.3783Z" fill="black"/>
<path d="M102.527 69.3783H98.4459V73.4594H102.527V69.3783Z" fill="black"/>
<path d="M106.608 69.3783H102.527V73.4594H106.608V69.3783Z" fill="black"/>
<path d="M114.77 69.3783H110.689V73.4594H114.77V69.3783Z" fill="black"/>
<path d="M118.851 69.3783H114.77V73.4594H118.851V69.3783Z" fill="black"/>
<path d="M143.338 69.3783H139.257V73.4594H143.338V69.3783Z" fill="black"/>
<path d="M12.7432 73.4594H8.66211V77.5405H12.7432V73.4594Z" fill="black"/>
<path d="M16.8243 73.4594H12.7432V77.5405H16.8243V73.4594Z" fill="black"/>
<path d="M20.9054 73.4594H16.8243V77.5405H20.9054V73.4594Z" fill="black"/>
<path d="M33.1486 73.4594H29.0675V77.5405H33.1486V73.4594Z" fill="black"/>
<path d="M37.2297 73.4594H33.1486V77.5405H37.2297V73.4594Z" fill="black"/>
<path d="M41.3108 73.4594H37.2297V77.5405H41.3108V73.4594Z" fill="black"/>
<path d="M45.3918 73.4594H41.3108V77.5405H45.3918V73.4594Z" fill="black"/>
<path d="M57.6351 73.4594H53.554V77.5405H57.6351V73.4594Z" fill="black"/>
<path d="M65.7972 73.4594H61.7162V77.5405H65.7972V73.4594Z" fill="black"/>
<path d="M69.8783 73.4594H65.7972V77.5405H69.8783V73.4594Z" fill="black"/>
<path d="M82.1216 73.4594H78.0405V77.5405H82.1216V73.4594Z" fill="black"/>
<path d="M86.2026 73.4594H82.1216V77.5405H86.2026V73.4594Z" fill="black"/>
<path d="M94.3648 73.4594H90.2837V77.5405H94.3648V73.4594Z" fill="black"/>
<path d="M106.608 73.4594H102.527V77.5405H106.608V73.4594Z" fill="black"/>
<path d="M110.689 73.4594H106.608V77.5405H110.689V73.4594Z" fill="black"/>
<path d="M118.851 73.4594H114.77V77.5405H118.851V73.4594Z" fill="black"/>
<path d="M131.095 73.4594H127.013V77.5405H131.095V73.4594Z" fill="black"/>
<path d="M135.176 73.4594H131.095V77.5405H135.176V73.4594Z" fill="black"/>
<path d="M12.7432 77.5405H8.66211V81.6216H12.7432V77.5405Z" fill="black"/>
<path d="M16.8243 77.5405H12.7432V81.6216H16.8243V77.5405Z" fill="black"/>
<path d="M24.9864 77.5405H20.9054V81.6216H24.9864V77.5405Z" fill="black"/>
<path d="M33.1486 77.5405H29.0675V81.6216H33.1486V77.5405Z" fill="black"/>
<path d="M41.3108 77.5405H37.2297V81.6216H41.3108V77.5405Z" fill="black"/>
<path d="M45.3918 77.5405H41.3108V81.6216H45.3918V77.5405Z" fill="black"/>
<path d="M53.554 77.5405H49.4729V81.6216H53.554V77.5405Z" fill="black"/>
<path d="M57.6351 77.5405H53.554V81.6216H57.6351V77.5405Z" fill="black"/>
<path d="M69.8783 77.5405H65.7972V81.6216H69.8783V77.5405Z" fill="black"/>
<path d="M73.9594 77.5405H69.8783V81.6216H73.9594V77.5405Z" fill="black"/>
<path d="M78.0405 77.5405H73.9594V81.6216H78.0405V77.5405Z" fill="black"/>
<path d="M82.1216 77.5405H78.0405V81.6216H82.1216V77.5405Z" fill="black"/>
<path d="M98.4459 77.5405H94.3648V81.6216H98.4459V77.5405Z" fill="black"/>
<path d="M102.527 77.5405H98.4459V81.6216H102.527V77.5405Z" fill="black"/>
<path d="M106.608 77.5405H102.527V81.6216H106.608V77.5405Z" fill="black"/>
<path d="M118.851 77.5405H114.77V81.6216H118.851V77.5405Z" fill="black"/>
<path d="M122.932 77.5405H118.851V81.6216H122.932V77.5405Z" fill="black"/>
<path d="M135.176 77.5405H131.095V81.6216H135.176V77.5405Z" fill="black"/>
<path d="M139.257 77.5405H135.176V81.6216H139.257V77.5405Z" fill="black"/>
<path d="M24.9864 81.6216H20.9054V85.7026H24.9864V81.6216Z" fill="black"/>
<path d="M29.0675 81.6216H24.9864V85.7026H29.0675V81.6216Z" fill="black"/>
<path d="M37.2297 81.6216H33.1486V85.7026H37.2297V81.6216Z" fill="black"/>
<path d="M41.3108 81.6216H37.2297V85.7026H41.3108V81.6216Z" fill="black"/>
<path d="M49.4729 81.6216H45.3918V85.7026H49.4729V81.6216Z" fill="black"/>
<path d="M57.6351 81.6216H53.554V85.7026H57.6351V81.6216Z" fill="black"/>
<path d="M61.7162 81.6216H57.6351V85.7026H61.7162V81.6216Z" fill="black"/>
<path d="M73.9594 81.6216H69.8783V85.7026H73.9594V81.6216Z" fill="black"/>
<path d="M78.0405 81.6216H73.9594V85.7026H78.0405V81.6216Z" fill="black"/>
<path d="M86.2026 81.6216H82.1216V85.7026H86.2026V81.6216Z" fill="black"/>
<path d="M98.4459 81.6216H94.3648V85.7026H98.4459V81.6216Z" fill="black"/>
<path d="M114.77 81.6216H110.689V85.7026H114.77V81.6216Z" fill="black"/>
<path d="M122.932 81.6216H118.851V85.7026H122.932V81.6216Z" fill="black"/>
<path d="M127.013 81.6216H122.932V85.7026H127.013V81.6216Z" fill="black"/>
<path d="M135.176 81.6216H131.095V85.7026H135.176V81.6216Z" fill="black"/>
<path d="M139.257 81.6216H135.176V85.7026H139.257V81.6216Z" fill="black"/>
<path d="M16.8243 85.7026H12.7432V89.7837H16.8243V85.7026Z" fill="black"/>
<path d="M24.9864 85.7026H20.9054V89.7837H24.9864V85.7026Z" fill="black"/>
<path d="M29.0675 85.7026H24.9864V89.7837H29.0675V85.7026Z" fill="black"/>
<path d="M33.1486 85.7026H29.0675V89.7837H33.1486V85.7026Z" fill="black"/>
<path d="M45.3918 85.7026H41.3108V89.7837H45.3918V85.7026Z" fill="black"/>
<path d="M61.7162 85.7026H57.6351V89.7837H61.7162V85.7026Z" fill="black"/>
<path d="M65.7972 85.7026L61.7162 85.7026V89.7837H65.7972V85.7026Z" fill="black"/>
<path d="M69.8783 85.7026L65.7972 85.7026V89.7837H69.8783V85.7026Z" fill="black"/>
<path d="M73.9594 85.7026H69.8783V89.7837H73.9594V85.7026Z" fill="black"/>
<path d="M94.3648 85.7026L90.2837 85.7026V89.7837H94.3648V85.7026Z" fill="black"/>
<path d="M98.4459 85.7026H94.3648V89.7837H98.4459V85.7026Z" fill="black"/>
<path d="M110.689 85.7026L106.608 85.7026V89.7837H110.689V85.7026Z" fill="black"/>
<path d="M127.013 85.7026H122.932V89.7837H127.013V85.7026Z" fill="black"/>
<path d="M131.095 85.7026H127.013V89.7837H131.095V85.7026Z" fill="black"/>
<path d="M135.176 85.7026H131.095V89.7837H135.176V85.7026Z" fill="black"/>
<path d="M139.257 85.7026H135.176V89.7837H139.257V85.7026Z" fill="black"/>
<path d="M12.7432 89.7837H8.66211V93.8648H12.7432V89.7837Z" fill="black"/>
<path d="M24.9864 89.7837H20.9054V93.8648H24.9864V89.7837Z" fill="black"/>
<path d="M29.0675 89.7837H24.9864V93.8648H29.0675V89.7837Z" fill="black"/>
<path d="M37.2297 89.7837H33.1486V93.8648H37.2297V89.7837Z" fill="black"/>
<path d="M49.4729 89.7837H45.3918V93.8648H49.4729V89.7837Z" fill="black"/>
<path d="M53.554 89.7837H49.4729V93.8648H53.554V89.7837Z" fill="black"/>
<path d="M61.7162 89.7837H57.6351V93.8648H61.7162V89.7837Z" fill="black"/>
<path d="M73.9594 89.7837H69.8783V93.8648H73.9594V89.7837Z" fill="black"/>
<path d="M82.1216 89.7837H78.0405V93.8648H82.1216V89.7837Z" fill="black"/>
<path d="M90.2837 89.7837H86.2026V93.8648H90.2837V89.7837Z" fill="black"/>
<path d="M98.4459 89.7837H94.3648V93.8648H98.4459V89.7837Z" fill="black"/>
<path d="M102.527 89.7837H98.4459V93.8648H102.527V89.7837Z" fill="black"/>
<path d="M114.77 89.7837H110.689V93.8648H114.77V89.7837Z" fill="black"/>
<path d="M118.851 89.7837H114.77V93.8648H118.851V89.7837Z" fill="black"/>
<path d="M127.013 89.7837H122.932V93.8648H127.013V89.7837Z" fill="black"/>
<path d="M139.257 89.7837H135.176V93.8648H139.257V89.7837Z" fill="black"/>
<path d="M143.338 89.7837H139.257V93.8648H143.338V89.7837Z" fill="black"/>
<path d="M12.7432 93.8648H8.66211V97.9459H12.7432V93.8648Z" fill="black"/>
<path d="M16.8243 93.8648H12.7432V97.9459H16.8243V93.8648Z" fill="black"/>
<path d="M24.9864 93.8648H20.9054V97.9459H24.9864V93.8648Z" fill="black"/>
<path d="M29.0675 93.8648H24.9864V97.9459H29.0675V93.8648Z" fill="black"/>
<path d="M41.3108 93.8648H37.2297V97.9459H41.3108V93.8648Z" fill="black"/>
<path d="M53.554 93.8648H49.4729V97.9459H53.554V93.8648Z" fill="black"/>
<path d="M57.6351 93.8648H53.554V97.9459H57.6351V93.8648Z" fill="black"/>
<path d="M69.8783 93.8648H65.7972V97.9459H69.8783V93.8648Z" fill="black"/>
<path d="M73.9594 93.8648H69.8783V97.9459H73.9594V93.8648Z" fill="black"/>
<path d="M78.0405 93.8648H73.9594V97.9459H78.0405V93.8648Z" fill="black"/>
<path d="M82.1216 93.8648H78.0405V97.9459H82.1216V93.8648Z" fill="black"/>
<path d="M106.608 93.8648H102.527V97.9459H106.608V93.8648Z" fill="black"/>
<path d="M110.689 93.8648H106.608V97.9459H110.689V93.8648Z" fill="black"/>
<path d="M118.851 93.8648H114.77V97.9459H118.851V93.8648Z" fill="black"/>
<path d="M122.932 93.8648H118.851V97.9459H122.932V93.8648Z" fill="black"/>
<path d="M135.176 93.8648H131.095V97.9459H135.176V93.8648Z" fill="black"/>
<path d="M139.257 93.8648H135.176V97.9459H139.257V93.8648Z" fill="black"/>
<path d="M143.338 93.8648H139.257V97.9459H143.338V93.8648Z" fill="black"/>
<path d="M12.7432 97.9459H8.66211V102.027H12.7432V97.9459Z" fill="black"/>
<path d="M16.8243 97.9459H12.7432V102.027H16.8243V97.9459Z" fill="black"/>
<path d="M20.9054 97.9459H16.8243V102.027H20.9054V97.9459Z" fill="black"/>
<path d="M37.2297 97.9459H33.1486V102.027H37.2297V97.9459Z" fill="black"/>
<path d="M41.3108 97.9459H37.2297V102.027H41.3108V97.9459Z" fill="black"/>
<path d="M45.3918 97.9459H41.3108V102.027H45.3918V97.9459Z" fill="black"/>
<path d="M53.554 97.9459H49.4729V102.027H53.554V97.9459Z" fill="black"/>
<path d="M65.7972 97.9459H61.7162V102.027H65.7972V97.9459Z" fill="black"/>
<path d="M73.9594 97.9459H69.8783V102.027H73.9594V97.9459Z" fill="black"/>
<path d="M82.1216 97.9459H78.0405V102.027H82.1216V97.9459Z" fill="black"/>
<path d="M90.2837 97.9459H86.2026V102.027H90.2837V97.9459Z" fill="black"/>
<path d="M94.3648 97.9459H90.2837V102.027H94.3648V97.9459Z" fill="black"/>
<path d="M102.527 97.9459H98.4459V102.027H102.527V97.9459Z" fill="black"/>
<path d="M114.77 97.9459H110.689V102.027H114.77V97.9459Z" fill="black"/>
<path d="M118.851 97.9459H114.77V102.027H118.851V97.9459Z" fill="black"/>
<path d="M131.095 97.9459H127.013V102.027H131.095V97.9459Z" fill="black"/>
<path d="M139.257 97.9459H135.176V102.027H139.257V97.9459Z" fill="black"/>
<path d="M143.338 97.9459H139.257V102.027H143.338V97.9459Z" fill="black"/>
<path d="M12.7432 102.027H8.66211V106.108H12.7432V102.027Z" fill="black"/>
<path d="M20.9054 102.027H16.8243V106.108H20.9054V102.027Z" fill="black"/>
<path d="M24.9864 102.027H20.9054V106.108H24.9864V102.027Z" fill="black"/>
<path d="M41.3108 102.027H37.2297V106.108H41.3108V102.027Z" fill="black"/>
<path d="M49.4729 102.027H45.3918V106.108H49.4729V102.027Z" fill="black"/>
<path d="M53.554 102.027H49.4729V106.108H53.554V102.027Z" fill="black"/>
<path d="M78.0405 102.027H73.9594V106.108H78.0405V102.027Z" fill="black"/>
<path d="M82.1216 102.027H78.0405V106.108H82.1216V102.027Z" fill="black"/>
<path d="M86.2026 102.027H82.1216V106.108H86.2026L86.2026 102.027Z" fill="black"/>
<path d="M90.2837 102.027H86.2026L86.2026 106.108H90.2837V102.027Z" fill="black"/>
<path d="M102.527 102.027H98.4459V106.108H102.527V102.027Z" fill="black"/>
<path d="M131.095 102.027H127.013V106.108H131.095V102.027Z" fill="black"/>
<path d="M135.176 102.027H131.095V106.108H135.176V102.027Z" fill="black"/>
<path d="M12.7432 106.108H8.66211V110.189H12.7432V106.108Z" fill="black"/>
<path d="M20.9054 106.108H16.8243V110.189H20.9054V106.108Z" fill="black"/>
<path d="M24.9864 106.108H20.9054V110.189H24.9864V106.108Z" fill="black"/>
<path d="M29.0675 106.108H24.9864V110.189H29.0675V106.108Z" fill="black"/>
<path d="M37.2297 106.108H33.1486V110.189H37.2297V106.108Z" fill="black"/>
<path d="M45.3918 106.108H41.3108V110.189H45.3918V106.108Z" fill="black"/>
<path d="M57.6351 106.108H53.554V110.189H57.6351V106.108Z" fill="black"/>
<path d="M61.7162 106.108H57.6351V110.189H61.7162V106.108Z" fill="black"/>
<path d="M73.9594 106.108H69.8783V110.189H73.9594V106.108Z" fill="black"/>
<path d="M82.1216 106.108H78.0405V110.189H82.1216V106.108Z" fill="black"/>
<path d="M90.2837 106.108H86.2026L86.2026 110.189H90.2837V106.108Z" fill="black"/>
<path d="M94.3648 106.108H90.2837V110.189H94.3648V106.108Z" fill="black"/>
<path d="M98.4459 106.108H94.3648V110.189H98.4459V106.108Z" fill="black"/>
<path d="M102.527 106.108H98.4459V110.189H102.527V106.108Z" fill="black"/>
<path d="M106.608 106.108H102.527V110.189H106.608V106.108Z" fill="black"/>
<path d="M110.689 106.108H106.608V110.189H110.689V106.108Z" fill="black"/>
<path d="M114.77 106.108H110.689V110.189H114.77V106.108Z" fill="black"/>
<path d="M118.851 106.108H114.77V110.189H118.851V106.108Z" fill="black"/>
<path d="M122.932 106.108H118.851V110.189H122.932V106.108Z" fill="black"/>
<path d="M127.013 106.108H122.932V110.189H127.013V106.108Z" fill="black"/>
<path d="M131.095 106.108H127.013V110.189H131.095V106.108Z" fill="black"/>
<path d="M135.176 106.108H131.095V110.189H135.176V106.108Z" fill="black"/>
<path d="M139.257 106.108H135.176V110.189H139.257V106.108Z" fill="black"/>
<path d="M143.338 106.108H139.257V110.189H143.338V106.108Z" fill="black"/>
<path d="M45.3918 110.189H41.3108V114.27H45.3918V110.189Z" fill="black"/>
<path d="M49.4729 110.189H45.3918V114.27H49.4729V110.189Z" fill="black"/>
<path d="M53.554 110.189H49.4729V114.27H53.554V110.189Z" fill="black"/>
<path d="M61.7162 110.189H57.6351V114.27H61.7162V110.189Z" fill="black"/>
<path d="M69.8783 110.189H65.7972V114.27H69.8783V110.189Z" fill="black"/>
<path d="M73.9594 110.189H69.8783V114.27H73.9594V110.189Z" fill="black"/>
<path d="M78.0405 110.189H73.9594V114.27H78.0405V110.189Z" fill="black"/>
<path d="M90.2837 110.189H86.2026V114.27H90.2837V110.189Z" fill="black"/>
<path d="M94.3648 110.189H90.2837V114.27H94.3648V110.189Z" fill="black"/>
<path d="M102.527 110.189H98.4459V114.27H102.527V110.189Z" fill="black"/>
<path d="M110.689 110.189H106.608V114.27H110.689V110.189Z" fill="black"/>
<path d="M127.013 110.189H122.932V114.27H127.013V110.189Z" fill="black"/>
<path d="M131.095 110.189H127.013V114.27H131.095V110.189Z" fill="black"/>
<path d="M135.176 110.189H131.095V114.27H135.176V110.189Z" fill="black"/>
<path d="M143.338 110.189H139.257V114.27H143.338V110.189Z" fill="black"/>
<path d="M12.7432 114.27H8.66211V118.351H12.7432V114.27Z" fill="black"/>
<path d="M16.8243 114.27H12.7432V118.351H16.8243V114.27Z" fill="black"/>
<path d="M20.9054 114.27H16.8243V118.351H20.9054V114.27Z" fill="black"/>
<path d="M24.9864 114.27H20.9054V118.351H24.9864V114.27Z" fill="black"/>
<path d="M29.0675 114.27H24.9864V118.351H29.0675V114.27Z" fill="black"/>
<path d="M33.1486 114.27H29.0675V118.351H33.1486V114.27Z" fill="black"/>
<path d="M37.2297 114.27H33.1486V118.351H37.2297V114.27Z" fill="black"/>
<path d="M45.3918 114.27H41.3108V118.351H45.3918V114.27Z" fill="black"/>
<path d="M49.4729 114.27H45.3918V118.351H49.4729V114.27Z" fill="black"/>
<path d="M57.6351 114.27H53.554V118.351H57.6351V114.27Z" fill="black"/>
<path d="M61.7162 114.27H57.6351V118.351H61.7162V114.27Z" fill="black"/>
<path d="M78.0405 114.27H73.9594V118.351H78.0405V114.27Z" fill="black"/>
<path d="M94.3648 114.27H90.2837V118.351H94.3648V114.27Z" fill="black"/>
<path d="M110.689 114.27H106.608V118.351H110.689V114.27Z" fill="black"/>
<path d="M118.851 114.27H114.77V118.351H118.851V114.27Z" fill="black"/>
<path d="M127.013 114.27H122.932V118.351H127.013V114.27Z" fill="black"/>
<path d="M131.095 114.27H127.013V118.351H131.095V114.27Z" fill="black"/>
<path d="M135.176 114.27H131.095V118.351H135.176V114.27Z" fill="black"/>
<path d="M139.257 114.27H135.176V118.351H139.257V114.27Z" fill="black"/>
<path d="M143.338 114.27H139.257V118.351H143.338V114.27Z" fill="black"/>
<path d="M12.7432 118.351H8.66211V122.432H12.7432V118.351Z" fill="black"/>
<path d="M37.2297 118.351H33.1486V122.432H37.2297V118.351Z" fill="black"/>
<path d="M45.3918 118.351H41.3108V122.432H45.3918V118.351Z" fill="black"/>
<path d="M49.4729 118.351H45.3918V122.432H49.4729V118.351Z" fill="black"/>
<path d="M65.7972 118.351H61.7162V122.432H65.7972V118.351Z" fill="black"/>
<path d="M69.8783 118.351H65.7972V122.432H69.8783V118.351Z" fill="black"/>
<path d="M78.0405 118.351H73.9594V122.432H78.0405V118.351Z" fill="black"/>
<path d="M94.3648 118.351H90.2837V122.432H94.3648V118.351Z" fill="black"/>
<path d="M110.689 118.351H106.608V122.432H110.689V118.351Z" fill="black"/>
<path d="M127.013 118.351H122.932V122.432H127.013V118.351Z" fill="black"/>
<path d="M131.095 118.351H127.013V122.432H131.095V118.351Z" fill="black"/>
<path d="M135.176 118.351H131.095V122.432H135.176V118.351Z" fill="black"/>
<path d="M143.338 118.351H139.257V122.432H143.338V118.351Z" fill="black"/>
<path d="M12.7432 122.432H8.66211V126.513H12.7432V122.432Z" fill="black"/>
<path d="M20.9054 122.432H16.8243V126.513H20.9054V122.432Z" fill="black"/>
<path d="M24.9864 122.432H20.9054V126.513H24.9864V122.432Z" fill="black"/>
<path d="M29.0675 122.432H24.9864V126.513H29.0675V122.432Z" fill="black"/>
<path d="M37.2297 122.432H33.1486V126.513H37.2297V122.432Z" fill="black"/>
<path d="M45.3918 122.432H41.3108V126.513H45.3918V122.432Z" fill="black"/>
<path d="M53.554 122.432H49.4729V126.513H53.554V122.432Z" fill="black"/>
<path d="M57.6351 122.432H53.554V126.513H57.6351V122.432Z" fill="black"/>
<path d="M61.7162 122.432H57.6351V126.513H61.7162V122.432Z" fill="black"/>
<path d="M73.9594 122.432H69.8783V126.513H73.9594V122.432Z" fill="black"/>
<path d="M78.0405 122.432H73.9594V126.513H78.0405V122.432Z" fill="black"/>
<path d="M90.2837 122.432H86.2026V126.513H90.2837V122.432Z" fill="black"/>
<path d="M94.3648 122.432H90.2837V126.513H94.3648V122.432Z" fill="black"/>
<path d="M102.527 122.432H98.4459V126.513H102.527V122.432Z" fill="black"/>
<path d="M106.608 122.432H102.527V126.513H106.608V122.432Z" fill="black"/>
<path d="M110.689 122.432H106.608V126.513H110.689V122.432Z" fill="black"/>
<path d="M114.77 122.432H110.689V126.513H114.77V122.432Z" fill="black"/>
<path d="M118.851 122.432H114.77V126.513H118.851V122.432Z" fill="black"/>
<path d="M122.932 122.432H118.851V126.513H122.932V122.432Z" fill="black"/>
<path d="M127.013 122.432H122.932V126.513H127.013V122.432Z" fill="black"/>
<path d="M131.095 122.432H127.013V126.513H131.095V122.432Z" fill="black"/>
<path d="M135.176 122.432H131.095V126.513H135.176V122.432Z" fill="black"/>
<path d="M139.257 122.432H135.176V126.513H139.257V122.432Z" fill="black"/>
<path d="M12.7432 126.513H8.66211V130.595H12.7432V126.513Z" fill="black"/>
<path d="M20.9054 126.513H16.8243V130.595H20.9054V126.513Z" fill="black"/>
<path d="M24.9864 126.513H20.9054V130.595H24.9864V126.513Z" fill="black"/>
<path d="M29.0675 126.513H24.9864V130.595H29.0675V126.513Z" fill="black"/>
<path d="M37.2297 126.513H33.1486V130.595H37.2297V126.513Z" fill="black"/>
<path d="M45.3918 126.513H41.3108V130.595H45.3918V126.513Z" fill="black"/>
<path d="M53.554 126.513H49.4729V130.595H53.554V126.513Z" fill="black"/>
<path d="M57.6351 126.513H53.554V130.595H57.6351V126.513Z" fill="black"/>
<path d="M61.7162 126.513H57.6351V130.595H61.7162V126.513Z" fill="black"/>
<path d="M73.9594 126.513H69.8783V130.595H73.9594V126.513Z" fill="black"/>
<path d="M78.0405 126.513H73.9594V130.595H78.0405V126.513Z" fill="black"/>
<path d="M90.2837 126.513H86.2026V130.595H90.2837V126.513Z" fill="black"/>
<path d="M94.3648 126.513H90.2837V130.595H94.3648V126.513Z" fill="black"/>
<path d="M102.527 126.513H98.4459V130.595H102.527V126.513Z" fill="black"/>
<path d="M114.77 126.513H110.689V130.595H114.77V126.513Z" fill="black"/>
<path d="M118.851 126.513H114.77V130.595H118.851V126.513Z" fill="black"/>
<path d="M122.932 126.513H118.851V130.595H122.932V126.513Z" fill="black"/>
<path d="M127.013 126.513H122.932V130.595H127.013V126.513Z" fill="black"/>
<path d="M139.257 126.513H135.176V130.595H139.257V126.513Z" fill="black"/>
<path d="M143.338 126.513H139.257V130.595H143.338V126.513Z" fill="black"/>
<path d="M12.7432 130.595H8.66211V134.676H12.7432V130.595Z" fill="black"/>
<path d="M20.9054 130.595H16.8243V134.676H20.9054V130.595Z" fill="black"/>
<path d="M24.9864 130.595H20.9054V134.676H24.9864V130.595Z" fill="black"/>
<path d="M29.0675 130.595H24.9864V134.676H29.0675V130.595Z" fill="black"/>
<path d="M37.2297 130.595H33.1486V134.676H37.2297V130.595Z" fill="black"/>
<path d="M65.7972 130.595H61.7162V134.676H65.7972V130.595Z" fill="black"/>
<path d="M69.8783 130.595H65.7972V134.676H69.8783V130.595Z" fill="black"/>
<path d="M82.1216 130.595H78.0405V134.676H82.1216V130.595Z" fill="black"/>
<path d="M98.4459 130.595H94.3648V134.676H98.4459V130.595Z" fill="black"/>
<path d="M102.527 130.595H98.4459V134.676H102.527V130.595Z" fill="black"/>
<path d="M110.689 130.595H106.608V134.676H110.689V130.595Z" fill="black"/>
<path d="M114.77 130.595H110.689V134.676H114.77V130.595Z" fill="black"/>
<path d="M118.851 130.595H114.77V134.676H118.851V130.595Z" fill="black"/>
<path d="M131.095 130.595H127.013V134.676H131.095V130.595Z" fill="black"/>
<path d="M12.7432 134.676H8.66211V138.757H12.7432V134.676Z" fill="black"/>
<path d="M37.2297 134.676H33.1486V138.757H37.2297V134.676Z" fill="black"/>
<path d="M49.4729 134.676H45.3918V138.757H49.4729V134.676Z" fill="black"/>
<path d="M53.554 134.676H49.4729V138.757H53.554V134.676Z" fill="black"/>
<path d="M57.6351 134.676H53.554V138.757H57.6351V134.676Z" fill="black"/>
<path d="M61.7162 134.676H57.6351V138.757H61.7162V134.676Z" fill="black"/>
<path d="M69.8783 134.676H65.7972V138.757H69.8783V134.676Z" fill="black"/>
<path d="M78.0405 134.676H73.9594V138.757H78.0405V134.676Z" fill="black"/>
<path d="M90.2837 134.676H86.2026V138.757H90.2837V134.676Z" fill="black"/>
<path d="M110.689 134.676H106.608V138.757H110.689V134.676Z" fill="black"/>
<path d="M114.77 134.676H110.689V138.757H114.77V134.676Z" fill="black"/>
<path d="M118.851 134.676H114.77V138.757H118.851V134.676Z" fill="black"/>
<path d="M127.013 134.676H122.932V138.757H127.013V134.676Z" fill="black"/>
<path d="M131.095 134.676H127.013V138.757H131.095V134.676Z" fill="black"/>
<path d="M12.7432 138.757H8.66211V142.838H12.7432V138.757Z" fill="black"/>
<path d="M16.8243 138.757H12.7432V142.838H16.8243V138.757Z" fill="black"/>
<path d="M20.9054 138.757H16.8243V142.838H20.9054V138.757Z" fill="black"/>
<path d="M24.9864 138.757H20.9054V142.838H24.9864V138.757Z" fill="black"/>
<path d="M29.0675 138.757H24.9864V142.838H29.0675V138.757Z" fill="black"/>
<path d="M33.1486 138.757H29.0675V142.838H33.1486V138.757Z" fill="black"/>
<path d="M37.2297 138.757H33.1486V142.838H37.2297V138.757Z" fill="black"/>
<path d="M45.3918 138.757H41.3108V142.838H45.3918V138.757Z" fill="black"/>
<path d="M61.7162 138.757H57.6351V142.838H61.7162V138.757Z" fill="black"/>
<path d="M78.0405 138.757H73.9594V142.838H78.0405V138.757Z" fill="black"/>
<path d="M94.3648 138.757H90.2837V142.838H94.3648V138.757Z" fill="black"/>
<path d="M106.608 138.757H102.527V142.838H106.608V138.757Z" fill="black"/>
<path d="M114.77 138.757H110.689V142.838H114.77V138.757Z" fill="black"/>
<path d="M122.932 138.757H118.851V142.838H122.932V138.757Z" fill="black"/>
<path d="M127.013 138.757H122.932V142.838H127.013V138.757Z" fill="black"/>
<path d="M143.338 138.757H139.257V142.838H143.338V138.757Z" fill="black"/>
</g>
<defs>
<clipPath id="clip0_1950_12995">
<rect width="151" height="151" fill="white" transform="translate(0.5)"/>
</clipPath>
</defs>
</svg>
