<svg width="289" height="123" viewBox="0 0 289 123" fill="none" xmlns="http://www.w3.org/2000/svg">
<path opacity="0.15" d="M63.1044 92.1407L1.79688 104.471H287.099V1.7207L224.764 22.9557L203.886 28.0342C200.927 28.754 198.101 29.939 195.514 31.5449L182.152 39.8385C180.425 40.9103 178.817 42.162 177.354 43.5727L162.733 57.6713C161.166 59.1827 159.432 60.5112 157.565 61.6315L146.141 68.4856C144.22 69.6384 142.17 70.5628 140.035 71.24L115.164 79.1257L63.1044 92.1407Z" fill="url(#paint0_linear_1950_12806)"/>
<path d="M1.79688 104.471L83.6544 88.0307L135.744 72.7102C147.388 69.2854 157.913 62.8283 166.242 53.9997L173.601 46.1998C182.844 36.4016 194.772 29.5462 207.891 26.4911L237.779 19.5307L287.099 1.7207" stroke="url(#paint1_linear_1950_12806)" stroke-width="2.74" stroke-linecap="round"/>
<path d="M8.46878 118.525L8.45508 119.58H2.12567C2.15308 119.046 2.23528 118.58 2.37228 118.169C2.50928 117.772 2.72848 117.415 3.01618 117.087C3.30388 116.758 3.57788 116.498 3.85188 116.278C4.12587 116.073 4.52318 115.813 5.01638 115.497C5.81098 115.004 6.31788 114.634 6.56448 114.388C7.08508 113.895 7.33168 113.333 7.33168 112.716C7.33168 112.182 7.16728 111.744 6.81108 111.401C6.46858 111.059 6.01648 110.881 5.45478 110.881C4.79718 110.881 4.31768 111.113 4.02998 111.579C3.74228 112.045 3.59158 112.62 3.56418 113.319H2.38598V113.059C2.38598 112.1 2.67368 111.333 3.24908 110.744C3.82447 110.168 4.57798 109.867 5.50958 109.867C6.44118 109.867 7.16728 110.127 7.71528 110.634C8.26328 111.155 8.53728 111.84 8.53728 112.689C8.53728 113.059 8.48248 113.401 8.35918 113.73C8.23588 114.059 8.09888 114.319 7.94818 114.538C7.79748 114.758 7.56458 114.991 7.26318 115.237C6.96177 115.484 6.70148 115.676 6.49598 115.813C6.30418 115.95 6.01648 116.128 5.63287 116.347C4.89308 116.799 4.38618 117.141 4.13958 117.388C3.79708 117.744 3.57788 118.114 3.48198 118.525H8.46878ZM13.2044 109.867C13.7798 109.867 14.2867 109.976 14.6977 110.196C15.1087 110.415 15.4375 110.675 15.6567 110.976C15.8759 111.292 16.0403 111.703 16.1773 112.196C16.3006 112.689 16.3828 113.141 16.4102 113.538C16.4376 113.936 16.4513 114.415 16.4513 114.963C16.4513 115.484 16.4239 115.936 16.3828 116.347C16.3417 116.758 16.2595 117.196 16.1225 117.635C15.9855 118.087 15.8074 118.457 15.5882 118.758C15.3553 119.059 15.0402 119.292 14.6566 119.484C14.2593 119.676 13.7935 119.772 13.2592 119.772C12.6838 119.772 12.1906 119.676 11.7796 119.484C11.3686 119.292 11.0398 119.046 10.8206 118.758C10.5877 118.457 10.4096 118.087 10.2726 117.635C10.1356 117.183 10.0534 116.758 10.0123 116.347C9.98487 115.936 9.95747 115.47 9.95747 114.936C9.95747 114.484 9.97117 114.086 9.99857 113.744C10.026 113.415 10.0671 113.031 10.1356 112.607C10.2041 112.182 10.3137 111.826 10.4507 111.524C10.6014 111.223 10.7932 110.949 11.0261 110.675C11.2453 110.415 11.5467 110.209 11.9166 110.072C12.2865 109.935 12.7112 109.867 13.2044 109.867ZM13.2044 110.908C12.9167 110.908 12.6701 110.963 12.4509 111.072C12.2317 111.182 12.0536 111.292 11.9166 111.429C11.7796 111.566 11.6563 111.771 11.5604 112.045C11.4508 112.319 11.3823 112.538 11.3412 112.716C11.3001 112.908 11.2727 113.168 11.2453 113.511C11.2179 113.853 11.2042 114.1 11.2042 114.237V114.936C11.2042 115.265 11.2042 115.525 11.2179 115.73C11.2179 115.95 11.2453 116.224 11.2864 116.552C11.3138 116.895 11.3823 117.183 11.4782 117.402C11.5604 117.621 11.6837 117.854 11.8207 118.073C11.9577 118.292 12.1358 118.47 12.3824 118.58C12.629 118.69 12.903 118.744 13.2318 118.744C13.5058 118.744 13.7387 118.703 13.9579 118.594C14.1771 118.498 14.3552 118.374 14.4922 118.237C14.6292 118.1 14.7388 117.909 14.8347 117.662C14.9306 117.415 14.9991 117.196 15.0539 117.004C15.095 116.813 15.1224 116.566 15.1498 116.251C15.1772 115.936 15.1909 115.703 15.1909 115.552C15.1909 115.402 15.2046 115.182 15.2046 114.881V114.196C15.2046 114.059 15.1909 113.826 15.1635 113.484C15.1361 113.155 15.095 112.894 15.0539 112.703C15.0128 112.525 14.9443 112.305 14.8484 112.031C14.7388 111.771 14.6292 111.566 14.4922 111.429C14.3552 111.292 14.1771 111.182 13.9579 111.072C13.7387 110.963 13.4784 110.908 13.2044 110.908ZM23.694 118.525L23.6803 119.58H17.3509C17.3783 119.046 17.4605 118.58 17.5975 118.169C17.7345 117.772 17.9537 117.415 18.2414 117.087C18.5291 116.758 18.8031 116.498 19.0771 116.278C19.3511 116.073 19.7484 115.813 20.2416 115.497C21.0362 115.004 21.5431 114.634 21.7897 114.388C22.3103 113.895 22.5569 113.333 22.5569 112.716C22.5569 112.182 22.3925 111.744 22.0363 111.401C21.6938 111.059 21.2417 110.881 20.68 110.881C20.0224 110.881 19.5429 111.113 19.2552 111.579C18.9675 112.045 18.8168 112.62 18.7894 113.319H17.6112V113.059C17.6112 112.1 17.8989 111.333 18.4743 110.744C19.0497 110.168 19.8032 109.867 20.7348 109.867C21.6664 109.867 22.3925 110.127 22.9405 110.634C23.4885 111.155 23.7625 111.84 23.7625 112.689C23.7625 113.059 23.7077 113.401 23.5844 113.73C23.4611 114.059 23.3241 114.319 23.1734 114.538C23.0227 114.758 22.7898 114.991 22.4884 115.237C22.187 115.484 21.9267 115.676 21.7212 115.813C21.5294 115.95 21.2417 116.128 20.8581 116.347C20.1183 116.799 19.6114 117.141 19.3648 117.388C19.0223 117.744 18.8031 118.114 18.7072 118.525H23.694ZM31.3066 118.525L31.2929 119.58H24.9635C24.9909 119.046 25.0731 118.58 25.2101 118.169C25.3471 117.772 25.5663 117.415 25.854 117.087C26.1417 116.758 26.4157 116.498 26.6897 116.278C26.9637 116.073 27.361 115.813 27.8542 115.497C28.6488 115.004 29.1557 114.634 29.4023 114.388C29.9229 113.895 30.1695 113.333 30.1695 112.716C30.1695 112.182 30.0051 111.744 29.6489 111.401C29.3064 111.059 28.8543 110.881 28.2926 110.881C27.635 110.881 27.1555 111.113 26.8678 111.579C26.5801 112.045 26.4294 112.62 26.402 113.319H25.2238V113.059C25.2238 112.1 25.5115 111.333 26.0869 110.744C26.6623 110.168 27.4158 109.867 28.3474 109.867C29.279 109.867 30.0051 110.127 30.5531 110.634C31.1011 111.155 31.3751 111.84 31.3751 112.689C31.3751 113.059 31.3203 113.401 31.197 113.73C31.0737 114.059 30.9367 114.319 30.786 114.538C30.6353 114.758 30.4024 114.991 30.101 115.237C29.7996 115.484 29.5393 115.676 29.3338 115.813C29.142 115.95 28.8543 116.128 28.4707 116.347C27.7309 116.799 27.224 117.141 26.9774 117.388C26.6349 117.744 26.4157 118.114 26.3198 118.525H31.3066Z" fill="#BCBCBC"/>
<path d="M263.321 118.525L263.307 119.58H256.978C257.005 119.046 257.087 118.58 257.224 118.169C257.361 117.772 257.58 117.415 257.868 117.087C258.156 116.758 258.43 116.498 258.704 116.278C258.978 116.073 259.375 115.813 259.868 115.497C260.663 115.004 261.17 114.634 261.416 114.388C261.937 113.895 262.184 113.333 262.184 112.716C262.184 112.182 262.019 111.744 261.663 111.401C261.32 111.059 260.868 110.881 260.307 110.881C259.649 110.881 259.17 111.113 258.882 111.579C258.594 112.045 258.443 112.62 258.416 113.319H257.238V113.059C257.238 112.1 257.526 111.333 258.101 110.744C258.676 110.168 259.43 109.867 260.361 109.867C261.293 109.867 262.019 110.127 262.567 110.634C263.115 111.155 263.389 111.84 263.389 112.689C263.389 113.059 263.334 113.401 263.211 113.73C263.088 114.059 262.951 114.319 262.8 114.538C262.649 114.758 262.416 114.991 262.115 115.237C261.814 115.484 261.553 115.676 261.348 115.813C261.156 115.95 260.868 116.128 260.485 116.347C259.745 116.799 259.238 117.141 258.991 117.388C258.649 117.744 258.43 118.114 258.334 118.525H263.321ZM268.056 109.867C268.632 109.867 269.139 109.976 269.55 110.196C269.961 110.415 270.289 110.675 270.509 110.976C270.728 111.292 270.892 111.703 271.029 112.196C271.152 112.689 271.235 113.141 271.262 113.538C271.289 113.936 271.303 114.415 271.303 114.963C271.303 115.484 271.276 115.936 271.235 116.347C271.194 116.758 271.111 117.196 270.974 117.635C270.837 118.087 270.659 118.457 270.44 118.758C270.207 119.059 269.892 119.292 269.508 119.484C269.111 119.676 268.645 119.772 268.111 119.772C267.536 119.772 267.042 119.676 266.631 119.484C266.22 119.292 265.892 119.046 265.672 118.758C265.44 118.457 265.261 118.087 265.124 117.635C264.987 117.183 264.905 116.758 264.864 116.347C264.837 115.936 264.809 115.47 264.809 114.936C264.809 114.484 264.823 114.086 264.85 113.744C264.878 113.415 264.919 113.031 264.987 112.607C265.056 112.182 265.166 111.826 265.303 111.524C265.453 111.223 265.645 110.949 265.878 110.675C266.097 110.415 266.399 110.209 266.768 110.072C267.138 109.935 267.563 109.867 268.056 109.867ZM268.056 110.908C267.769 110.908 267.522 110.963 267.303 111.072C267.084 111.182 266.905 111.292 266.768 111.429C266.631 111.566 266.508 111.771 266.412 112.045C266.303 112.319 266.234 112.538 266.193 112.716C266.152 112.908 266.125 113.168 266.097 113.511C266.07 113.853 266.056 114.1 266.056 114.237V114.936C266.056 115.265 266.056 115.525 266.07 115.73C266.07 115.95 266.097 116.224 266.138 116.552C266.166 116.895 266.234 117.183 266.33 117.402C266.412 117.621 266.536 117.854 266.673 118.073C266.81 118.292 266.988 118.47 267.234 118.58C267.481 118.69 267.755 118.744 268.084 118.744C268.358 118.744 268.591 118.703 268.81 118.594C269.029 118.498 269.207 118.374 269.344 118.237C269.481 118.1 269.591 117.909 269.687 117.662C269.782 117.415 269.851 117.196 269.906 117.004C269.947 116.813 269.974 116.566 270.002 116.251C270.029 115.936 270.043 115.703 270.043 115.552C270.043 115.402 270.056 115.182 270.056 114.881V114.196C270.056 114.059 270.043 113.826 270.015 113.484C269.988 113.155 269.947 112.894 269.906 112.703C269.865 112.525 269.796 112.305 269.7 112.031C269.591 111.771 269.481 111.566 269.344 111.429C269.207 111.292 269.029 111.182 268.81 111.072C268.591 110.963 268.33 110.908 268.056 110.908ZM278.546 118.525L278.532 119.58H272.203C272.23 119.046 272.312 118.58 272.449 118.169C272.586 117.772 272.806 117.415 273.093 117.087C273.381 116.758 273.655 116.498 273.929 116.278C274.203 116.073 274.6 115.813 275.093 115.497C275.888 115.004 276.395 114.634 276.642 114.388C277.162 113.895 277.409 113.333 277.409 112.716C277.409 112.182 277.244 111.744 276.888 111.401C276.546 111.059 276.094 110.881 275.532 110.881C274.874 110.881 274.395 111.113 274.107 111.579C273.819 112.045 273.669 112.62 273.641 113.319H272.463V113.059C272.463 112.1 272.751 111.333 273.326 110.744C273.902 110.168 274.655 109.867 275.587 109.867C276.518 109.867 277.244 110.127 277.792 110.634C278.34 111.155 278.614 111.84 278.614 112.689C278.614 113.059 278.56 113.401 278.436 113.73C278.313 114.059 278.176 114.319 278.025 114.538C277.875 114.758 277.642 114.991 277.34 115.237C277.039 115.484 276.779 115.676 276.573 115.813C276.381 115.95 276.094 116.128 275.71 116.347C274.97 116.799 274.463 117.141 274.217 117.388C273.874 117.744 273.655 118.114 273.559 118.525H278.546ZM280.117 113.018C280.144 112.018 280.418 111.25 280.952 110.702C281.487 110.154 282.24 109.88 283.199 109.88C284.049 109.88 284.747 110.113 285.268 110.579C285.789 111.045 286.049 111.648 286.049 112.415C286.049 112.867 285.926 113.278 285.693 113.634C285.46 113.99 285.131 114.264 284.72 114.443C285.268 114.566 285.693 114.84 286.021 115.265C286.337 115.676 286.501 116.182 286.501 116.785C286.501 117.676 286.2 118.402 285.569 118.95C284.939 119.498 284.131 119.786 283.144 119.786C282.158 119.786 281.363 119.512 280.774 118.964C280.185 118.416 279.898 117.689 279.898 116.772V116.593H281.048C281.076 117.278 281.268 117.813 281.637 118.196C281.994 118.566 282.501 118.758 283.158 118.758C283.775 118.758 284.282 118.58 284.665 118.224C285.049 117.868 285.241 117.415 285.241 116.854C285.241 116.292 285.049 115.84 284.665 115.497C284.282 115.169 283.747 114.991 283.09 114.991C282.925 114.991 282.72 115.018 282.459 115.045V114.059C282.596 114.073 282.72 114.073 282.857 114.073C283.46 114.073 283.939 113.936 284.295 113.648C284.651 113.36 284.816 112.963 284.816 112.47C284.816 112.004 284.665 111.62 284.364 111.319C284.062 111.031 283.651 110.881 283.144 110.881C282.555 110.881 282.103 111.072 281.774 111.442C281.446 111.812 281.268 112.333 281.254 113.018H280.117Z" fill="#BCBCBC"/>
<defs>
<linearGradient id="paint0_linear_1950_12806" x1="-7.228" y1="72.7522" x2="306.967" y2="87.5948" gradientUnits="userSpaceOnUse">
<stop stop-color="#A55FD1"/>
<stop offset="0.5" stop-color="#37B7FF"/>
<stop offset="1" stop-color="#F722EC"/>
</linearGradient>
<linearGradient id="paint1_linear_1950_12806" x1="-7.228" y1="72.7522" x2="306.967" y2="87.5948" gradientUnits="userSpaceOnUse">
<stop stop-color="#A55FD1"/>
<stop offset="0.5" stop-color="#37B7FF"/>
<stop offset="1" stop-color="#F722EC"/>
</linearGradient>
</defs>
</svg>
