<svg width="289" height="123" viewBox="0 0 289 123" fill="none" xmlns="http://www.w3.org/2000/svg">
<path opacity="0.15" d="M57.638 69.7713L2 104.75H287.302V2L257.134 46.0159C248.618 58.4419 231.958 62.1941 218.936 54.6189L203.723 45.7685C193.793 39.9919 181.379 40.6759 172.144 47.5085L133.915 75.7932C124.847 82.5023 112.695 83.2932 102.833 77.8159L86.9204 68.9771C77.7454 63.8809 66.5233 64.1853 57.638 69.7713Z" fill="url(#paint0_linear_1950_12931)"/>
<path d="M2 104.75L57.638 69.7713C66.5233 64.1853 77.7454 63.8809 86.9204 68.9771L102.833 77.8159C112.695 83.2932 124.847 82.5023 133.915 75.7932L172.144 47.5085C181.379 40.6759 193.793 39.9919 203.723 45.7685L218.936 54.6189C231.958 62.1941 248.618 58.4419 257.134 46.0159L287.302 2" stroke="url(#paint1_linear_1950_12931)" stroke-width="2.74" stroke-linecap="round"/>
<path d="M8.6719 118.804L8.6582 119.859H2.3288C2.3562 119.325 2.4384 118.859 2.5754 118.448C2.7124 118.051 2.9316 117.695 3.2193 117.366C3.507 117.037 3.781 116.777 4.055 116.558C4.329 116.352 4.7263 116.092 5.2195 115.777C6.0141 115.284 6.521 114.914 6.7676 114.667C7.2882 114.174 7.5348 113.612 7.5348 112.996C7.5348 112.461 7.3704 112.023 7.0142 111.68C6.6717 111.338 6.2196 111.16 5.6579 111.16C5.0003 111.16 4.5208 111.393 4.2331 111.859C3.9454 112.324 3.7947 112.9 3.7673 113.598H2.5891V113.338C2.5891 112.379 2.8768 111.612 3.4522 111.023C4.0276 110.447 4.7811 110.146 5.7127 110.146C6.6443 110.146 7.3704 110.406 7.9184 110.913C8.4664 111.434 8.7404 112.119 8.7404 112.968C8.7404 113.338 8.6856 113.681 8.5623 114.009C8.439 114.338 8.302 114.599 8.1513 114.818C8.0006 115.037 7.7677 115.27 7.4663 115.516C7.1649 115.763 6.9046 115.955 6.6991 116.092C6.5073 116.229 6.2196 116.407 5.836 116.626C5.0962 117.078 4.5893 117.421 4.3427 117.667C4.0002 118.024 3.781 118.393 3.6851 118.804H8.6719ZM13.4075 110.146C13.9829 110.146 14.4898 110.256 14.9008 110.475C15.3118 110.694 15.6406 110.954 15.8598 111.256C16.079 111.571 16.2434 111.982 16.3804 112.475C16.5037 112.968 16.5859 113.42 16.6133 113.818C16.6407 114.215 16.6544 114.694 16.6544 115.242C16.6544 115.763 16.627 116.215 16.5859 116.626C16.5448 117.037 16.4626 117.476 16.3256 117.914C16.1886 118.366 16.0105 118.736 15.7913 119.037C15.5584 119.339 15.2433 119.572 14.8597 119.763C14.4624 119.955 13.9966 120.051 13.4623 120.051C12.8869 120.051 12.3937 119.955 11.9827 119.763C11.5717 119.572 11.2429 119.325 11.0237 119.037C10.7908 118.736 10.6127 118.366 10.4757 117.914C10.3387 117.462 10.2565 117.037 10.2154 116.626C10.188 116.215 10.1606 115.749 10.1606 115.215C10.1606 114.763 10.1743 114.366 10.2017 114.023C10.2291 113.694 10.2702 113.311 10.3387 112.886C10.4072 112.461 10.5168 112.105 10.6538 111.804C10.8045 111.502 10.9963 111.228 11.2292 110.954C11.4484 110.694 11.7498 110.489 12.1197 110.352C12.4896 110.215 12.9143 110.146 13.4075 110.146ZM13.4075 111.187C13.1198 111.187 12.8732 111.242 12.654 111.352C12.4348 111.461 12.2567 111.571 12.1197 111.708C11.9827 111.845 11.8594 112.05 11.7635 112.324C11.6539 112.598 11.5854 112.818 11.5443 112.996C11.5032 113.187 11.4758 113.448 11.4484 113.79C11.421 114.133 11.4073 114.379 11.4073 114.516V115.215C11.4073 115.544 11.4073 115.804 11.421 116.01C11.421 116.229 11.4484 116.503 11.4895 116.832C11.5169 117.174 11.5854 117.462 11.6813 117.681C11.7635 117.9 11.8868 118.133 12.0238 118.352C12.1608 118.572 12.3389 118.75 12.5855 118.859C12.8321 118.969 13.1061 119.024 13.4349 119.024C13.7089 119.024 13.9418 118.983 14.161 118.873C14.3802 118.777 14.5583 118.654 14.6953 118.517C14.8323 118.38 14.9419 118.188 15.0378 117.941C15.1337 117.695 15.2022 117.476 15.257 117.284C15.2981 117.092 15.3255 116.845 15.3529 116.53C15.3803 116.215 15.394 115.982 15.394 115.832C15.394 115.681 15.4077 115.462 15.4077 115.16V114.475C15.4077 114.338 15.394 114.105 15.3666 113.763C15.3392 113.434 15.2981 113.174 15.257 112.982C15.2159 112.804 15.1474 112.585 15.0515 112.311C14.9419 112.05 14.8323 111.845 14.6953 111.708C14.5583 111.571 14.3802 111.461 14.161 111.352C13.9418 111.242 13.6815 111.187 13.4075 111.187ZM23.8971 118.804L23.8834 119.859H17.554C17.5814 119.325 17.6636 118.859 17.8006 118.448C17.9376 118.051 18.1568 117.695 18.4445 117.366C18.7322 117.037 19.0062 116.777 19.2802 116.558C19.5542 116.352 19.9515 116.092 20.4447 115.777C21.2393 115.284 21.7462 114.914 21.9928 114.667C22.5134 114.174 22.76 113.612 22.76 112.996C22.76 112.461 22.5956 112.023 22.2394 111.68C21.8969 111.338 21.4448 111.16 20.8831 111.16C20.2255 111.16 19.746 111.393 19.4583 111.859C19.1706 112.324 19.0199 112.9 18.9925 113.598H17.8143V113.338C17.8143 112.379 18.102 111.612 18.6774 111.023C19.2528 110.447 20.0063 110.146 20.9379 110.146C21.8695 110.146 22.5956 110.406 23.1436 110.913C23.6916 111.434 23.9656 112.119 23.9656 112.968C23.9656 113.338 23.9108 113.681 23.7875 114.009C23.6642 114.338 23.5272 114.599 23.3765 114.818C23.2258 115.037 22.9929 115.27 22.6915 115.516C22.3901 115.763 22.1298 115.955 21.9243 116.092C21.7325 116.229 21.4448 116.407 21.0612 116.626C20.3214 117.078 19.8145 117.421 19.5679 117.667C19.2254 118.024 19.0062 118.393 18.9103 118.804H23.8971ZM31.5097 118.804L31.496 119.859H25.1666C25.194 119.325 25.2762 118.859 25.4132 118.448C25.5502 118.051 25.7694 117.695 26.0571 117.366C26.3448 117.037 26.6188 116.777 26.8928 116.558C27.1668 116.352 27.5641 116.092 28.0573 115.777C28.8519 115.284 29.3588 114.914 29.6054 114.667C30.126 114.174 30.3726 113.612 30.3726 112.996C30.3726 112.461 30.2082 112.023 29.852 111.68C29.5095 111.338 29.0574 111.16 28.4957 111.16C27.8381 111.16 27.3586 111.393 27.0709 111.859C26.7832 112.324 26.6325 112.9 26.6051 113.598H25.4269V113.338C25.4269 112.379 25.7146 111.612 26.29 111.023C26.8654 110.447 27.6189 110.146 28.5505 110.146C29.4821 110.146 30.2082 110.406 30.7562 110.913C31.3042 111.434 31.5782 112.119 31.5782 112.968C31.5782 113.338 31.5234 113.681 31.4001 114.009C31.2768 114.338 31.1398 114.599 30.9891 114.818C30.8384 115.037 30.6055 115.27 30.3041 115.516C30.0027 115.763 29.7424 115.955 29.5369 116.092C29.3451 116.229 29.0574 116.407 28.6738 116.626C27.934 117.078 27.4271 117.421 27.1805 117.667C26.838 118.024 26.6188 118.393 26.5229 118.804H31.5097Z" fill="#BCBCBC"/>
<path d="M263.524 118.804L263.51 119.859H257.181C257.208 119.325 257.29 118.859 257.427 118.448C257.564 118.051 257.783 117.695 258.071 117.366C258.359 117.037 258.633 116.777 258.907 116.558C259.181 116.352 259.578 116.092 260.071 115.777C260.866 115.284 261.373 114.914 261.619 114.667C262.14 114.174 262.387 113.612 262.387 112.996C262.387 112.461 262.222 112.023 261.866 111.68C261.524 111.338 261.071 111.16 260.51 111.16C259.852 111.16 259.373 111.393 259.085 111.859C258.797 112.324 258.647 112.9 258.619 113.598H257.441V113.338C257.441 112.379 257.729 111.612 258.304 111.023C258.879 110.447 259.633 110.146 260.565 110.146C261.496 110.146 262.222 110.406 262.77 110.913C263.318 111.434 263.592 112.119 263.592 112.968C263.592 113.338 263.537 113.681 263.414 114.009C263.291 114.338 263.154 114.599 263.003 114.818C262.852 115.037 262.62 115.27 262.318 115.516C262.017 115.763 261.756 115.955 261.551 116.092C261.359 116.229 261.071 116.407 260.688 116.626C259.948 117.078 259.441 117.421 259.195 117.667C258.852 118.024 258.633 118.393 258.537 118.804H263.524ZM268.259 110.146C268.835 110.146 269.342 110.256 269.753 110.475C270.164 110.694 270.492 110.954 270.712 111.256C270.931 111.571 271.095 111.982 271.232 112.475C271.356 112.968 271.438 113.42 271.465 113.818C271.493 114.215 271.506 114.694 271.506 115.242C271.506 115.763 271.479 116.215 271.438 116.626C271.397 117.037 271.314 117.476 271.177 117.914C271.04 118.366 270.862 118.736 270.643 119.037C270.41 119.339 270.095 119.572 269.712 119.763C269.314 119.955 268.848 120.051 268.314 120.051C267.739 120.051 267.246 119.955 266.835 119.763C266.424 119.572 266.095 119.325 265.876 119.037C265.643 118.736 265.465 118.366 265.328 117.914C265.191 117.462 265.108 117.037 265.067 116.626C265.04 116.215 265.012 115.749 265.012 115.215C265.012 114.763 265.026 114.366 265.054 114.023C265.081 113.694 265.122 113.311 265.191 112.886C265.259 112.461 265.369 112.105 265.506 111.804C265.656 111.502 265.848 111.228 266.081 110.954C266.3 110.694 266.602 110.489 266.972 110.352C267.341 110.215 267.766 110.146 268.259 110.146ZM268.259 111.187C267.972 111.187 267.725 111.242 267.506 111.352C267.287 111.461 267.109 111.571 266.972 111.708C266.835 111.845 266.711 112.05 266.615 112.324C266.506 112.598 266.437 112.818 266.396 112.996C266.355 113.187 266.328 113.448 266.3 113.79C266.273 114.133 266.259 114.379 266.259 114.516V115.215C266.259 115.544 266.259 115.804 266.273 116.01C266.273 116.229 266.3 116.503 266.341 116.832C266.369 117.174 266.437 117.462 266.533 117.681C266.615 117.9 266.739 118.133 266.876 118.352C267.013 118.572 267.191 118.75 267.437 118.859C267.684 118.969 267.958 119.024 268.287 119.024C268.561 119.024 268.794 118.983 269.013 118.873C269.232 118.777 269.41 118.654 269.547 118.517C269.684 118.38 269.794 118.188 269.89 117.941C269.986 117.695 270.054 117.476 270.109 117.284C270.15 117.092 270.177 116.845 270.205 116.53C270.232 116.215 270.246 115.982 270.246 115.832C270.246 115.681 270.26 115.462 270.26 115.16V114.475C270.26 114.338 270.246 114.105 270.218 113.763C270.191 113.434 270.15 113.174 270.109 112.982C270.068 112.804 269.999 112.585 269.903 112.311C269.794 112.05 269.684 111.845 269.547 111.708C269.41 111.571 269.232 111.461 269.013 111.352C268.794 111.242 268.533 111.187 268.259 111.187ZM278.749 118.804L278.735 119.859H272.406C272.433 119.325 272.515 118.859 272.652 118.448C272.789 118.051 273.009 117.695 273.296 117.366C273.584 117.037 273.858 116.777 274.132 116.558C274.406 116.352 274.803 116.092 275.297 115.777C276.091 115.284 276.598 114.914 276.845 114.667C277.365 114.174 277.612 113.612 277.612 112.996C277.612 112.461 277.447 112.023 277.091 111.68C276.749 111.338 276.297 111.16 275.735 111.16C275.077 111.16 274.598 111.393 274.31 111.859C274.022 112.324 273.872 112.9 273.844 113.598H272.666V113.338C272.666 112.379 272.954 111.612 273.529 111.023C274.105 110.447 274.858 110.146 275.79 110.146C276.721 110.146 277.447 110.406 277.995 110.913C278.543 111.434 278.817 112.119 278.817 112.968C278.817 113.338 278.763 113.681 278.639 114.009C278.516 114.338 278.379 114.599 278.228 114.818C278.078 115.037 277.845 115.27 277.543 115.516C277.242 115.763 276.982 115.955 276.776 116.092C276.584 116.229 276.297 116.407 275.913 116.626C275.173 117.078 274.666 117.421 274.42 117.667C274.077 118.024 273.858 118.393 273.762 118.804H278.749ZM280.32 113.297C280.347 112.297 280.621 111.53 281.156 110.982C281.69 110.434 282.443 110.16 283.402 110.16C284.252 110.16 284.95 110.393 285.471 110.858C285.992 111.324 286.252 111.927 286.252 112.694C286.252 113.146 286.129 113.557 285.896 113.914C285.663 114.27 285.334 114.544 284.923 114.722C285.471 114.845 285.896 115.119 286.225 115.544C286.54 115.955 286.704 116.462 286.704 117.065C286.704 117.955 286.403 118.681 285.772 119.229C285.142 119.777 284.334 120.065 283.348 120.065C282.361 120.065 281.567 119.791 280.977 119.243C280.388 118.695 280.101 117.969 280.101 117.051V116.873H281.251C281.279 117.558 281.471 118.092 281.841 118.476C282.197 118.846 282.704 119.037 283.361 119.037C283.978 119.037 284.485 118.859 284.868 118.503C285.252 118.147 285.444 117.695 285.444 117.133C285.444 116.571 285.252 116.119 284.868 115.777C284.485 115.448 283.95 115.27 283.293 115.27C283.128 115.27 282.923 115.297 282.663 115.325V114.338C282.8 114.352 282.923 114.352 283.06 114.352C283.663 114.352 284.142 114.215 284.498 113.927C284.855 113.64 285.019 113.242 285.019 112.749C285.019 112.283 284.868 111.9 284.567 111.598C284.265 111.311 283.854 111.16 283.348 111.16C282.758 111.16 282.306 111.352 281.978 111.722C281.649 112.091 281.471 112.612 281.457 113.297H280.32Z" fill="#BCBCBC"/>
<defs>
<linearGradient id="paint0_linear_1950_12931" x1="-7.02488" y1="73.0315" x2="307.171" y2="87.8741" gradientUnits="userSpaceOnUse">
<stop stop-color="#A55FD1"/>
<stop offset="0.5" stop-color="#37B7FF"/>
<stop offset="1" stop-color="#F722EC"/>
</linearGradient>
<linearGradient id="paint1_linear_1950_12931" x1="-7.02488" y1="73.0315" x2="307.171" y2="87.8741" gradientUnits="userSpaceOnUse">
<stop stop-color="#A55FD1"/>
<stop offset="0.5" stop-color="#37B7FF"/>
<stop offset="1" stop-color="#F722EC"/>
</linearGradient>
</defs>
</svg>
