<svg width="289" height="123" viewBox="0 0 289 123" fill="none" xmlns="http://www.w3.org/2000/svg">
<path opacity="0.15" d="M68.8014 62.0906L1.39062 104.471H286.693V1.7207L233.15 10.7521C230.949 11.1232 228.8 11.7491 226.744 12.617L199.013 24.3257L179.213 34.8079C176.897 36.034 174.425 36.938 171.864 37.4947L146.311 43.0497C144.914 43.3533 143.497 43.5524 142.071 43.6454L116.761 45.2961C114.069 45.4716 111.415 46.0248 108.878 46.9395L74.36 59.3807C72.4156 60.0815 70.5512 60.9906 68.8014 62.0906Z" fill="url(#paint0_linear_1950_12770)"/>
<path d="M1.39062 104.471L61.0626 66.9559C67.9664 62.6156 75.2065 58.8347 82.7135 55.6494L89.9031 52.5987C104.045 46.5981 119.25 43.5057 134.612 43.5057V43.5057C155.674 43.5057 176.327 37.6946 194.299 26.7121L195.955 25.6998C209.285 17.5537 224.062 12.0578 239.476 9.51385L286.693 1.7207" stroke="url(#paint1_linear_1950_12770)" stroke-width="2.74" stroke-linecap="round"/>
<path d="M8.06253 118.525L8.04883 119.58H1.71942C1.74683 119.046 1.82903 118.58 1.96603 118.169C2.10303 117.772 2.32223 117.415 2.60993 117.087C2.89763 116.758 3.17163 116.498 3.44563 116.278C3.71962 116.073 4.11693 115.813 4.61013 115.497C5.40473 115.004 5.91163 114.634 6.15823 114.388C6.67883 113.895 6.92543 113.333 6.92543 112.716C6.92543 112.182 6.76103 111.744 6.40483 111.401C6.06233 111.059 5.61023 110.881 5.04853 110.881C4.39093 110.881 3.91143 111.113 3.62373 111.579C3.33603 112.045 3.18533 112.62 3.15793 113.319H1.97973V113.059C1.97973 112.1 2.26743 111.333 2.84283 110.744C3.41822 110.168 4.17173 109.867 5.10333 109.867C6.03493 109.867 6.76103 110.127 7.30903 110.634C7.85703 111.155 8.13103 111.84 8.13103 112.689C8.13103 113.059 8.07623 113.401 7.95293 113.73C7.82963 114.059 7.69263 114.319 7.54193 114.538C7.39123 114.758 7.15833 114.991 6.85693 115.237C6.55552 115.484 6.29523 115.676 6.08973 115.813C5.89793 115.95 5.61023 116.128 5.22662 116.347C4.48683 116.799 3.97993 117.141 3.73333 117.388C3.39083 117.744 3.17163 118.114 3.07573 118.525H8.06253ZM12.7981 109.867C13.3735 109.867 13.8804 109.976 14.2914 110.196C14.7024 110.415 15.0312 110.675 15.2504 110.976C15.4696 111.292 15.634 111.703 15.771 112.196C15.8943 112.689 15.9765 113.141 16.0039 113.538C16.0313 113.936 16.045 114.415 16.045 114.963C16.045 115.484 16.0176 115.936 15.9765 116.347C15.9354 116.758 15.8532 117.196 15.7162 117.635C15.5792 118.087 15.4011 118.457 15.1819 118.758C14.949 119.059 14.6339 119.292 14.2503 119.484C13.853 119.676 13.3872 119.772 12.8529 119.772C12.2775 119.772 11.7843 119.676 11.3733 119.484C10.9623 119.292 10.6335 119.046 10.4143 118.758C10.1814 118.457 10.0033 118.087 9.86632 117.635C9.72932 117.183 9.64712 116.758 9.60602 116.347C9.57862 115.936 9.55122 115.47 9.55122 114.936C9.55122 114.484 9.56492 114.086 9.59232 113.744C9.61972 113.415 9.66082 113.031 9.72932 112.607C9.79782 112.182 9.90742 111.826 10.0444 111.524C10.1951 111.223 10.3869 110.949 10.6198 110.675C10.839 110.415 11.1404 110.209 11.5103 110.072C11.8802 109.935 12.3049 109.867 12.7981 109.867ZM12.7981 110.908C12.5104 110.908 12.2638 110.963 12.0446 111.072C11.8254 111.182 11.6473 111.292 11.5103 111.429C11.3733 111.566 11.25 111.771 11.1541 112.045C11.0445 112.319 10.976 112.538 10.9349 112.716C10.8938 112.908 10.8664 113.168 10.839 113.511C10.8116 113.853 10.7979 114.1 10.7979 114.237V114.936C10.7979 115.265 10.7979 115.525 10.8116 115.73C10.8116 115.95 10.839 116.224 10.8801 116.552C10.9075 116.895 10.976 117.183 11.0719 117.402C11.1541 117.621 11.2774 117.854 11.4144 118.073C11.5514 118.292 11.7295 118.47 11.9761 118.58C12.2227 118.69 12.4967 118.744 12.8255 118.744C13.0995 118.744 13.3324 118.703 13.5516 118.594C13.7708 118.498 13.9489 118.374 14.0859 118.237C14.2229 118.1 14.3325 117.909 14.4284 117.662C14.5243 117.415 14.5928 117.196 14.6476 117.004C14.6887 116.813 14.7161 116.566 14.7435 116.251C14.7709 115.936 14.7846 115.703 14.7846 115.552C14.7846 115.402 14.7983 115.182 14.7983 114.881V114.196C14.7983 114.059 14.7846 113.826 14.7572 113.484C14.7298 113.155 14.6887 112.894 14.6476 112.703C14.6065 112.525 14.538 112.305 14.4421 112.031C14.3325 111.771 14.2229 111.566 14.0859 111.429C13.9489 111.292 13.7708 111.182 13.5516 111.072C13.3324 110.963 13.0721 110.908 12.7981 110.908ZM23.2877 118.525L23.274 119.58H16.9446C16.972 119.046 17.0542 118.58 17.1912 118.169C17.3282 117.772 17.5474 117.415 17.8351 117.087C18.1228 116.758 18.3968 116.498 18.6708 116.278C18.9448 116.073 19.3421 115.813 19.8353 115.497C20.6299 115.004 21.1368 114.634 21.3834 114.388C21.904 113.895 22.1506 113.333 22.1506 112.716C22.1506 112.182 21.9862 111.744 21.63 111.401C21.2875 111.059 20.8354 110.881 20.2737 110.881C19.6161 110.881 19.1366 111.113 18.8489 111.579C18.5612 112.045 18.4105 112.62 18.3831 113.319H17.2049V113.059C17.2049 112.1 17.4926 111.333 18.068 110.744C18.6434 110.168 19.3969 109.867 20.3285 109.867C21.2601 109.867 21.9862 110.127 22.5342 110.634C23.0822 111.155 23.3562 111.84 23.3562 112.689C23.3562 113.059 23.3014 113.401 23.1781 113.73C23.0548 114.059 22.9178 114.319 22.7671 114.538C22.6164 114.758 22.3835 114.991 22.0821 115.237C21.7807 115.484 21.5204 115.676 21.3149 115.813C21.1231 115.95 20.8354 116.128 20.4518 116.347C19.712 116.799 19.2051 117.141 18.9585 117.388C18.616 117.744 18.3968 118.114 18.3009 118.525H23.2877ZM30.9003 118.525L30.8866 119.58H24.5572C24.5846 119.046 24.6668 118.58 24.8038 118.169C24.9408 117.772 25.16 117.415 25.4477 117.087C25.7354 116.758 26.0094 116.498 26.2834 116.278C26.5574 116.073 26.9547 115.813 27.4479 115.497C28.2425 115.004 28.7494 114.634 28.996 114.388C29.5166 113.895 29.7632 113.333 29.7632 112.716C29.7632 112.182 29.5988 111.744 29.2426 111.401C28.9001 111.059 28.448 110.881 27.8863 110.881C27.2287 110.881 26.7492 111.113 26.4615 111.579C26.1738 112.045 26.0231 112.62 25.9957 113.319H24.8175V113.059C24.8175 112.1 25.1052 111.333 25.6806 110.744C26.256 110.168 27.0095 109.867 27.9411 109.867C28.8727 109.867 29.5988 110.127 30.1468 110.634C30.6948 111.155 30.9688 111.84 30.9688 112.689C30.9688 113.059 30.914 113.401 30.7907 113.73C30.6674 114.059 30.5304 114.319 30.3797 114.538C30.229 114.758 29.9961 114.991 29.6947 115.237C29.3933 115.484 29.133 115.676 28.9275 115.813C28.7357 115.95 28.448 116.128 28.0644 116.347C27.3246 116.799 26.8177 117.141 26.5711 117.388C26.2286 117.744 26.0094 118.114 25.9135 118.525H30.9003Z" fill="#BCBCBC"/>
<path d="M262.914 118.525L262.901 119.58H256.571C256.599 119.046 256.681 118.58 256.818 118.169C256.955 117.772 257.174 117.415 257.462 117.087C257.749 116.758 258.023 116.498 258.297 116.278C258.571 116.073 258.969 115.813 259.462 115.497C260.257 115.004 260.763 114.634 261.01 114.388C261.531 113.895 261.777 113.333 261.777 112.716C261.777 112.182 261.613 111.744 261.257 111.401C260.914 111.059 260.462 110.881 259.9 110.881C259.243 110.881 258.763 111.113 258.476 111.579C258.188 112.045 258.037 112.62 258.01 113.319H256.832V113.059C256.832 112.1 257.119 111.333 257.695 110.744C258.27 110.168 259.024 109.867 259.955 109.867C260.887 109.867 261.613 110.127 262.161 110.634C262.709 111.155 262.983 111.84 262.983 112.689C262.983 113.059 262.928 113.401 262.805 113.73C262.681 114.059 262.544 114.319 262.394 114.538C262.243 114.758 262.01 114.991 261.709 115.237C261.407 115.484 261.147 115.676 260.942 115.813C260.75 115.95 260.462 116.128 260.078 116.347C259.339 116.799 258.832 117.141 258.585 117.388C258.243 117.744 258.023 118.114 257.928 118.525H262.914ZM267.65 109.867C268.225 109.867 268.732 109.976 269.143 110.196C269.554 110.415 269.883 110.675 270.102 110.976C270.321 111.292 270.486 111.703 270.623 112.196C270.746 112.689 270.828 113.141 270.856 113.538C270.883 113.936 270.897 114.415 270.897 114.963C270.897 115.484 270.869 115.936 270.828 116.347C270.787 116.758 270.705 117.196 270.568 117.635C270.431 118.087 270.253 118.457 270.034 118.758C269.801 119.059 269.486 119.292 269.102 119.484C268.705 119.676 268.239 119.772 267.705 119.772C267.129 119.772 266.636 119.676 266.225 119.484C265.814 119.292 265.485 119.046 265.266 118.758C265.033 118.457 264.855 118.087 264.718 117.635C264.581 117.183 264.499 116.758 264.458 116.347C264.43 115.936 264.403 115.47 264.403 114.936C264.403 114.484 264.417 114.086 264.444 113.744C264.472 113.415 264.513 113.031 264.581 112.607C264.65 112.182 264.759 111.826 264.896 111.524C265.047 111.223 265.239 110.949 265.472 110.675C265.691 110.415 265.992 110.209 266.362 110.072C266.732 109.935 267.157 109.867 267.65 109.867ZM267.65 110.908C267.362 110.908 267.116 110.963 266.896 111.072C266.677 111.182 266.499 111.292 266.362 111.429C266.225 111.566 266.102 111.771 266.006 112.045C265.896 112.319 265.828 112.538 265.787 112.716C265.746 112.908 265.718 113.168 265.691 113.511C265.663 113.853 265.65 114.1 265.65 114.237V114.936C265.65 115.265 265.65 115.525 265.663 115.73C265.663 115.95 265.691 116.224 265.732 116.552C265.759 116.895 265.828 117.183 265.924 117.402C266.006 117.621 266.129 117.854 266.266 118.073C266.403 118.292 266.581 118.47 266.828 118.58C267.075 118.69 267.349 118.744 267.677 118.744C267.951 118.744 268.184 118.703 268.403 118.594C268.623 118.498 268.801 118.374 268.938 118.237C269.075 118.1 269.184 117.909 269.28 117.662C269.376 117.415 269.445 117.196 269.499 117.004C269.541 116.813 269.568 116.566 269.595 116.251C269.623 115.936 269.636 115.703 269.636 115.552C269.636 115.402 269.65 115.182 269.65 114.881V114.196C269.65 114.059 269.636 113.826 269.609 113.484C269.582 113.155 269.541 112.894 269.499 112.703C269.458 112.525 269.39 112.305 269.294 112.031C269.184 111.771 269.075 111.566 268.938 111.429C268.801 111.292 268.623 111.182 268.403 111.072C268.184 110.963 267.924 110.908 267.65 110.908ZM278.14 118.525L278.126 119.58H271.796C271.824 119.046 271.906 118.58 272.043 118.169C272.18 117.772 272.399 117.415 272.687 117.087C272.975 116.758 273.249 116.498 273.523 116.278C273.797 116.073 274.194 115.813 274.687 115.497C275.482 115.004 275.989 114.634 276.235 114.388C276.756 113.895 277.002 113.333 277.002 112.716C277.002 112.182 276.838 111.744 276.482 111.401C276.139 111.059 275.687 110.881 275.126 110.881C274.468 110.881 273.988 111.113 273.701 111.579C273.413 112.045 273.262 112.62 273.235 113.319H272.057V113.059C272.057 112.1 272.344 111.333 272.92 110.744C273.495 110.168 274.249 109.867 275.18 109.867C276.112 109.867 276.838 110.127 277.386 110.634C277.934 111.155 278.208 111.84 278.208 112.689C278.208 113.059 278.153 113.401 278.03 113.73C277.907 114.059 277.77 114.319 277.619 114.538C277.468 114.758 277.235 114.991 276.934 115.237C276.633 115.484 276.372 115.676 276.167 115.813C275.975 115.95 275.687 116.128 275.304 116.347C274.564 116.799 274.057 117.141 273.81 117.388C273.468 117.744 273.249 118.114 273.153 118.525H278.14ZM279.71 113.018C279.738 112.018 280.012 111.25 280.546 110.702C281.08 110.154 281.834 109.88 282.793 109.88C283.642 109.88 284.341 110.113 284.862 110.579C285.382 111.045 285.643 111.648 285.643 112.415C285.643 112.867 285.519 113.278 285.286 113.634C285.053 113.99 284.725 114.264 284.314 114.443C284.862 114.566 285.286 114.84 285.615 115.265C285.93 115.676 286.095 116.182 286.095 116.785C286.095 117.676 285.793 118.402 285.163 118.95C284.533 119.498 283.725 119.786 282.738 119.786C281.752 119.786 280.957 119.512 280.368 118.964C279.779 118.416 279.491 117.689 279.491 116.772V116.593H280.642C280.669 117.278 280.861 117.813 281.231 118.196C281.587 118.566 282.094 118.758 282.752 118.758C283.368 118.758 283.875 118.58 284.259 118.224C284.642 117.868 284.834 117.415 284.834 116.854C284.834 116.292 284.642 115.84 284.259 115.497C283.875 115.169 283.341 114.991 282.683 114.991C282.519 114.991 282.313 115.018 282.053 115.045V114.059C282.19 114.073 282.313 114.073 282.45 114.073C283.053 114.073 283.533 113.936 283.889 113.648C284.245 113.36 284.41 112.963 284.41 112.47C284.41 112.004 284.259 111.62 283.957 111.319C283.656 111.031 283.245 110.881 282.738 110.881C282.149 110.881 281.697 111.072 281.368 111.442C281.039 111.812 280.861 112.333 280.848 113.018H279.71Z" fill="#BCBCBC"/>
<defs>
<linearGradient id="paint0_linear_1950_12770" x1="-7.63425" y1="72.7522" x2="306.561" y2="87.5948" gradientUnits="userSpaceOnUse">
<stop stop-color="#A55FD1"/>
<stop offset="0.5" stop-color="#37B7FF"/>
<stop offset="1" stop-color="#F722EC"/>
</linearGradient>
<linearGradient id="paint1_linear_1950_12770" x1="-7.63425" y1="72.7522" x2="306.561" y2="87.5948" gradientUnits="userSpaceOnUse">
<stop stop-color="#A55FD1"/>
<stop offset="0.5" stop-color="#37B7FF"/>
<stop offset="1" stop-color="#F722EC"/>
</linearGradient>
</defs>
</svg>
