<svg width="28" height="28" viewBox="0 0 28 28" fill="none" xmlns="http://www.w3.org/2000/svg">
<rect x="0.539062" y="0.599609" width="27.4" height="27.4" rx="6.08889" fill="#34AADF"/>
<path d="M4.45324 14.6089C4.45324 14.6089 12.9361 11 15.8781 9.72921C17.0059 9.22094 20.8305 7.59434 20.8305 7.59434C20.8305 7.59434 22.5958 6.88276 22.4486 8.61095C22.3996 9.3226 22.0073 11.8132 21.6151 14.5072C21.0266 18.3195 20.3892 22.4875 20.3892 22.4875C20.3892 22.4875 20.2911 23.6566 19.4576 23.8599C18.624 24.0632 17.251 23.1484 17.0059 22.945C16.8097 22.7925 13.3283 20.5052 12.0535 19.3869C11.7102 19.0819 11.318 18.472 12.1025 17.7604C13.8677 16.083 15.9761 13.999 17.251 12.6774C17.8395 12.0674 18.4278 10.6442 15.9761 12.3724C12.4948 14.863 9.06241 17.2012 9.06241 17.2012C9.06241 17.2012 8.27785 17.7095 6.80686 17.252C5.33579 16.7946 3.61961 16.1846 3.61961 16.1846C3.61961 16.1846 2.44287 15.4222 4.45324 14.6089Z" fill="white"/>
</svg>
