<svg width="24" height="23" viewBox="0 0 24 23" fill="none" xmlns="http://www.w3.org/2000/svg">
<path d="M9.76005 21.3273C10.1732 21.7731 10.2765 21.513 10.2765 21.3273V15.7557C10.2765 15.3099 10.6208 15.1986 10.793 15.1987C14.7182 15.1987 20.6933 16.781 22.1554 18.5416C22.4136 18.8526 22.6719 18.8526 22.6719 18.5416C22.6719 8.79131 11.8259 7.39841 10.793 7.39841C10.2765 7.39841 10.2765 7.02697 10.2765 6.84125M9.76005 21.3273C9.34687 20.8816 3.73454 14.8271 0.980013 11.8556M9.76005 21.3273L0.980013 11.8556M0.980013 11.8556C0.807856 11.6699 0.566835 11.187 0.980013 10.7413M0.980013 10.7413C1.39319 10.2955 7.00553 4.24107 9.76005 1.26955M0.980013 10.7413L9.76005 1.26955M9.76005 1.26955C9.93221 1.08383 10.2765 0.823819 10.2765 1.26955M10.2765 1.26955C10.2765 1.71528 10.2765 5.16974 10.2765 6.84125M10.2765 1.26955V6.84125" stroke="#BCBCBC" stroke-width="1.37"/>
</svg>
