<svg width="16" height="17" viewBox="0 0 16 17" fill="none" xmlns="http://www.w3.org/2000/svg">
<path d="M11.2436 11.2836L15.1395 15.1961M7.08269 1.49647C6.34472 1.48783 5.61239 1.6264 4.92811 1.90414C4.24383 2.18189 3.62121 2.59329 3.09633 3.11451C2.57144 3.63573 2.15472 4.25642 1.87031 4.9406C1.5859 5.62478 1.43945 6.35887 1.43945 7.10032C1.43945 7.84177 1.5859 8.57585 1.87031 9.26004C2.15472 9.94422 2.57144 10.5649 3.09633 11.0861C3.62121 11.6073 4.24383 12.0187 4.92811 12.2965C5.61239 12.5742 6.34472 12.7128 7.08269 12.7042C8.55077 12.687 9.95291 12.089 10.985 11.0399C12.0171 9.99089 12.5959 8.57534 12.5959 7.10032C12.5959 5.6253 12.0171 4.20975 10.985 3.16069C9.95291 2.11163 8.55077 1.51366 7.08269 1.49647Z" stroke="#BCBCBC" stroke-width="1.644" stroke-linecap="round"/>
</svg>
