<svg width="23" height="23" viewBox="0 0 23 23" fill="none" xmlns="http://www.w3.org/2000/svg">
<path d="M3.9843 11.6475L0.169217 1.83876C-0.0963103 1.15608 0.569467 0.50322 1.22808 0.735279L1.33187 0.779399L21.5634 10.8936C22.1459 11.1848 22.1823 11.9822 21.6726 12.3367L21.5634 12.4014L1.33187 22.5156C0.676615 22.8432 -0.0352009 22.2408 0.134894 21.5637L0.169217 21.4562L3.9843 11.6475L0.169217 1.83876L3.9843 11.6475ZM2.53267 3.26438L5.46511 10.804L12.9143 10.8046C13.3411 10.8046 13.6938 11.1217 13.7496 11.5331L13.7573 11.6475C13.7573 12.0742 13.4402 12.4268 13.0287 12.4827L12.9143 12.4904L5.46511 12.4897L2.53267 20.0306L19.3014 11.6475L2.53267 3.26438Z" fill="#BCBCBC"/>
</svg>
