<svg width="23" height="23" viewBox="0 0 23 23" fill="none" xmlns="http://www.w3.org/2000/svg">
<path d="M11.6006 0.6875C17.6537 0.6875 22.5606 5.59446 22.5606 11.6475C22.5606 17.7005 17.6537 22.6075 11.6006 22.6075C5.54758 22.6075 0.640625 17.7005 0.640625 11.6475C0.640625 5.59446 5.54758 0.6875 11.6006 0.6875ZM11.6006 2.33125C6.4554 2.33125 2.28437 6.50228 2.28437 11.6475C2.28437 16.7927 6.4554 20.9638 11.6006 20.9638C16.7459 20.9638 20.9169 16.7927 20.9169 11.6475C20.9169 6.50228 16.7459 2.33125 11.6006 2.33125ZM7.72329 14.6975C8.6538 15.8785 10.0685 16.5805 11.6006 16.5805C13.1306 16.5805 14.5437 15.8804 15.4743 14.7021C15.7557 14.3459 16.2725 14.2852 16.6287 14.5665C16.9849 14.8479 17.0456 15.3647 16.7643 15.7209C15.5251 17.2898 13.639 18.2242 11.6006 18.2242C9.55948 18.2242 7.67111 17.2873 6.43216 15.7148C6.15124 15.3583 6.21255 14.8415 6.56908 14.5606C6.92562 14.2797 7.44238 14.341 7.72329 14.6975ZM8.31363 8.08676C9.06971 8.08676 9.68263 8.69968 9.68263 9.45576C9.68263 10.2118 9.06971 10.8248 8.31363 10.8248C7.55754 10.8248 6.94462 10.2118 6.94462 9.45576C6.94462 8.69968 7.55754 8.08676 8.31363 8.08676ZM14.8886 8.08676C15.6447 8.08676 16.2576 8.69968 16.2576 9.45576C16.2576 10.2118 15.6447 10.8248 14.8886 10.8248C14.1325 10.8248 13.5196 10.2118 13.5196 9.45576C13.5196 8.69968 14.1325 8.08676 14.8886 8.08676Z" fill="#BCBCBC"/>
</svg>
