<svg width="20" height="21" viewBox="0 0 20 21" fill="none" xmlns="http://www.w3.org/2000/svg">
<path d="M16.8783 8.75503C16.7884 8.46485 16.5423 8.25894 16.2505 8.23191L12.2924 7.85665L10.7275 4.03419C10.6117 3.75355 10.3488 3.57227 10.057 3.57227C9.76518 3.57227 9.50232 3.75353 9.38651 4.03497L7.82157 7.85665L3.8627 8.23191C3.57166 8.25974 3.32632 8.46485 3.23566 8.75503C3.14575 9.04442 3.2288 9.36242 3.44899 9.56277L6.44099 12.3008L5.55871 16.3562C5.49395 16.6544 5.60517 16.9629 5.84212 17.1417C5.96936 17.2379 6.11872 17.2864 6.26881 17.2864C6.39834 17.2864 6.5271 17.2499 6.64291 17.1783L10.057 15.0484L13.4703 17.1783C13.7202 17.3349 14.0349 17.3206 14.2711 17.1417C14.5088 16.9621 14.6193 16.6536 14.5545 16.3562L13.6722 12.3008L16.665 9.56357C16.8844 9.36243 16.969 9.04521 16.8783 8.75503Z" fill="#FFB543"/>
</svg>
