<svg width="14" height="14" viewBox="0 0 14 14" fill="none" xmlns="http://www.w3.org/2000/svg">
<path d="M7 0C10.8656 0 14 3.13444 14 7C14 10.8656 10.8656 14 7 14C3.13444 14 0 10.8675 0 7C0 3.1325 3.13444 0 7 0Z" fill="#26A17B"/>
<path d="M7.98304 6.22069V5.17846H10.365V3.5918H3.88026V5.17846H6.2622V6.22069C4.32748 6.31013 2.87109 6.69319 2.87109 7.15208C2.87109 7.61096 4.32748 7.99402 6.2622 8.08346V11.4182H7.98498V8.08346C9.91776 7.99402 11.3703 7.61096 11.3703 7.15208C11.3683 6.69319 9.91582 6.31013 7.98304 6.22069ZM7.98498 7.80152C7.93637 7.80346 7.68748 7.81902 7.13137 7.81902C6.68609 7.81902 6.37498 7.80735 6.26415 7.80152V7.80346C4.55498 7.72763 3.27748 7.43013 3.27748 7.0743C3.27748 6.71846 4.55304 6.42096 6.26415 6.34513V7.50402C6.37693 7.5118 6.69582 7.53124 7.13915 7.53124C7.66998 7.53124 7.93637 7.50985 7.98693 7.50402V6.34124C9.69415 6.41708 10.9678 6.71458 10.9678 7.07041C10.9639 7.42624 9.69026 7.72374 7.98498 7.80152Z" fill="white"/>
</svg>
