<svg width="17" height="18" viewBox="0 0 17 18" fill="none" xmlns="http://www.w3.org/2000/svg">
<path d="M2.67578 4.69141L3.58124 15.1058C3.62786 15.6427 3.87412 16.1427 4.2714 16.5068C4.66867 16.871 5.18806 17.073 5.727 17.0729H10.9294C11.4683 17.073 11.9877 16.871 12.385 16.5068C12.7822 16.1427 13.0285 15.6427 13.0751 15.1058L13.9806 4.69141" stroke="#FF656C" stroke-width="1.37" stroke-linecap="round" stroke-linejoin="round"/>
<path d="M5.90234 4.42172V3.61423C5.90234 3.04314 6.12921 2.49544 6.53303 2.09162C6.93685 1.6878 7.48455 1.46094 8.05564 1.46094H8.59396C9.16505 1.46094 9.71275 1.6878 10.1166 2.09162C10.5204 2.49544 10.7473 3.04314 10.7473 3.61423V4.42172" stroke="#FF656C" stroke-width="1.37" stroke-linecap="round" stroke-linejoin="round"/>
<path d="M0.785156 4.68945H15.8582" stroke="#FF656C" stroke-width="1.37" stroke-linecap="round" stroke-linejoin="round"/>
</svg>
