<svg width="20" height="14" viewBox="0 0 20 14" fill="none" xmlns="http://www.w3.org/2000/svg">
<path d="M7.65698 12.7555H5.85698C5.30543 12.7555 4.75928 12.6468 4.24971 12.4358C3.74014 12.2247 3.27714 11.9153 2.88713 11.5253C2.49713 11.1353 2.18776 10.6723 1.97669 10.1627C1.76562 9.65317 1.65698 9.10702 1.65698 8.55547C1.65698 8.00392 1.76562 7.45777 1.97669 6.9482C2.18776 6.43863 2.49713 5.97563 2.88713 5.58562C3.27714 5.19561 3.74014 4.88624 4.24971 4.67517C4.75928 4.4641 5.30543 4.35547 5.85698 4.35547C6.20898 4.35547 6.55858 4.39787 6.89938 4.48347" stroke="white" stroke-width="1.37143" stroke-linecap="round" stroke-linejoin="round"/>
<path d="M6.45703 6.75586C6.45703 5.80515 6.68295 4.86805 7.11617 4.02178C7.54939 3.17551 8.17751 2.4443 8.94877 1.88841C9.72003 1.33252 10.6123 0.967858 11.5522 0.824482C12.492 0.681107 13.4525 0.763119 14.3544 1.06376C15.2563 1.3644 16.0739 1.87507 16.7397 2.55367C17.4056 3.23227 17.9006 4.05939 18.1841 4.96685C18.4676 5.87432 18.5314 6.83616 18.3702 7.77311C18.209 8.71006 17.8275 9.59529 17.257 10.3559" stroke="white" stroke-width="1.37143" stroke-linecap="round" stroke-linejoin="round"/>
<path d="M9.31494 9.29826L11.8573 6.75586L14.3997 9.29826" stroke="white" stroke-width="1.37143" stroke-linecap="round" stroke-linejoin="round"/>
<path d="M11.8569 12.7559V6.75586" stroke="white" stroke-width="1.37143" stroke-linecap="round" stroke-linejoin="round"/>
</svg>
