<svg width="19" height="15" viewBox="0 0 19 15" fill="none" xmlns="http://www.w3.org/2000/svg">
<path d="M7.47324 13.3229H5.67512C5.12414 13.3229 4.57856 13.2144 4.06952 13.0035C3.56048 12.7927 3.09796 12.4836 2.70836 12.094C2.31876 11.7044 2.00972 11.2419 1.79887 10.7329C1.58802 10.2238 1.47949 9.67824 1.47949 9.12727C1.47949 8.57629 1.58802 8.03071 1.79887 7.52167C2.00972 7.01263 2.31876 6.55011 2.70836 6.16051C3.09796 5.77091 3.56048 5.46186 4.06952 5.25101C4.57856 5.04016 5.12414 4.93164 5.67512 4.93164C6.02675 4.93164 6.37599 4.974 6.71643 5.05951" stroke="#06A8ED" stroke-width="1.37" stroke-linecap="round" stroke-linejoin="round"/>
<path d="M6.27441 7.32969C6.27441 6.37997 6.5001 5.44384 6.93287 4.59845C7.36564 3.75306 7.9931 3.02262 8.76356 2.46731C9.53401 1.91199 10.4254 1.54772 11.3643 1.40449C12.3031 1.26126 13.2626 1.34319 14.1636 1.64352C15.0645 1.94385 15.8813 2.45398 16.5464 3.13187C17.2116 3.80977 17.7061 4.63602 17.9893 5.54255C18.2725 6.44907 18.3362 7.40991 18.1751 8.34588C18.0141 9.28185 17.633 10.1662 17.0632 10.9259" stroke="#06A8ED" stroke-width="1.37" stroke-linecap="round" stroke-linejoin="round"/>
<path d="M9.12939 9.86983L11.6691 7.33008L14.2089 9.86983" stroke="#06A8ED" stroke-width="1.37" stroke-linecap="round" stroke-linejoin="round"/>
<path d="M11.6689 13.3238V7.33008" stroke="#06A8ED" stroke-width="1.37" stroke-linecap="round" stroke-linejoin="round"/>
</svg>
