<svg width="33" height="25" viewBox="0 0 33 25" fill="none" xmlns="http://www.w3.org/2000/svg">
<g clip-path="url(#clip0_1942_11610)">
<path fill-rule="evenodd" clip-rule="evenodd" d="M0.549561 0.728516H45.4513V2.52078H0.549561V0.728516ZM0.549561 4.31299H45.4513V6.10526H0.549561V4.31299ZM0.549561 7.89291H45.4513V9.68968H0.549561V7.89291ZM0.549561 11.4774H45.4513V13.2696H0.549561V11.4774ZM0.549561 15.0619H45.4513V16.8541H0.549561V15.0619ZM0.549561 18.6418H45.4513V20.434H0.549561V18.6418ZM0.549561 22.2263H45.4513V24.0185H0.549561V22.2263Z" fill="#BD3D44"/>
<path fill-rule="evenodd" clip-rule="evenodd" d="M0.549561 2.52148H45.4513V4.3137H0.549561V2.52148ZM0.549561 6.10591H45.4513V7.89361H0.549561V6.10591ZM0.549561 9.68588H45.4513V11.4781H0.549561V9.68588ZM0.549561 13.2704H45.4513V15.0626H0.549561V13.2704ZM0.549561 16.8548H45.4513V18.647H0.549561V16.8548ZM0.549561 20.4347H45.4513V22.227H0.549561V20.4347Z" fill="white"/>
<path fill-rule="evenodd" clip-rule="evenodd" d="M0.549561 0.728516H18.5093V13.2696H0.549561V0.728516Z" fill="#192F5D"/>
<path fill-rule="evenodd" clip-rule="evenodd" d="M2.04512 1.26758L2.21128 1.76332H2.7375L2.3128 2.06812L2.47439 2.56847L2.04512 2.25915L1.62047 2.56391L1.78201 2.06812L1.35278 1.76332H1.88821L2.04512 1.26758ZM5.04073 1.26758L5.20227 1.76332H5.73307L5.30379 2.06812L5.46538 2.56847L5.04073 2.25915L4.61146 2.56391L4.773 2.06812L4.34835 1.76332H4.87457L5.04073 1.26758ZM8.03172 1.26758L8.19789 1.76336H8.71948L8.29483 2.06817L8.45632 2.56852L8.02709 2.2592L7.60245 2.56396L7.76398 2.06817L7.33471 1.76336H7.86555L8.03172 1.26758ZM11.0273 1.26758L11.1888 1.76336H11.7197L11.2904 2.06817L11.4566 2.56852L11.0273 2.2592L10.5981 2.56396L10.7642 2.06817L10.335 1.76336H10.8612L11.0273 1.26758ZM14.0183 1.26758L14.1845 1.76336H14.7107L14.286 2.06817L14.4476 2.56852L14.0183 2.2592L13.5936 2.56396L13.7552 2.06817L13.3306 1.76336H13.8567L14.0183 1.26758ZM17.0139 1.26758L17.1754 1.76336H17.7063L17.277 2.06817L17.4432 2.56852L17.0139 2.2592L16.5846 2.56396L16.7508 2.06817L16.3216 1.76336H16.8524L17.0139 1.26758ZM3.54524 2.52296L3.70678 3.01884H4.23757L3.8083 3.32355L3.96526 3.81943L3.54982 3.51463L3.12059 3.81939L3.27287 3.3236L2.85748 3.01879H3.3837L3.54524 2.52296ZM6.53623 2.52296L6.70239 3.01884H7.22856L6.79929 3.32355L6.9655 3.81943L6.53618 3.51463L6.10695 3.81939L6.27312 3.3236L5.84384 3.01879H6.37464L6.53623 2.52296ZM9.53184 2.52296L9.69333 3.01884H10.2242L9.7949 3.32355L9.95644 3.81943L9.53179 3.51463L9.10257 3.81939L9.26411 3.32365L8.83946 3.01884H9.36568L9.53184 2.52296ZM12.5228 2.52296L12.689 3.01884H13.2152L12.7859 3.32355L12.9521 3.81943L12.5228 3.51463L12.0981 3.81939L12.2597 3.3236L11.8304 3.01879H12.3659L12.5228 2.52296ZM15.5184 2.52296L15.6799 3.01884H16.2108L15.7815 3.32355L15.943 3.81943L15.5184 3.51463L15.0891 3.81939L15.2507 3.3236L14.8261 3.01879H15.3522L15.5184 2.52296ZM2.04512 3.77402L2.21128 4.27893H2.7375L2.3128 4.58369L2.47439 5.07952L2.04512 4.7702L1.62047 5.07952L1.78201 4.57912L1.35278 4.27441H1.88821L2.04512 3.77402ZM5.04073 3.77402L5.20227 4.27427H5.73307L5.30379 4.57903L5.46538 5.07491L5.04073 4.76554L4.61146 5.07486L4.773 4.57452L4.34835 4.26976H4.87457L5.04073 3.77402ZM8.03172 3.77402L8.19789 4.27437H8.71948L8.29483 4.57912L8.45632 5.07501L8.02709 4.76564L7.60245 5.07496L7.76398 4.57461L7.33471 4.26985H7.86555L8.03172 3.77402ZM11.0273 3.77402L11.1888 4.27437H11.7197L11.2904 4.57912L11.4566 5.07501L11.0273 4.76564L10.5981 5.07496L10.7642 4.57461L10.335 4.26985H10.8612L11.0273 3.77402ZM14.0183 3.77402L14.1845 4.27437H14.7107L14.286 4.57908L14.4476 5.07496L14.0183 4.76559L13.5936 5.07491L13.7552 4.57456L13.3306 4.2698H13.8567L14.0183 3.77402ZM17.0139 3.77402L17.1754 4.27437H17.7063L17.277 4.57912L17.4432 5.07501L17.0139 4.76564L16.5846 5.07496L16.7508 4.57461L16.3216 4.26985H16.8524L17.0139 3.77402ZM3.54524 5.02945L3.70678 5.52528H4.23757L3.8083 5.82999L3.96989 6.33039L3.54524 6.02107L3.11596 6.32583L3.2775 5.83004L2.85286 5.52528H3.37912L3.54524 5.02945ZM6.53623 5.02945L6.70239 5.52528H7.22856L6.79929 5.82999L6.9655 6.33039L6.53618 6.02107L6.10695 6.32583L6.27312 5.83004L5.84384 5.52528H6.37464L6.53623 5.02945ZM9.53184 5.02945L9.69333 5.52528H10.2242L9.7949 5.82999L9.95644 6.33039L9.53179 6.02107L9.10257 6.32583L9.26411 5.83004L8.83946 5.52528H9.36568L9.53184 5.02945ZM12.5228 5.02945L12.689 5.52528H13.2152L12.7905 5.82999L12.9521 6.33039L12.5228 6.02107L12.0981 6.32583L12.2597 5.83004L11.8304 5.52528H12.3659L12.5228 5.02945ZM15.5184 5.02945L15.6799 5.52528H16.2108L15.7815 5.82999L15.943 6.33039L15.5184 6.02107L15.0891 6.32583L15.2507 5.83004L14.8261 5.52528H15.3522L15.5184 5.02945ZM2.04512 6.28492L2.21128 6.78076H2.7375L2.3128 7.08547L2.47439 7.58586L2.04512 7.27654L1.62047 7.5813L1.78201 7.08552L1.35278 6.78076H1.88821L2.04512 6.28492ZM5.04073 6.28492L5.20227 6.78076H5.73307L5.30379 7.08547L5.46538 7.58135L5.04073 7.27654L4.61146 7.5813L4.773 7.08552L4.34835 6.78076H4.87457L5.04073 6.28492ZM8.03172 6.28492L8.19789 6.78076H8.71948L8.29483 7.08547L8.45632 7.58586L8.02709 7.27654L7.60245 7.5813L7.76398 7.08552L7.33471 6.78076H7.86555L8.03172 6.28492ZM11.0273 6.28492L11.1888 6.78076H11.7197L11.2904 7.08547L11.4566 7.58586L11.0273 7.27654L10.5981 7.5813L10.7642 7.08552L10.335 6.78076H10.8612L11.0273 6.28492ZM14.0183 6.28492L14.1845 6.78076H14.7107L14.286 7.08547L14.4476 7.58586L14.0183 7.27654L13.5936 7.5813L13.7552 7.08552L13.3306 6.78076H13.8567L14.0183 6.28492ZM17.0139 6.28492L17.1754 6.78076H17.7063L17.277 7.08547L17.4432 7.58586L17.0139 7.27654L16.5846 7.5813L16.7508 7.08552L16.3216 6.78076H16.8524L17.0139 6.28492ZM3.54524 7.5404L3.70678 8.03623H4.23757L3.8083 8.34095L3.96989 8.83683L3.54524 8.52751L3.11596 8.83683L3.2775 8.33643L2.85286 8.03167H3.37912L3.54524 7.5404ZM6.53623 7.5404L6.70239 8.03623H7.22856L6.79929 8.34095L6.9655 8.83683L6.53618 8.52751L6.10695 8.83683L6.27312 8.33643L5.84384 8.03167H6.37464L6.53623 7.5404ZM9.53184 7.5404L9.69333 8.03623H10.2242L9.7949 8.34095L9.95644 8.83683L9.53179 8.52751L9.10257 8.83683L9.26411 8.33643L8.83946 8.03167H9.36568L9.53184 7.5404ZM12.5228 7.5404L12.689 8.03623H13.2152L12.7905 8.34095L12.9521 8.83683L12.5228 8.52751L12.0981 8.83683L12.2597 8.33643L11.8304 8.03167H12.3659L12.5228 7.5404ZM15.5184 7.5404L15.6799 8.03623H16.2108L15.7815 8.34095L15.943 8.83683L15.5184 8.52751L15.0891 8.83683L15.2507 8.33643L14.8261 8.03167H15.3522L15.5184 7.5404ZM2.04512 8.79132L2.21128 9.29171H2.7375L2.3128 9.59642L2.47439 10.0877L2.04512 9.78298L1.62047 10.0877L1.78201 9.59191L1.35278 9.28715H1.88821L2.04512 8.79132ZM5.04073 8.79132L5.20227 9.29171H5.73307L5.30379 9.59642L5.47001 10.0877L5.04068 9.78298L4.61146 10.0877L4.77762 9.59191L4.34835 9.28715H4.87457L5.04073 8.79132ZM8.03172 8.79132L8.19789 9.29171H8.71948L8.29483 9.59642L8.45632 10.0877L8.02709 9.78298L7.60245 10.0877L7.76398 9.59191L7.33471 9.28715H7.86555L8.03172 8.79132ZM11.0273 8.79132L11.1888 9.29171H11.7197L11.2904 9.59642L11.4566 10.0877L11.0273 9.78298L10.5981 10.0877L10.7642 9.59191L10.335 9.28715H10.8612L11.0273 8.79132ZM14.0183 8.79132L14.1845 9.29171H14.7107L14.286 9.59642L14.4476 10.0877L14.0183 9.78298L13.5936 10.0877L13.7552 9.59191L13.3306 9.28715H13.8567L14.0183 8.79132ZM17.0139 8.79132L17.1754 9.29171H17.7063L17.277 9.59642L17.4432 10.0877L17.0139 9.78298L16.5846 10.0877L16.7508 9.59191L16.3216 9.28715H16.8524L17.0139 8.79132ZM3.54524 10.0468L3.70678 10.5426H4.23757L3.8083 10.8474L3.96989 11.3478L3.54524 11.0385L3.11596 11.3432L3.2775 10.8474L2.85286 10.5426H3.37912L3.54524 10.0468ZM6.53623 10.0468L6.70239 10.5426H7.22856L6.79929 10.8474L6.9655 11.3478L6.53618 11.0385L6.10695 11.3432L6.27312 10.8474L5.84384 10.5426H6.37464L6.53623 10.0468ZM9.53184 10.0468L9.69333 10.5426H10.2242L9.7949 10.8474L9.95644 11.3478L9.53179 11.0385L9.10257 11.3432L9.26411 10.8474L8.83946 10.5426H9.36568L9.53184 10.0468ZM12.5228 10.0468L12.689 10.5426H13.2152L12.7905 10.8474L12.9521 11.3478L12.5228 11.0385L12.0981 11.3432L12.2597 10.8474L11.8304 10.5426H12.3659L12.5228 10.0468ZM15.5184 10.0468L15.6799 10.5426H16.2108L15.7815 10.8474L15.943 11.3478L15.5184 11.0385L15.0891 11.3432L15.2507 10.8474L14.8261 10.5426H15.3522L15.5184 10.0468ZM2.04512 11.3023L2.21128 11.7981H2.7375L2.3128 12.1029L2.47439 12.5987L2.04512 12.2939L1.62047 12.5986L1.78201 12.0983L1.35278 11.7935H1.88821L2.04512 11.3023ZM5.04073 11.3023L5.20227 11.7981H5.73307L5.30379 12.1029L5.47001 12.5987L5.04068 12.2939L4.61146 12.5986L4.77762 12.0983L4.34835 11.7935H4.87457L5.04073 11.3023ZM8.03172 11.3023L8.19789 11.7981H8.71948L8.30404 12.1029L8.46557 12.5987L8.0363 12.2939L7.61165 12.5986L7.77324 12.0983L7.34397 11.7935H7.87476L8.03172 11.3023ZM11.0273 11.3023L11.1888 11.7981H11.7197L11.2904 12.1029L11.4566 12.5987L11.0273 12.2939L10.5981 12.5986L10.7642 12.0983L10.335 11.7935H10.8612L11.0273 11.3023ZM14.0183 11.3023L14.1845 11.7981H14.7107L14.286 12.1029L14.4476 12.5987L14.0183 12.2939L13.5936 12.5986L13.7552 12.0983L13.3306 11.7935H13.8567L14.0183 11.3023ZM17.0139 11.3023L17.1754 11.7981H17.7063L17.277 12.1029L17.4432 12.5987L17.0139 12.2939L16.5846 12.5986L16.7508 12.0983L16.3216 11.7935H16.8524L17.0139 11.3023Z" fill="white"/>
</g>
<defs>
<clipPath id="clip0_1942_11610">
<rect width="31.51" height="23.29" fill="white" transform="translate(0.549805 0.730469)"/>
</clipPath>
</defs>
</svg>
