<svg width="19" height="17" viewBox="0 0 19 17" fill="none" xmlns="http://www.w3.org/2000/svg">
<path d="M10.384 4.61716C10.7004 4.41954 10.9155 4.0918 10.9727 3.72017C11.0299 3.34854 10.9238 2.97016 10.6819 2.68445C10.4401 2.39875 10.0868 2.23438 9.71494 2.23438C9.34312 2.23438 8.9898 2.39874 8.74802 2.68445C8.50611 2.97016 8.39995 3.34854 8.45716 3.72017C8.51436 4.0918 8.72952 4.41951 9.04584 4.61716L7.218 8.33127C7.08168 8.6105 6.82753 8.81201 6.52699 8.87951C6.22631 8.94687 5.91182 8.87274 5.67165 8.678L2.81572 6.37942V6.37927C3.04781 6.0668 3.1275 5.66464 3.03244 5.28567C2.93724 4.90671 2.67769 4.59163 2.3262 4.42899C1.97472 4.26621 1.56933 4.27326 1.22351 4.44814C0.877723 4.62301 0.628995 4.94685 0.54674 5.32884C0.464633 5.71082 0.557981 6.10994 0.800603 6.41437C1.04322 6.71864 1.40907 6.89555 1.79569 6.8951L3.28897 14.9796C3.37406 15.4554 3.62166 15.8858 3.9885 16.1958C4.35534 16.5058 4.81824 16.6756 5.29622 16.6756H14.1334C14.6114 16.6756 15.0743 16.5058 15.4411 16.1958C15.808 15.8858 16.0556 15.4554 16.1407 14.9796L17.5972 6.87447H17.6217C17.9607 6.87447 18.2857 6.73817 18.5253 6.49565C18.7648 6.25313 18.8991 5.92424 18.8989 5.58142C18.8984 5.23858 18.7634 4.90997 18.5233 4.66804C18.2833 4.42594 17.9579 4.29036 17.619 4.2911C17.2801 4.29182 16.9553 4.42884 16.7164 4.67194C16.4774 4.9149 16.3436 5.2442 16.3447 5.58691C16.3435 5.86585 16.434 6.13732 16.6017 6.35866L13.7458 8.65725C13.5056 8.85213 13.1911 8.92611 12.8905 8.85875C12.5899 8.79139 12.3358 8.58989 12.1994 8.31066L10.384 4.61716Z" fill="#FFB543"/>
</svg>
